<svg width="102" height="48" viewBox="0 0 102 48" version="1.1" xmlns="http://www.w3.org/2000/svg" xmlns:xlink="http://www.w3.org/1999/xlink">
<title>Base Two</title>
<g id="Canvas" transform="matrix(3 0 0 3 -29763 453)">
<g id="Base Two Logo">
<g id="Group">
<g id="Shape">
<g id="Vector">
<use xlink:href="#path0_fill" transform="matrix(3 0 0 3 9939.45 -150.557)" fill="#FFFFFF"/>
</g>
</g>
<g id="Shape">
<g id="Vector">
<use xlink:href="#path1_fill" transform="matrix(3 0 0 3 9950.15 -139.93)" fill="#FFFFFF"/>
</g>
</g>
<g id="Shape">
<g id="Vector">
<use xlink:href="#path2_fill" transform="matrix(3 0 0 3 9939.01 -151)" fill="#FFFFFF"/>
</g>
</g>
<g id="Shape">
<g id="Vector">
<use xlink:href="#path3_fill" transform="matrix(3 0 0 3 9947.92 -142.144)" fill="#FFFFFF"/>
</g>
</g>
<g id="Shape">
<g id="Vector">
<use xlink:href="#path4_fill" transform="matrix(3 0 0 3 9939.01 -151)" fill="#FFFFFF"/>
</g>
</g>
<g id="Shape">
<g id="Vector">
<use xlink:href="#path5_fill" transform="matrix(3 0 0 3 9946.14 -143.915)" fill="#FFFFFF"/>
</g>
</g>
<g id="Shape">
<g id="Vector">
<use xlink:href="#path6_fill" transform="matrix(3 0 0 3 9939.25 -150.76)" fill="#FFFFFF"/>
</g>
</g>
<g id="Shape">
<g id="Vector">
<use xlink:href="#path7_fill" transform="matrix(3 0 0 3 9939.67 -150.336)" fill="#FFFFFF"/>
</g>
</g>
<g id="Shape">
<g id="Vector">
<use xlink:href="#path8_fill" transform="matrix(3 0 0 3 9940.34 -149.672)" fill="#FFFFFF"/>
</g>
</g>
<g id="Shape">
<g id="Vector">
<use xlink:href="#path9_fill" transform="matrix(3 0 0 3 9943.24 -146.793)" fill="#FFFFFF"/>
</g>
</g>
<g id="Shape">
<g id="Vector">
<use xlink:href="#path10_fill" transform="matrix(3 0 0 3 9941.23 -148.786)" fill="#FFFFFF"/>
</g>
</g>
<g id="Shape">
<g id="Vector">
<use xlink:href="#path11_fill" transform="matrix(3 0 0 3 9942.13 -147.9)" fill="#FFFFFF"/>
</g>
</g>
<g id="Shape">
<g id="Vector">
<use xlink:href="#path12_fill" transform="matrix(3 0 0 3 9944.58 -145.465)" fill="#FFFFFF"/>
</g>
</g>
</g>
<g id="Shape">
<g id="Vector">
<use xlink:href="#path13_fill" transform="matrix(3 0 0 3 9921 -150.999)" fill="#FFFFFF"/>
</g>
</g>
</g>
</g>
<defs>
<path id="path0_fill" d="M 0.0360852 1.40024C 0.026862 1.40024 0.0176388 1.3967 0.0105693 1.38972C -0.00352309 1.37567 -0.00352309 1.35292 0.0105693 1.339L 1.34742 0.0105036C 1.36151 -0.00350121 1.38431 -0.00350121 1.39848 0.0105036C 1.41257 0.024555 1.41257 0.0472372 1.39848 0.0612419L 0.0615775 1.38972C 0.0546487 1.3967 0.045285 1.40024 0.0360852 1.40024Z"/>
<path id="path1_fill" d="M 0.0361438 1.4003C 0.0268503 1.4003 0.0176271 1.3968 0.0106044 1.38978C -0.00353479 1.37577 -0.00353479 1.35305 0.0106044 1.33904L 1.34741 0.0105385C 1.3615 -0.00351283 1.38444 -0.00351283 1.39844 0.0105385C 1.41253 0.0245666 1.41253 0.0472023 1.39844 0.0612767L 0.06166 1.38978C 0.0545668 1.39679 0.0453436 1.4003 0.0361438 1.4003Z"/>
<path id="path2_fill" d="M 0.0360852 2.2858C 0.026862 2.2858 0.0176388 2.28233 0.0105693 2.27531C -0.00352309 2.2613 -0.00352309 2.23864 0.0105693 2.22456L 2.23851 0.0105036C 2.25263 -0.00350121 2.27541 -0.00350121 2.28957 0.0105036C 2.30368 0.0245084 2.30368 0.0472371 2.28957 0.0612418L 0.061601 2.27531C 0.0545316 2.28231 0.045285 2.2858 0.0360852 2.2858Z"/>
<path id="path3_fill" d="M 0.0360325 2.28592C 0.0268795 2.28592 0.0175861 2.28244 0.0105165 2.27541C -0.00350551 2.26141 -0.00350551 2.23868 0.0105165 2.22467L 2.23848 0.0105385C 2.25257 -0.00351283 2.27545 -0.00351283 2.28953 0.0105385C 2.30363 0.0245433 2.30363 0.0472023 2.28953 0.0612767L 0.0615486 2.27541C 0.0545491 2.28244 0.0453493 2.28592 0.0360325 2.28592Z"/>
<path id="path4_fill" d="M 0.0360853 2.87619C 0.026862 2.87619 0.0176388 2.87276 0.0105693 2.86574C -0.00352309 2.85173 -0.00352309 2.829 0.0105693 2.81493L 2.83259 0.0105036C 2.84668 -0.0035012 2.86956 -0.0035012 2.88365 0.0105036C 2.89778 0.0245084 2.89778 0.0472371 2.88365 0.0612418L 0.061601 2.86574C 0.0545316 2.87274 0.0452851 2.87619 0.0360853 2.87619Z"/>
<path id="path5_fill" d="M 0.0361379 2.87633C 0.0268913 2.87633 0.0176213 2.87284 0.0106219 2.86582C -0.00354064 2.85181 -0.00354064 2.82908 0.0106219 2.81508L 2.83264 0.0105036C 2.84674 -0.00350121 2.86961 -0.00350121 2.8837 0.0105036C 2.89779 0.0245085 2.89779 0.047214 2.8837 0.0613116L 0.061654 2.86582C 0.0545844 2.87284 0.0453612 2.87633 0.0361379 2.87633Z"/>
<path id="path6_fill" d="M 0.0362081 3.3191C 0.0268444 3.3191 0.0176212 3.31556 0.0106219 3.30858C -0.00354064 3.29458 -0.00354064 3.27185 0.0106219 3.25784L 3.27816 0.0105385C 3.29226 -0.00351283 3.31512 -0.00351283 3.32912 0.0105385C 3.34329 0.0245433 3.34329 0.0472023 3.32912 0.0612767L 0.0616773 3.30858C 0.0546077 3.31554 0.0453845 3.3191 0.0362081 3.3191Z"/>
<path id="path7_fill" d="M 0.0361379 3.61427C 0.0268445 3.61427 0.0176213 3.6108 0.0106219 3.60375C -0.00354064 3.58975 -0.00354064 3.56704 0.0106219 3.55304L 3.57526 0.0105385C 3.58935 -0.00351283 3.61222 -0.00351283 3.62631 0.0105385C 3.6404 0.0245433 3.6404 0.0472023 3.62631 0.0612767L 0.0616775 3.60375C 0.0545844 3.6108 0.0453612 3.61427 0.0361379 3.61427Z"/>
<path id="path8_fill" d="M 0.0361555 3.76187C 0.0268855 3.76187 0.0176388 3.7584 0.0105693 3.75135C -0.00352309 3.73735 -0.00352309 3.71464 0.0105693 3.70064L 3.72373 0.0105036C 3.73783 -0.00350121 3.76069 -0.00350121 3.77479 0.0105036C 3.78888 0.024555 3.78888 0.0472372 3.77479 0.0612419L 0.0616949 3.75135C 0.054602 3.7584 0.0453787 3.76187 0.0361555 3.76187Z"/>
<path id="path9_fill" d="M 0.0360326 3.61425C 0.0268093 3.61425 0.0175861 3.61076 0.0105166 3.60374C -0.00350552 3.58973 -0.00350552 3.567 0.0105166 3.55299L 3.57515 0.0105211C 3.58929 -0.00350702 3.61209 -0.00350702 3.62618 0.0105211C 3.64041 0.0245259 3.64041 0.0472313 3.62618 0.0612364L 0.0615487 3.60374C 0.0545492 3.61073 0.0452558 3.61425 0.0360326 3.61425Z"/>
<path id="path10_fill" d="M 0.0360852 3.76191C 0.0269322 3.76191 0.0175686 3.75844 0.0105693 3.75142C -0.00352308 3.73741 -0.00352308 3.71475 0.0105693 3.70067L 3.72382 0.0105385C 3.73798 -0.00351284 3.76079 -0.00351284 3.77488 0.0105385C 3.78901 0.0245434 3.78901 0.0472024 3.77488 0.0612768L 0.0616244 3.75142C 0.0545316 3.75841 0.0453084 3.76191 0.0360852 3.76191Z"/>
<path id="path11_fill" d="M 0.0360852 3.76189C 0.026862 3.76189 0.0177091 3.75833 0.0105693 3.75138C -0.00352309 3.73733 -0.00352309 3.71465 0.0105693 3.70064L 3.72375 0.0105036C 3.73785 -0.00350121 3.76062 -0.00350121 3.77488 0.0105036C 3.78888 0.0245085 3.78888 0.0472372 3.77488 0.0612419L 0.0616245 3.75138C 0.0546018 3.75833 0.0453085 3.76189 0.0360852 3.76189Z"/>
<path id="path12_fill" d="M 0.0361379 3.31906C 0.0268445 3.31906 0.0176213 3.31557 0.0106219 3.30855C -0.00354064 3.29454 -0.00354064 3.27188 0.0106219 3.2578L 3.27807 0.0105036C 3.2923 -0.00350121 3.31504 -0.00350121 3.3292 0.0105036C 3.34336 0.0245084 3.34336 0.0472139 3.3292 0.0612887L 0.061654 3.30852C 0.0545844 3.31554 0.0453611 3.31906 0.0361379 3.31906Z"/>
<path id="path13_fill" d="M 5.27022 2.61893C 5.27022 4.06538 4.09085 5.23795 2.63529 5.23795C 1.17989 5.23795 0 4.06538 0 2.61893C 0 1.17264 1.17989 0 2.63531 0C 4.09085 0 5.27022 1.17264 5.27022 2.61893Z"/>
</defs>
</svg>
