<svg width="1768" height="202" viewBox="0 0 1768 202" version="1.1" xmlns="http://www.w3.org/2000/svg" xmlns:xlink="http://www.w3.org/1999/xlink">
<title>Base Two</title>
<g id="Canvas" transform="matrix(2 0 0 2 -2326 398)">
<g id="logo white">
<g id="Group">
<g id="Shape">
<g id="Vector">
<use xlink:href="#path0_fill" transform="matrix(3 0 0 3 1972.9 -198.999)" fill="#FFFFFF"/>
</g>
</g>
<g id="Shape">
<g id="Vector">
<use xlink:href="#path1_fill" transform="matrix(3 0 0 3 1848.56 -197.624)" fill="#FFFFFF"/>
</g>
</g>
<g id="Shape">
<g id="Vector">
<use xlink:href="#path2_fill" transform="matrix(3 0 0 3 1767.24 -197.507)" fill="#FFFFFF"/>
</g>
</g>
<g id="Shape">
<g id="Vector">
<use xlink:href="#path3_fill" transform="matrix(3 0 0 3 1668.87 -197.299)" fill="#FFFFFF"/>
</g>
</g>
<g id="Shape">
<g id="Vector">
<use xlink:href="#path4_fill" transform="matrix(3 0 0 3 1581.79 -198.773)" fill="#FFFFFF"/>
</g>
</g>
<g id="Shape">
<g id="Vector">
<use xlink:href="#path5_fill" transform="matrix(3 0 0 3 1496.33 -197.624)" fill="#FFFFFF"/>
</g>
</g>
<g id="Shape">
<g id="Vector">
<use xlink:href="#path6_fill" transform="matrix(3 0 0 3 1424.22 -197.51)" fill="#FFFFFF"/>
</g>
</g>
</g>
<g id="Group">
<g id="Shape">
<g id="Vector">
<use xlink:href="#path7_fill" transform="matrix(3 0 0 3 1279.14 -196.212)" fill="#FFFFFF"/>
</g>
</g>
<g id="Shape">
<g id="Vector">
<use xlink:href="#path8_fill" transform="matrix(3 0 0 3 1346.45 -129.259)" fill="#FFFFFF"/>
</g>
</g>
<g id="Shape">
<g id="Vector">
<use xlink:href="#path9_fill" transform="matrix(3 0 0 3 1276.33 -199)" fill="#FFFFFF"/>
</g>
</g>
<g id="Shape">
<g id="Vector">
<use xlink:href="#path10_fill" transform="matrix(3 0 0 3 1332.43 -143.208)" fill="#FFFFFF"/>
</g>
</g>
<g id="Shape">
<g id="Vector">
<use xlink:href="#path11_fill" transform="matrix(3 0 0 3 1276.33 -199)" fill="#FFFFFF"/>
</g>
</g>
<g id="Shape">
<g id="Vector">
<use xlink:href="#path12_fill" transform="matrix(3 0 0 3 1321.2 -154.367)" fill="#FFFFFF"/>
</g>
</g>
<g id="Shape">
<g id="Vector">
<use xlink:href="#path13_fill" transform="matrix(3 0 0 3 1277.86 -197.49)" fill="#FFFFFF"/>
</g>
</g>
<g id="Shape">
<g id="Vector">
<use xlink:href="#path14_fill" transform="matrix(3 0 0 3 1280.53 -194.815)" fill="#FFFFFF"/>
</g>
</g>
<g id="Shape">
<g id="Vector">
<use xlink:href="#path15_fill" transform="matrix(3 0 0 3 1284.75 -190.631)" fill="#FFFFFF"/>
</g>
</g>
<g id="Shape">
<g id="Vector">
<use xlink:href="#path16_fill" transform="matrix(3 0 0 3 1302.97 -172.498)" fill="#FFFFFF"/>
</g>
</g>
<g id="Shape">
<g id="Vector">
<use xlink:href="#path17_fill" transform="matrix(3 0 0 3 1290.35 -185.052)" fill="#FFFFFF"/>
</g>
</g>
<g id="Shape">
<g id="Vector">
<use xlink:href="#path18_fill" transform="matrix(3 0 0 3 1295.96 -179.473)" fill="#FFFFFF"/>
</g>
</g>
<g id="Shape">
<g id="Vector">
<use xlink:href="#path19_fill" transform="matrix(3 0 0 3 1311.38 -164.13)" fill="#FFFFFF"/>
</g>
</g>
</g>
<g id="Shape">
<g id="Vector">
<use xlink:href="#path20_fill" transform="matrix(3 0 0 3 1163 -198.997)" fill="#FFFFFF"/>
</g>
</g>
</g>
</g>
<defs>
<path id="path0_fill" fill-rule="evenodd" d="M 21.4163 29.6623C 23.6058 27.0889 24.7008 23.6024 24.7008 19.2006L 24.7008 14.322C 24.7008 9.93598 23.5986 6.45259 21.394 3.87153C 19.1895 1.29046 16.1669 0 12.3282 0C 8.47304 0 5.45505 1.29046 3.27281 3.87153C 1.09057 6.4527 0 9.93598 0 14.322L 0 19.2006C 0 23.6024 1.09778 27.0889 3.29519 29.6623C 5.49262 32.2359 8.60174 33.4564 12.4568 33.4564C 16.2955 33.4564 19.2263 32.2359 21.4163 29.6623ZM 20.5841 4.74413C 22.5188 7.1015 23.4862 10.2792 23.4862 14.2773L 23.4864 19.2006C 23.4864 23.2443 22.526 26.4399 20.6067 28.7897C 18.6865 31.1393 16.0976 32.3536 12.5287 32.3536C 8.95905 32.3536 6.05518 31.1356 4.12757 28.7788C 2.2 26.4219 1.23722 23.2291 1.23722 19.2006L 1.23722 14.2773C 1.23722 10.2792 2.19667 7.1015 4.11685 4.74413C 6.03613 2.38685 9.35666 1.29162 12.9111 1.29162C 16.4798 1.29162 18.6493 2.38685 20.5841 4.74413Z"/>
<path id="path1_fill" d="M 8.08416 24.9195L 9.50151 30.2006L 9.63646 30.2006L 11.0537 24.9195L 18.8897 0L 19.8112 0L 27.8361 24.9195L 29.2309 30.2006L 29.3659 30.2006L 30.8282 24.9195L 37.7796 0L 39.1618 0L 30.0859 32.528L 28.7136 32.528L 20.5925 5.36055L 19.5127 2.11559L 19.3776 2.11559L 18.3428 5.36055L 10.1542 32.528L 8.78208 32.528L 0 1.3668e-15L 1.29034 1.3668e-15L 8.08416 24.9195Z"/>
<path id="path2_fill" d="M 24.8071 1.33604L 13.279 1.33604L 13.279 32.5008L 11.8969 32.5008L 11.8969 1.33604L 0 1.33604L 0 0L 24.8071 0L 24.8071 1.33604Z"/>
<path id="path3_fill" d="M 17.0468 15.9323L 1.38213 15.9323L 1.38213 31.1648L 19.3505 31.1648L 19.3505 32.4316L 0 32.4316L 0 0L 19.3505 0L 19.3505 1.26672L 1.38213 1.26672L 1.38213 14.6659L 17.0468 14.6659L 17.0468 15.9323Z"/>
<path id="path4_fill" d="M 21.9717 25.3772C 21.9717 23.5127 21.2024 22.0088 19.6655 20.8671C 18.1286 19.7259 15.5072 18.5515 11.8035 17.3431C 8.11416 16.2241 5.39573 15.038 3.64806 13.785C 1.90069 12.5317 1.02774 10.6744 1.02774 8.21276C 1.02774 5.76551 2.05082 3.78548 4.09817 2.27079C 6.14535 0.757271 8.74402 0 11.8936 0C 15.1626 0 17.8396 0.779549 19.7781 2.50631C 21.657 4.17931 22.5784 6.63913 22.5784 9.67893L 21.5355 9.67893C 21.9963 7.87976 20.6896 5.1989 18.89 3.60287C 17.0903 2.00596 14.7515 1.07062 11.8874 1.07062C 8.93218 1.07062 6.59178 1.89853 4.85237 3.27795C 3.11206 4.65824 2.2428 6.2883 2.2428 8.16807C 2.2428 10.0478 2.94381 11.5731 4.34568 12.7441C 5.7477 13.9157 8.36171 15.0606 12.186 16.1794C 15.9052 17.3431 18.6721 18.5516 20.4872 19.8047C 22.3013 21.0584 23.2093 22.9005 23.2093 25.3325C 23.2093 27.8094 22.1368 29.7931 19.9925 31.2852C 17.8472 32.7773 15.2007 33.3811 12.0512 33.3811C 8.7667 33.3811 5.93953 32.7585 3.57012 31.2287C 1.19997 29.6997 -0.0723978 27.2945 0.00318403 24.0122L 0.00318403 23.8868L 1.38532 23.8868C 1.38532 26.8407 2.27977 28.9765 4.47003 30.3111C 6.65938 31.6466 9.17469 32.2783 12.0397 32.2783C 14.9039 32.2783 17.2849 31.6538 19.1602 30.3334C 21.0343 29.0134 21.9717 27.3618 21.9717 25.3772Z"/>
<path id="path5_fill" fill-rule="evenodd" d="M 4.99418 22.9153L 20.9891 22.9153L 24.6558 32.528L 25.9833 32.528L 13.7228 0L 12.2381 0L 0 32.528L 1.3271 32.528L 4.99418 22.9153ZM 20.5392 21.5404L 5.44413 21.5404L 12.3056 3.34656L 12.913 1.44435L 13.048 1.44435L 13.6777 3.34656L 20.5392 21.5404Z"/>
<path id="path6_fill" fill-rule="evenodd" d="M 0 32.5402L 0 0L 8.75376 0C 12.1427 0 14.8746 0.650721 16.7498 2.0382C 18.6243 3.42569 19.8111 5.49966 19.8111 8.24953C 19.8111 10.0829 19.1155 11.6757 18.2229 12.9588C 17.3311 14.2421 16.0669 15.0994 14.4326 15.5323L 14.4102 15.6666C 16.345 15.9203 17.9719 16.8043 19.292 18.3185C 20.6111 19.8326 21.2717 21.5822 21.2717 23.5668C 21.2717 26.4159 20.3459 28.6242 18.4931 30.1907C 16.6411 31.7571 14.1926 32.5403 11.1485 32.5403L 0 32.5402ZM 1.38221 15.112L 9.6751 15.112C 12.5096 15.0672 14.7061 14.5803 16.1532 13.4167C 17.6011 12.2531 18.429 10.5151 18.429 8.20264C 18.429 5.87527 17.5255 4.11863 15.9284 2.93251C 14.3309 1.74642 11.8727 1.36286 8.75376 1.36286L 1.38221 1.36286L 1.38221 15.112ZM 1.38221 31.1531L 1.38221 16.4869L 11.0575 16.4868C 13.7866 16.4868 16.0443 17.0943 17.6497 18.4069C 19.2542 19.72 20.0569 21.4509 20.0569 23.5992C 20.0569 26.0312 19.2613 27.9252 17.6721 29.2832C 16.082 30.6412 13.8164 31.1531 11.0575 31.1531L 1.38221 31.1531Z"/>
<path id="path7_fill" d="M 0.227114 8.82133C 0.169065 8.82133 0.111016 8.79906 0.0665211 8.75509C -0.0221737 8.66657 -0.0221737 8.52322 0.0665211 8.43557L 8.48042 0.0661716C 8.56912 -0.0220572 8.71263 -0.0220572 8.80178 0.0661716C 8.89045 0.154694 8.89045 0.297589 8.80178 0.385817L 0.387559 8.75509C 0.34395 8.79906 0.285017 8.82133 0.227114 8.82133Z"/>
<path id="path8_fill" d="M 0.227483 8.82171C 0.168992 8.82171 0.110942 8.7997 0.0667421 8.75546C -0.0222474 8.66722 -0.0222474 8.52405 0.0667421 8.4358L 8.48039 0.0663913C 8.56905 -0.0221304 8.71343 -0.0221304 8.80157 0.0663913C 8.89023 0.154767 8.89023 0.297369 8.80157 0.386036L 0.388078 8.75546C 0.343434 8.79959 0.285385 8.82171 0.227483 8.82171Z"/>
<path id="path9_fill" d="M 0.227115 14.4002C 0.169065 14.4002 0.111016 14.3784 0.0665212 14.3342C -0.0221737 14.2459 -0.0221737 14.1032 0.0665212 14.0145L 14.0888 0.0661715C 14.1777 -0.0220572 14.321 -0.0220572 14.4101 0.0661715C 14.499 0.1544 14.499 0.297588 14.4101 0.385816L 0.387706 14.3342C 0.343213 14.3783 0.285017 14.4002 0.227115 14.4002Z"/>
<path id="path10_fill" d="M 0.226782 14.4011C 0.169175 14.4011 0.110684 14.3791 0.0661894 14.3348C -0.0220631 14.2466 -0.0220631 14.1034 0.0661894 14.0152L 14.0886 0.0663913C 14.1773 -0.0221304 14.3213 -0.0221304 14.4099 0.0663913C 14.4986 0.15462 14.4986 0.297369 14.4099 0.386036L 0.387376 14.3348C 0.343323 14.3791 0.285421 14.4011 0.226782 14.4011Z"/>
<path id="path11_fill" d="M 0.227115 18.1196C 0.169065 18.1196 0.111016 18.0981 0.0665212 18.0538C -0.0221737 17.9656 -0.0221737 17.8224 0.0665212 17.7337L 17.8279 0.0661715C 17.9165 -0.0220572 18.0605 -0.0220572 18.1492 0.0661715C 18.2382 0.1544 18.2382 0.297588 18.1492 0.385816L 0.387706 18.0538C 0.343213 18.0979 0.285017 18.1196 0.227115 18.1196Z"/>
<path id="path12_fill" d="M 0.227446 18.1205C 0.169249 18.1205 0.110905 18.0986 0.0668526 18.0543C -0.0222842 17.9661 -0.0222842 17.8229 0.0668526 17.7347L 17.8282 0.0661717C 17.9169 -0.0220572 18.0609 -0.0220572 18.1495 0.0661717C 18.2382 0.154401 18.2382 0.297442 18.1495 0.386256L 0.38804 18.0543C 0.343545 18.0986 0.285496 18.1205 0.227446 18.1205Z"/>
<path id="path13_fill" d="M 0.227888 20.9099C 0.168954 20.9099 0.110905 20.8876 0.0668525 20.8437C -0.0222842 20.7554 -0.0222842 20.6123 0.0668525 20.524L 20.6322 0.0663913C 20.7209 -0.0221304 20.8648 -0.0221304 20.9529 0.0663913C 21.0421 0.15462 21.0421 0.297369 20.9529 0.386036L 0.388187 20.8437C 0.343692 20.8875 0.285642 20.9099 0.227888 20.9099Z"/>
<path id="path14_fill" d="M 0.227446 22.7695C 0.168955 22.7695 0.110905 22.7476 0.0668526 22.7032C -0.0222842 22.615 -0.0222842 22.4719 0.0668526 22.3837L 22.5021 0.0663913C 22.5908 -0.0221304 22.7347 -0.0221304 22.8234 0.0663913C 22.9121 0.15462 22.9121 0.297369 22.8234 0.386036L 0.388188 22.7032C 0.343545 22.7476 0.285495 22.7695 0.227446 22.7695Z"/>
<path id="path15_fill" d="M 0.227557 23.6993C 0.169213 23.6993 0.111016 23.6775 0.0665212 23.6331C -0.0221737 23.5449 -0.0221737 23.4018 0.0665212 23.3136L 23.4366 0.0661717C 23.5253 -0.0220572 23.6692 -0.0220572 23.7579 0.0661717C 23.8466 0.154694 23.8466 0.297589 23.7579 0.385817L 0.388298 23.6331C 0.343656 23.6775 0.285606 23.6993 0.227557 23.6993Z"/>
<path id="path16_fill" d="M 0.226783 22.7694C 0.168734 22.7694 0.110684 22.7474 0.0661895 22.7031C -0.0220632 22.6149 -0.0220632 22.4717 0.0661895 22.3835L 22.5014 0.0662814C 22.5904 -0.0220938 22.7339 -0.0220938 22.8226 0.0662814C 22.9122 0.15451 22.9122 0.297552 22.8226 0.385782L 0.387377 22.7031C 0.343324 22.7472 0.284832 22.7694 0.226783 22.7694Z"/>
<path id="path17_fill" d="M 0.227114 23.6996C 0.169507 23.6996 0.110574 23.6777 0.0665211 23.6335C -0.0221737 23.5452 -0.0221737 23.4025 0.0665211 23.3138L 23.4371 0.0663914C 23.5262 -0.0221305 23.6698 -0.0221305 23.7585 0.0663914C 23.8474 0.15462 23.8474 0.29737 23.7585 0.386037L 0.387854 23.6335C 0.343213 23.6776 0.285164 23.6996 0.227114 23.6996Z"/>
<path id="path18_fill" d="M 0.227114 23.6995C 0.169065 23.6995 0.111458 23.6771 0.0665211 23.6332C -0.0221737 23.5447 -0.0221737 23.4018 0.0665211 23.3136L 23.4367 0.0661717C 23.5254 -0.0220572 23.6687 -0.0220572 23.7585 0.0661717C 23.8466 0.154401 23.8466 0.297589 23.7585 0.385817L 0.387854 23.6332C 0.343655 23.6771 0.285164 23.6995 0.227114 23.6995Z"/>
<path id="path19_fill" d="M 0.227446 20.9097C 0.168955 20.9097 0.110905 20.8877 0.0668526 20.8435C -0.0222842 20.7552 -0.0222842 20.6125 0.0668526 20.5238L 20.6316 0.0661716C 20.7212 -0.0220572 20.8643 -0.0220572 20.9534 0.0661716C 21.0425 0.1544 21.0425 0.297442 20.9534 0.386112L 0.38804 20.8433C 0.343545 20.8875 0.285495 20.9097 0.227446 20.9097Z"/>
<path id="path20_fill" d="M 33.1699 16.4989C 33.1699 25.6114 25.7471 32.9985 16.5861 32.9985C 7.42606 32.9985 0 25.6114 0 16.4989C 0 7.38747 7.42606 0 16.5862 0C 25.7471 0 33.1699 7.38747 33.1699 16.4989Z"/>
</defs>
</svg>
