<?xml version="1.0" encoding="UTF-8"?>
<svg width="1142px" height="1142px" viewBox="0 0 1142 1142" version="1.1" xmlns="http://www.w3.org/2000/svg" xmlns:xlink="http://www.w3.org/1999/xlink">
    <!-- Generator: Sketch 49.1 (51147) - http://www.bohemiancoding.com/sketch -->
    <title>safari-pinned-tab</title>
    <desc>Created with Sketch.</desc>
    <defs></defs>
    <g id="safari-pinned-tab" stroke="none" stroke-width="1" fill="none" fill-rule="evenodd">
        <g id="logo" transform="translate(0.000000, 302.000000)" fill="#000000" fill-rule="nonzero">
            <path d="M628.581359,161.84632 C627.10562,161.865059 625.767253,160.979015 625.202125,159.60915 C624.636996,158.239285 624.959017,156.66172 626.015192,155.625963 L760.947435,20.7763572 C762.374687,19.3462207 764.684593,19.3462207 766.111845,20.7763572 C766.797486,21.4574827 767.183333,22.3859693 767.183333,23.3547435 C767.183333,24.3235178 766.797486,25.2520044 766.111845,25.9331299 L631.163564,160.798851 C630.479912,161.475569 629.557066,161.852261 628.597397,161.84632 L628.581359,161.84632 Z" id="path7_fill"></path>
            <path d="M988.43275,521.509729 C986.964757,521.512263 985.640192,520.624897 985.078075,519.26233 C984.515957,517.899764 984.827293,516.331075 985.866583,515.289372 L1120.79883,380.407536 C1121.48222,379.716701 1122.41161,379.32824 1123.38103,379.32824 C1124.35045,379.32824 1125.27984,379.716701 1125.96324,380.407536 C1126.64888,381.088662 1127.03472,382.017148 1127.03472,382.985922 C1127.03472,383.954697 1126.64888,384.883183 1125.96324,385.564309 L991.014955,520.446144 C990.331946,521.125787 989.410059,521.507876 988.448788,521.509729 L988.43275,521.509729 Z" id="path8_fill"></path>
            <path d="M613.558593,236.775302 C612.082853,236.794041 610.744487,235.907996 610.179358,234.538131 C609.61423,233.168267 609.93625,231.590701 610.992426,230.554945 L835.884843,5.78411493 C837.310224,4.36465927 839.607833,4.36465927 841.033215,5.78411493 C841.718856,6.46524038 842.104703,7.39372702 842.104703,8.36250127 C842.104703,9.33127553 841.718856,10.2597622 841.033215,10.9408876 L616.140798,235.711717 C615.457789,236.39136 614.535902,236.773449 613.574631,236.775302 L613.558593,236.775302 Z" id="path9_fill"></path>
            <path d="M913.479303,536.485856 C912.011311,536.48839 910.686745,535.601024 910.124628,534.238458 C909.56251,532.875891 909.873846,531.307202 910.913136,530.265499 L1135.78951,305.478555 C1137.21299,304.069714 1139.49838,304.069714 1140.92185,305.478555 C1141.60749,306.15968 1141.99334,307.088167 1141.99334,308.056941 C1141.99334,309.025715 1141.60749,309.954202 1140.92185,310.635327 L916.061508,535.422272 C915.381475,536.106406 914.457654,536.489297 913.495341,536.485856 L913.479303,536.485856 Z" id="path10_fill"></path>
            <path d="M613.558593,296.722784 C612.0906,296.725319 610.766035,295.837952 610.203918,294.475386 C609.6418,293.112819 609.953136,291.54413 610.992426,290.502427 L895.836908,5.78411493 C897.26416,4.35397838 899.574066,4.35397838 901.001318,5.78411493 C901.686959,6.46524038 902.072806,7.39372702 902.072806,8.36250127 C902.072806,9.33127553 901.686959,10.2597622 901.001318,10.9408876 L616.140798,295.6592 C615.45877,296.340325 614.536248,296.722678 613.574631,296.722784 L613.558593,296.722784 Z" id="path11_fill"></path>
            <path d="M853.441699,536.475113 C851.980734,536.471168 850.664937,535.586342 850.10427,534.230811 C849.543602,532.875281 849.847676,531.314057 850.875532,530.270871 L1135.73605,245.536444 C1137.16331,244.106307 1139.47321,244.106307 1140.90046,245.536444 C1141.58213,246.219698 1141.96523,247.147387 1141.96523,248.11483 C1141.96523,249.082273 1141.58213,250.009962 1140.90046,250.693216 L856.007865,535.411529 C855.328458,536.098564 854.405613,536.486845 853.441699,536.491228 L853.441699,536.475113 Z" id="path12_fill"></path>
            <path d="M621.754287,349.79457 C620.787117,349.798735 619.858045,349.41606 619.172082,348.730985 C618.486441,348.04986 618.100594,347.121373 618.100594,346.152599 C618.100594,345.183825 618.486441,344.255338 619.172082,343.574213 L949.00467,13.8952886 C950.449646,12.658923 952.597497,12.7452813 953.939529,14.0937038 C955.28156,15.4421263 955.36751,17.6002052 954.137003,19.0520613 L624.336492,348.730985 C623.652514,349.409159 622.731253,349.790989 621.770325,349.79457 L621.754287,349.79457 Z" id="path13_fill"></path>
            <path d="M636.012549,394.137443 C635.047918,394.136622 634.123768,393.747792 633.446383,393.057744 C632.756714,392.378792 632.368069,391.449492 632.368069,390.479358 C632.368069,389.509224 632.756714,388.579924 633.446383,387.900971 L993.271043,28.2805358 C994.696424,26.8610801 996.994033,26.8610801 998.419414,28.2805358 C999.105055,28.9616613 999.490902,29.8901479 999.490902,30.8589221 C999.490902,31.8276964 999.105055,32.756183 998.419414,33.4373085 L638.594754,393.057744 C637.915347,393.74478 636.992502,394.133061 636.028588,394.137443 L636.012549,394.137443 Z" id="path14_fill"></path>
            <path d="M658.589468,431.599248 C657.12609,431.592705 655.808834,430.706446 655.245494,429.349397 C654.682154,427.992348 654.982229,426.42829 656.007263,425.378891 L1030.82796,50.7393552 C1032.25143,49.3305147 1034.53682,49.3305147 1035.96029,50.7393552 C1036.64593,51.4204807 1037.03178,52.3489673 1037.03178,53.3177415 C1037.03178,54.2865158 1036.64593,55.2150024 1035.96029,55.8961279 L661.171674,430.519549 C660.489646,431.200674 659.567124,431.583027 658.605507,431.583133 L658.589468,431.599248 Z" id="path15_fill"></path>
            <path d="M755.980834,514.016294 C754.520367,514.003341 753.208963,513.11472 752.649706,511.759088 C752.090449,510.403456 752.391601,508.843235 753.414667,507.795936 L1113.20725,148.143271 C1114.6345,146.713135 1116.94441,146.713135 1118.37166,148.143271 C1119.81513,149.577498 1119.81513,151.881931 1118.37166,153.300044 L758.547,512.936594 C757.864972,513.61772 756.94245,514.000072 755.980834,514.000179 L755.980834,514.016294 Z" id="path16_fill"></path>
            <path d="M688.512039,461.567618 C687.0363,461.586357 685.697934,460.700312 685.132805,459.330448 C684.567677,457.960583 684.889697,456.383018 685.945873,455.347261 L1060.76657,80.7077248 C1062.19382,79.2775883 1064.50373,79.2775883 1065.93098,80.7077248 C1066.61662,81.3888503 1067.00247,82.3173369 1067.00247,83.2861112 C1067.00247,84.2548854 1066.61662,85.1833721 1065.93098,85.8644975 L691.094244,460.487919 C690.413842,461.173469 689.491636,461.561482 688.528078,461.567618 L688.512039,461.567618 Z" id="path17_fill"></path>
            <path d="M718.50411,491.535988 C717.028371,491.554727 715.690005,490.668682 715.124876,489.298817 C714.559748,487.928953 714.881768,486.351387 715.937944,485.315631 L1090.75864,110.676094 C1091.67544,109.749168 1093.01477,109.384091 1094.27211,109.718383 C1095.52945,110.052676 1096.51378,111.035551 1096.85431,112.29677 C1097.19485,113.557988 1096.83985,114.905941 1095.92305,115.832867 L721.086315,490.456288 C720.405913,491.141839 719.483707,491.529852 718.520149,491.535988 L718.50411,491.535988 Z" id="path18_fill"></path>
            <path d="M800.942209,528.992421 C799.474217,528.994955 798.149652,528.107589 797.587534,526.745022 C797.025417,525.382456 797.336753,523.813767 798.376043,522.772064 L1128.20863,193.09314 C1129.63757,191.682385 1131.92807,191.682385 1133.357,193.09314 C1134.80047,194.511252 1134.80047,196.815685 1133.357,198.249912 L803.524414,527.912722 C802.845006,528.599757 801.922162,528.988038 800.958248,528.992421 L800.942209,528.992421 Z" id="path19_fill"></path>
            <path d="M526.140896,264.019381 C526.140896,409.830921 408.397638,528.054765 263.08631,528.054765 C117.790844,528.038762 0,409.814919 0,264.003379 C0,118.191839 117.790844,0 263.08631,0 C408.397638,0 526.140896,118.207841 526.140896,264.019381 Z" id="path20_fill"></path>
        </g>
    </g>
</svg>