<svg viewBox="0 0 2747 228" xmlns="http://www.w3.org/2000/svg">
  <g fill-rule="evenodd">
    <path d="M706.3 3.7h8v148.6c0 20.6-5.7 37-17 49.2a57.7 57.7 0 0 1-44.6 18.4c-20 0-35.1-5.3-45.7-16-10.5-10.6-15.8-25.8-15.8-45.6h7.9c0 17.3 4.5 30.6 13.4 39.9 9 9.2 22.3 13.8 40.2 13.8 15.6 0 28.4-5.2 38.3-15.7a61 61 0 0 0 15.3-42.6V3.7zM925 126.3c0 18.5-3.3 34.8-9.8 49a75.7 75.7 0 0 1-28.2 33 77 77 0 0 1-42.2 11.6c-24 0-43.5-8.5-58.3-25.6-14.9-17.1-22.3-40.1-22.3-69.1V94.4c0-18.4 3.3-34.7 9.9-49a75.5 75.5 0 0 1 28.3-33 77 77 0 0 1 42-11.6c16 0 30 3.9 42.3 11.6a75.9 75.9 0 0 1 28.4 33.1c6.6 14.3 10 30.6 10 48.9v32zm-7.9-32.2c0-25.8-6.5-46.5-19.6-62a65.7 65.7 0 0 0-53-23.4c-22 0-39.5 7.7-52.6 23.2-13.1 15.5-19.6 36.6-19.6 63.2v31.2c0 17 3 32 8.8 45 6 13.1 14.4 23.1 25.3 30.2 11 7 23.7 10.5 38.4 10.5 22.2 0 39.9-7.7 52.9-23.3 13-15.5 19.4-36.7 19.4-63.5V94zM989.5 217h-7.9V3.7h8V217zm220 0h-7.8L1064 17.2V217h-8.1V3.7h8l137.8 199.4V3.7h7.9V217zm285.3-90.7c0 18.5-3.3 34.8-9.9 49a75.7 75.7 0 0 1-28.2 33 77 77 0 0 1-42.2 11.6c-24 0-43.4-8.5-58.3-25.6-14.8-17.1-22.2-40.1-22.2-69.1V94.4c0-18.4 3.3-34.7 9.9-49a75.5 75.5 0 0 1 28.2-33A77 77 0 0 1 1414.3.8c15.9 0 30 3.9 42.2 11.6a75.9 75.9 0 0 1 28.4 33.1c6.6 14.3 10 30.6 10 48.9v32zm-7.9-32.2c0-25.8-6.5-46.5-19.6-62a65.7 65.7 0 0 0-53-23.4c-22 0-39.6 7.7-52.6 23.2-13.1 15.5-19.7 36.6-19.7 63.2v31.2c0 17 3 32 8.9 45 5.9 13.1 14.3 23.1 25.3 30.2 10.9 7 23.7 10.5 38.3 10.5 22.3 0 40-7.7 53-23.3 13-15.5 19.4-36.7 19.4-63.5V94zm202.2-90.4v144.5c0 22.5-6.6 40.1-19.6 52.8-13.1 12.6-30.9 19-53.2 19-22.4 0-40.1-6.4-53.2-19-13-12.7-19.7-30-19.8-52.3V3.7h8V148c0 19.7 5.9 35.3 17.7 46.8a65 65 0 0 0 47.3 17.3c19.6 0 35.3-5.7 47.1-17.3a62.7 62.7 0 0 0 17.8-47V3.7h7.9zm139.5 122h-74V217h-8V3.7h68c21.4 0 38.4 5.5 51 16.6 12.7 11 19 26 19 45a58 58 0 0 1-13.5 38.1 57.3 57.3 0 0 1-34.5 20.3l57 91.2v2.1h-8.4l-56.6-91.3zm-74-7.9h67.2c16.4 0 29.7-5 39.8-15a50.7 50.7 0 0 0 15.1-37.6A49 49 0 0 0 1860 26c-11.2-9.6-26.5-14.4-46-14.4h-59.4v106.2zm400.8-106.2h-77.6V217h-8V11.6h-77.6V3.7h163.2v8zm154.1 99.6h-106.9v97.9h121.9v7.9h-129.8V3.7h129.8v8h-121.9v91.6h107v8zm170.3 42h-104.5l-23.7 63.8h-8.6l79.8-213.3h9.7l79.8 213.3h-8.6l-24-63.7zm-101.5-7.8h98.5l-49.2-132.2-49.3 132.2zM2559.8 3.7l87.7 201.7 88-201.7h11.6V217h-7.9V15.4L2650.7 217h-6.3l-88-200.5V217h-7.9V3.7h11.3z"/>
    <g fill-rule="nonzero">
      <path d="M264.3 68.5a1.5 1.5 0 0 1-1.1-2.6l57.1-57.1a1.5 1.5 0 0 1 2.2 2.2l-57.1 57c-.3.4-.7.5-1.1.5zM416.6 220.8c-.4 0-.8-.1-1.1-.4-.6-.6-.6-1.6 0-2.2l57-57.1c.7-.6 1.7-.6 2.3 0 .6.6.6 1.5 0 2.2l-57.1 57c-.3.4-.7.5-1.1.5zM258 100.3c-.4 0-.8-.2-1.1-.5-.6-.6-.6-1.6 0-2.2L352 2.5a1.5 1.5 0 0 1 2.2 2.1L259 99.8c-.3.3-.7.5-1 .5zM384.8 227.2a1.5 1.5 0 0 1-1-2.7l95.1-95.2a1.5 1.5 0 1 1 2.2 2.2L386 226.7c-.3.3-.7.5-1 .5zM258 125.6c-.4 0-.8-.1-1.1-.4-.6-.6-.6-1.6 0-2.2L377.4 2.5a1.5 1.5 0 0 1 2.2 2.1L259 125.2c-.3.3-.7.4-1 .4zM359.5 227.2c-.4 0-.8-.2-1.1-.5-.6-.6-.6-1.6 0-2.2L478.9 104a1.5 1.5 0 1 1 2.2 2.1L360.6 226.7c-.3.3-.7.5-1.1.5zM261.1 147.8c-.4 0-.8-.1-1-.4-.7-.6-.7-1.6 0-2.2L399.5 5.6c.6-.6 1.6-.6 2.2 0 .6.6.6 1.6 0 2.2L262.2 147.4c-.3.3-.7.4-1 .4zM267.5 166.9c-.4 0-.8-.2-1.1-.5-.6-.6-.6-1.6 0-2.2L418.7 12a1.5 1.5 0 1 1 2.1 2.2L268.6 166.4c-.3.3-.7.5-1.1.5zM277 182.7c-.4 0-.8-.1-1.1-.4-.6-.6-.6-1.6 0-2.2L434.5 21.5a1.5 1.5 0 0 1 2.2 2.2L278 182.3c-.3.3-.7.4-1.1.4zM318.2 217.6c-.4 0-.8-.1-1-.4-.7-.6-.7-1.6 0-2.2L469.3 62.7a1.5 1.5 0 1 1 2.2 2.2L319.3 217.2c-.3.3-.7.4-1 .4zM289.7 195.4c-.4 0-.8-.1-1.1-.4-.6-.6-.6-1.6 0-2.2L447.2 34.2a1.5 1.5 0 1 1 2.2 2.2L290.8 195c-.3.3-.7.4-1.1.4zM302.4 208.1c-.4 0-.8-.1-1.1-.4-.6-.6-.6-1.6 0-2.2L459.9 46.9A1.5 1.5 0 0 1 462 49L303.5 207.7c-.3.3-.7.4-1.1.4zM337.3 224c-.4 0-.8-.2-1.1-.5-.6-.6-.6-1.6 0-2.2L475.8 81.8a1.5 1.5 0 0 1 2.1 2.1L338.4 223.5c-.3.3-.7.5-1.1.5zM225.1 114.6a112.6 112.6 0 1 1-225 0 112.6 112.6 0 0 1 225 0z"/>
    </g>
  </g>
</svg>
