<svg xmlns="http://www.w3.org/2000/svg" width="52" height="48" viewBox="0 0 52 48">
    <g fill="none" fill-rule="evenodd" stroke-linecap="round" stroke-linejoin="round">
        <g stroke-width="2">
            <path stroke="#F63A52" stroke-dasharray="5" d="M25.8 44.448c.584-.442 1.137-.923 1.656-1.44 2.953-2.953 4.612-6.957 4.612-11.133 0-4.176-1.66-8.18-4.612-11.133-4.722-4.722-12.75-6.882-20.124-1.8"/>
            <path stroke="#F63A52" stroke-dasharray="5" d="M41.4 17.346c-6.94-2.897-14.959-.485-19.148 5.76s-3.379 14.58 1.934 19.902c1.027 1 2.174 1.871 3.414 2.592"/>
            <path stroke="#F63A52" stroke-dasharray="5" d="M9.984 17.448c.628 8.229 7.502 14.577 15.755 14.55 8.253-.026 15.086-6.42 15.661-14.652"/>
            <path stroke="#5656B0" d="M25.8.384c4.37.027 8.533 1.87 11.491 5.086 2.959 3.217 4.447 7.519 4.109 11.876 5.613 2.368 9.358 7.76 9.615 13.847.258 6.087-3.019 11.776-8.412 14.609-5.394 2.833-11.938 2.3-16.803-1.366-6.6 5-15.945 4.034-21.382-2.211-5.437-6.245-5.107-15.634.754-21.483 1.38-1.39 3.007-2.507 4.8-3.294-.372-4.414 1.133-8.78 4.146-12.027C17.13 2.173 21.37.345 25.8.384h0z"/>
        </g>
    </g>
</svg>
