<svg xmlns="http://www.w3.org/2000/svg" width="210" height="52" viewBox="0 0 210 52">
  <defs>
    <filter id="logo-primary-180px-a">
      <feColorMatrix in="SourceGraphic" values="0 0 0 0 1.000000 0 0 0 0 1.000000 0 0 0 0 1.000000 0 0 0 1.000000 0"/>
    </filter>
    <filter id="logo-primary-180px-b">
      <feColorMatrix in="SourceGraphic" values="0 0 0 0 0.964706 0 0 0 0 0.227451 0 0 0 0 0.321569 0 0 0 1.000000 0"/>
    </filter>
    <filter id="logo-primary-180px-c">
      <feColorMatrix in="SourceGraphic" values="0 0 0 0 0.925490 0 0 0 0 0.941176 0 0 0 0 0.956863 0 0 0 1.000000 0"/>
    </filter>
  </defs>
  <g fill="none" fill-rule="evenodd" transform="translate(-1)">
    <g filter="url(#logo-primary-180px-a)">
      <g transform="translate(65.222 13.061)">
        <path fill="#FFF" fill-rule="nonzero" d="M70.8583104 18.9390229L77.0028503 18.9390229C76.2184409 23.2492833 72.4271291 25.9921763 67.7206731 25.9921763 60.7917239 25.9921763 57.6540865 20.6370043 57.6540865 16.065516 57.6540865 11.4940277 60.3995192 6.13885571 67.3284684 6.13885571 74.6496223 6.13885571 77.0028503 11.6246417 77.0028503 15.6736742 77.0028503 16.5879718 77.0028503 17.1104276 76.8721154 17.5022695L63.5371566 17.5022695C63.9293613 19.5920927 65.2367102 20.8982322 67.5899382 20.8982322 69.2894918 20.8982322 70.4661058 20.2451624 70.8583104 18.9390229zM63.5371566 13.8450788L70.5968407 13.8450788C70.4661058 12.1470975 69.2894918 10.5797301 67.0669986 10.5797301 65.1059753 10.5797301 63.9293613 11.4940277 63.5371566 13.8450788zM6.53674451 24.032967L6.53674451 25.7309484.26146978 25.7309484.26146978.130613951 6.53674451.130613951 6.53674451 7.96745103C7.58262363 6.92253942 9.15144231 6.13885571 11.3739354 6.13885571 16.8648008 6.13885571 20.263908 9.9266603 20.263908 16.065516 20.263908 22.2043717 16.7340659 25.9921763 11.2432005 25.9921763 9.41291209 25.9921763 7.58262363 25.3391065 6.53674451 24.032967zM14.250103 16.065516C14.250103 13.322623 12.6812843 11.4940277 10.3280563 11.4940277 7.9748283 11.4940277 6.27527473 13.322623 6.27527473 16.065516 6.27527473 18.808409 7.84409341 20.6370043 10.3280563 20.6370043 12.5505495 20.6370043 14.250103 18.808409 14.250103 16.065516zM40.2663462 19.0696369L45.6264766 19.0696369C45.7572115 20.5063903 47.0645604 21.420688 48.6333791 21.420688 49.940728 21.420688 50.8558723 20.8982322 50.8558723 19.9839345 50.8558723 16.8491997 40.9200206 20.1145485 40.9200206 12.1470975 40.9200206 8.62052078 43.9269231 6.13885571 47.8489698 6.13885571 52.6861607 6.13885571 55.954533 8.75113473 56.0852679 12.5389393L50.7251374 12.5389393C50.5944025 11.2327998 49.4177885 10.3185022 48.1104396 10.3185022 46.9338255 10.3185022 46.1494162 10.840958 46.1494162 11.7552556 46.1494162 15.1512183 56.3467376 10.9715719 56.3467376 19.5920927 56.3467376 23.3798973 53.3398352 25.8615624 48.6333791 25.8615624 43.7961882 25.9921763 40.397081 23.2492833 40.2663462 19.0696369zM90.5992788.130613951L90.5992788 6.40008361 95.4364698 6.40008361 95.4364698 11.6246417 90.5992788 11.6246417 90.5992788 17.5022695C90.5992788 19.2002508 91.5144231 19.9839345 93.0832418 19.9839345L95.4364698 19.9839345 95.4364698 25.6003344 92.1680975 25.6003344C87.4616415 25.6003344 84.3240041 22.9880554 84.3240041 18.1553392L84.3240041 11.4940277 80.7941621 11.4940277 80.7941621 6.26946966 84.3240041 6.26946966 84.3240041 1.85613589e-14 90.5992788 1.85613589e-14 90.5992788.130613951zM124.459615 16.065516C124.459615 10.3185022 128.773867 6.13885571 134.787672 6.13885571 140.801477 6.13885571 145.115728 10.3185022 145.115728 16.065516 145.115728 21.8125299 140.801477 25.9921763 134.787672 25.9921763 128.773867 25.9921763 124.459615 21.8125299 124.459615 16.065516zM138.840453 16.065516C138.840453 13.322623 137.271635 11.4940277 134.787672 11.4940277 132.434444 11.4940277 130.73489 13.322623 130.73489 16.065516 130.73489 18.808409 132.303709 20.6370043 134.787672 20.6370043 137.1409 20.6370043 138.840453 18.808409 138.840453 16.065516z"/>
        <polygon fill="#FFF" fill-rule="nonzero" points="96.09 6.4 102.365 6.4 105.242 16.849 108.118 6.4 113.739 6.4 116.616 16.849 119.492 6.4 125.767 6.4 119.361 25.6 114.001 25.6 110.994 15.021 107.987 25.6 102.627 25.6"/>
        <path fill="#FFF" fill-rule="nonzero" d="M38.9589973,13.322623 L38.9589973,25.7309484 L32.6837225,25.7309484 L32.6837225,23.3798973 C32.160783,24.9472647 30.1997596,25.9921763 27.7157967,25.9921763 C24.1859547,25.9921763 21.5712569,23.3798973 21.5712569,20.2451624 C21.5712569,16.4573579 24.3166896,14.1063067 28.3694712,14.1063067 L31.1149038,14.1063067 C32.160783,14.1063067 32.6837225,13.453237 32.6837225,12.5389393 C32.6837225,11.3634138 31.7685783,10.5797301 30.0690247,10.5797301 C27.9772665,10.5797301 27.1928571,11.8858696 27.1928571,13.1920091 L21.7019918,13.1920091 C21.8327266,9.27359054 24.8396291,6.00824176 30.4612294,6.00824176 C35.2984203,6.13885571 38.9589973,9.01236264 38.9589973,13.322623 Z M32.6837225,18.0247253 L29.4153503,18.0247253 C28.3694712,18.0247253 27.4543269,18.808409 27.4543269,19.9839345 C27.4543269,21.0288462 28.2387363,21.6819159 29.4153503,21.6819159 C31.5071085,21.6819159 32.5529876,19.9839345 32.5529876,18.1553392 L32.5529876,18.0247253 L32.6837225,18.0247253 Z"/>
      </g>
    </g>
    <g filter="url(#logo-primary-180px-b)">
      <path fill="#F63A52" fill-rule="nonzero" d="M11.4406479 2.87350693C10.133299 2.22043717 8.82595009 1.69798137 7.3878663 1.30613951L8.04154075 50.6782131C8.95668498 50.4169852 9.87182921 50.0251433 10.7869734 49.6333015L11.4406479 2.87350693zM3.98875916 51.7231247C4.90390339 51.5925108 5.81904762 51.4618968 6.60345696 51.2006689L7.25713141 1.30613951C5.94978251.914297659 4.64243361.653069756 3.20434982.522455805L3.98875916 51.7231247zM23.3375229 14.8899904L23.9911973 36.0494505C25.2985462 33.0453297 25.9522207 29.6493669 25.9522207 26.1227903 25.8214858 22.0737578 24.9063416 18.2859532 23.3375229 14.8899904zM19.5462111 9.14297659L20.1998855 42.3189202C21.1150298 41.2740086 21.8994391 40.098483 22.5531136 38.7923435L22.5531136 38.7923435 23.206788 14.7593765C22.2916438 12.6695533 20.9842949 10.840958 19.5462111 9.14297659zM19.4154762 9.14297659C18.2388622 7.83683708 16.9315133 6.66131151 15.6241644 5.6163999L16.2778388 46.2373387C17.1929831 45.584269 17.9773924 44.8005853 18.7618017 44.0169016L19.4154762 9.14297659zM15.6241644 5.48578595C14.3168155 4.57148829 13.0094666 3.65719064 11.5713828 3.00412088L12.2250572 48.9802317C13.1402015 48.4577759 14.0553457 47.9353201 14.9704899 47.2822504L15.6241644 5.48578595zM3.20434982.391841854C2.1584707.261227903 1.11259158.130613951.0667124542.130613951L.0667124542 51.8537387C.981856685 51.8537387 1.76626603 51.8537387 2.55067537 51.7231247L3.20434982.391841854z" transform="translate(26.98)"/>
    </g>
    <g filter="url(#logo-primary-180px-c)">
      <path fill="#FFF" fill-rule="nonzero" d="M23.4741758 0C23.0819712 0 22.8205014.261227903 22.8205014.653069756L23.212706 50.939441C23.212706 51.0700549 23.3434409 51.2006689 23.4741758 51.2006689 23.6049107 51.2006689 23.7356456 51.0700549 23.7356456 50.939441L24.1278503.653069756 24.1278503.653069756C24.1278503.261227903 23.8663805 0 23.4741758 0zM19.8135989.783683708C19.4213942.783683708 19.1599245 1.04491161 19.1599245 1.43675346L19.5521291 50.1557573C19.5521291 50.2863712 19.682864 50.4169852 19.8135989 50.4169852 19.9443338 50.4169852 20.0750687 50.2863712 20.0750687 50.1557573L20.4672734 1.43675346 20.4672734 1.43675346C20.4672734 1.04491161 20.2058036.783683708 19.8135989.783683708zM16.153022 2.08982322C15.7608173 2.08982322 15.4993475 2.35105112 15.4993475 2.74289298L15.8915522 48.8496178C15.8915522 48.9802317 16.0222871 49.1108457 16.153022 49.1108457 16.2837569 49.1108457 16.4144918 48.9802317 16.4144918 48.8496178L16.8066964 2.74289298 16.8066964 2.74289298C16.8066964 2.35105112 16.5452266 2.08982322 16.153022 2.08982322zM12.4924451 4.17964644C12.1002404 4.17964644 11.8387706 4.44087434 11.8387706 4.8327162L12.2309753 46.8904085C12.2309753 47.0210225 12.3617102 47.1516364 12.4924451 47.1516364 12.6231799 47.1516364 12.7539148 47.0210225 12.7539148 46.8904085L13.1461195 4.8327162 13.1461195 4.8327162C13.2768544 4.44087434 12.8846497 4.17964644 12.4924451 4.17964644zM8.83186813 7.18376732C8.43966346 7.18376732 8.17819368 7.57560917 8.17819368 7.96745103L8.57039835 44.0169016C8.57039835 44.1475155 8.70113324 44.2781295 8.83186813 44.2781295 8.96260302 44.2781295 9.09333791 44.1475155 9.09333791 44.0169016L9.48554258 7.96745103 9.48554258 7.96745103C9.61627747 7.44499522 9.2240728 7.18376732 8.83186813 7.18376732zM5.3020261 11.7552556C4.90982143 11.7552556 4.64835165 12.1470975 4.64835165 12.5389393L5.04055632 39.5760272C5.04055632 39.7066412 5.17129121 39.8372551 5.3020261 39.8372551 5.43276099 39.8372551 5.56349588 39.7066412 5.56349588 39.5760272L5.95570055 12.5389393 5.95570055 12.5389393C5.95570055 12.1470975 5.69423077 11.7552556 5.3020261 11.7552556zM1.51071429 18.9390229C1.11850962 18.9390229.857039835 19.3308648.857039835 19.7227066L1.24924451 33.4371715C1.24924451 33.5677855 1.3799794 33.6983994 1.51071429 33.6983994 1.64144918 33.6983994 1.77218407 33.5677855 1.77218407 33.4371715L2.16438874 19.7227066C2.16438874 19.7227066 2.16438874 19.7227066 2.16438874 19.5920927 2.29512363 19.2002508 1.90291896 18.808409 1.51071429 18.9390229z" transform="translate(.305 .522)"/>
    </g>
  </g>
</svg>
