<svg xmlns="http://www.w3.org/2000/svg" height="auto" width="auto" viewBox="0 0 59 58"><path fill="#f63a52" d="M12.831 2.973c-1.442-.71-2.953-1.3-4.52-1.762l.75 54.317c1.032-.336 2.04-.728 3.017-1.173l.753-51.382zM4.556 56.597c.995-.152 1.973-.356 2.932-.607l.754-54.8C6.81.772 5.331.46 3.814.27l.742 56.327zM25.911 16.085l.68 23.292c1.399-3.355 2.172-7.034 2.172-10.892 0-4.445-1.025-8.652-2.852-12.4M21.756 9.827l.722 36.454c.98-1.215 1.862-2.511 2.634-3.878h-.014l.771-26.402c-1.1-2.239-2.487-4.313-4.113-6.174M21.692 9.755c-1.268-1.441-2.68-2.753-4.215-3.915l.737 44.714c.96-.778 1.868-1.616 2.719-2.51l.759-38.289zM17.408 5.787c-1.406-1.059-2.913-1.99-4.504-2.778l.74 50.572c1.043-.555 2.047-1.172 3.007-1.847l.757-45.947zM3.724.26C2.566.117 1.387.043.19.043v56.884c.941 0 1.871-.047 2.789-.135L3.724.26z" transform="translate(28.294)"/><path fill="#ECF0F4" d="M24.895.032c-.435.004-.784.356-.78.788l.498 55.237c0 .156.128.283.286.284.16.001.29-.126.292-.284L25.688.82V.806c-.004-.431-.36-.778-.793-.774M4.85 12.985c-.434.007-.78.363-.773.795l.498 29.759c.002.153.127.28.284.282.16.002.291-.124.294-.282l.497-29.76v-.026c-.007-.431-.365-.775-.8-.768M.75 20.802c-.434.02-.77.386-.75.818l.498 15.05c.008.147.126.267.276.274.16.008.295-.115.303-.274l.497-15.05v-.073c-.02-.432-.39-.765-.823-.745M8.861 7.913c-.434.005-.782.36-.776.79l.497 39.669c.002.155.129.282.285.284.16.001.291-.125.293-.284l.498-39.668v-.02c-.006-.432-.362-.777-.797-.771M16.879 2.331c-.434.005-.783.358-.779.79l.498 50.683c0 .156.128.283.285.284.16.002.292-.126.293-.284l.497-50.684v-.015c-.004-.431-.36-.778-.794-.774M20.887.854c-.435.004-.783.357-.78.788l.498 53.61c.001.156.129.283.286.284.16.002.29-.125.292-.284l.497-53.61v-.014c-.003-.431-.36-.778-.793-.774M12.87 4.602c-.434.004-.782.358-.778.79l.498 46.2c.001.155.128.282.286.284.16.001.29-.126.292-.285l.497-46.2v-.017c-.005-.431-.36-.777-.795-.772" transform="translate(0 .3)"/></svg>