<svg viewBox="0 0 535 235" xmlns="http://www.w3.org/2000/svg"><g><path d="M90.83 160.707a.596.596 0 0 1-.44-.02.53.53 0 0 1-.253-.734l13.653-26.228a.602.602 0 0 1 .774-.267.53.53 0 0 1 .253.735L91.164 160.42a.592.592 0 0 1-.334.287zM162.575 193.408a.59.59 0 0 1-.44-.02.53.53 0 0 1-.253-.734l13.652-26.228a.6.6 0 0 1 .774-.267.53.53 0 0 1 .253.734l-13.65 26.228a.596.596 0 0 1-.335.286zM92.26 172.173a.593.593 0 0 1-.44-.018.53.53 0 0 1-.254-.735l22.753-43.712a.602.602 0 0 1 .773-.266.53.53 0 0 1 .253.735l-22.753 43.71a.595.595 0 0 1-.334.286zM152.045 199.424a.595.595 0 0 1-.44-.02.532.532 0 0 1-.253-.734l22.752-43.712a.6.6 0 0 1 .775-.267.53.53 0 0 1 .252.736L152.38 199.14a.588.588 0 0 1-.335.284zM95.204 180.726a.592.592 0 0 1-.44-.018.532.532 0 0 1-.253-.736l28.82-55.367a.602.602 0 0 1 .775-.266.53.53 0 0 1 .253.734l-28.82 55.368a.594.594 0 0 1-.334.284zM143.033 202.527a.59.59 0 0 1-.44-.02.528.528 0 0 1-.252-.734l28.82-55.37a.602.602 0 0 1 .774-.265c.283.13.397.458.253.736l-28.82 55.368a.593.593 0 0 1-.334.285zM98.91 187.823a.593.593 0 0 1-.44-.02.528.528 0 0 1-.254-.734l33.368-64.11a.598.598 0 0 1 .773-.267c.285.13.398.457.253.735l-33.367 64.11a.597.597 0 0 1-.333.285zM103.37 193.462a.587.587 0 0 1-.44-.02.528.528 0 0 1-.253-.734l36.403-69.937a.6.6 0 0 1 .774-.266.53.53 0 0 1 .253.735l-36.402 69.936a.593.593 0 0 1-.335.286zM108.59 197.644a.593.593 0 0 1-.44-.02.53.53 0 0 1-.253-.734l37.92-72.852a.602.602 0 0 1 .774-.267.53.53 0 0 1 .254.736l-37.92 72.852a.593.593 0 0 1-.334.286zM127.284 204.362a.593.593 0 0 1-.44-.02.532.532 0 0 1-.253-.734l36.404-69.937a.6.6 0 0 1 .774-.266c.286.13.4.458.253.735l-36.4 69.937a.593.593 0 0 1-.336.285zM114.568 200.37a.593.593 0 0 1-.44-.02.53.53 0 0 1-.253-.734l37.92-72.852a.6.6 0 0 1 .775-.267.53.53 0 0 1 .253.735l-37.92 72.853a.596.596 0 0 1-.335.285zM120.547 203.095a.6.6 0 0 1-.44-.02.53.53 0 0 1-.252-.735l37.92-72.852a.603.603 0 0 1 .775-.267c.282.13.395.46.253.736l-37.92 72.853a.597.597 0 0 1-.336.285zM134.78 204.172a.59.59 0 0 1-.44-.02.528.528 0 0 1-.252-.734l33.366-64.11a.603.603 0 0 1 .776-.266.53.53 0 0 1 .253.736l-33.368 64.108a.593.593 0 0 1-.335.286zM82.288 180.628c7.215 20.954-4.826 44.1-26.906 51.703-22.077 7.603-45.824-3.22-53.04-24.175-7.214-20.952 4.835-44.102 26.913-51.704 22.08-7.602 45.82 3.226 53.033 24.178z"/><text font-family="Roboto-Light, Roboto" font-size="72" font-weight="300" transform="rotate(-19 482.31 120.64)"><tspan x="221" y="67">BASE TWO</tspan></text></g></svg>
