<?xml version="1.0" encoding="UTF-8"?>
<svg width="2747px" height="228px" viewBox="0 0 2747 228" version="1.1" xmlns="http://www.w3.org/2000/svg" xmlns:xlink="http://www.w3.org/1999/xlink">
    <!-- Generator: Sketch 51.2 (57519) - http://www.bohemiancoding.com/sketch -->
    <title>Artboard</title>
    <desc>Created with Sketch.</desc>
    <defs></defs>
    <g id="Artboard" stroke="none" stroke-width="1" fill="none" fill-rule="evenodd">
        <path d="M706.320312,3.71875 L714.230469,3.71875 L714.230469,152.253906 C714.230469,172.859478 708.615291,189.289978 697.384766,201.545898 C686.154241,213.801819 671.261812,219.929688 652.707031,219.929688 C632.785057,219.929688 617.550834,214.607475 607.003906,203.962891 C596.456979,193.318306 591.183594,178.084083 591.183594,158.259766 L599.09375,158.259766 C599.09375,175.642665 603.561479,188.948196 612.49707,198.176758 C621.432662,207.40532 634.835848,212.019531 652.707031,212.019531 C668.332109,212.019531 681.100536,206.794974 691.012695,196.345703 C700.924854,185.896432 706.027342,171.68759 706.320312,153.71875 L706.320312,3.71875 Z M925.045138,126.326172 C925.045138,144.783295 921.749273,161.11614 915.157443,175.325195 C908.565613,189.534251 899.166293,200.520469 886.959201,208.28418 C874.752108,216.04789 860.689749,219.929688 844.771701,219.929688 C820.748143,219.929688 801.314744,211.384851 786.470919,194.294922 C771.627095,177.204993 764.205294,154.158348 764.205294,125.154297 L764.205294,94.3925781 C764.205294,76.0331113 767.50116,59.7246807 774.09299,45.4667969 C780.68482,31.2089131 790.108553,20.198281 802.364474,12.4345703 C814.620395,4.67085962 828.65834,0.7890625 844.478732,0.7890625 C860.39678,0.7890625 874.483553,4.67085962 886.739474,12.4345703 C898.995395,20.198281 908.443542,31.2333269 915.084201,45.5400391 C921.724859,59.8467512 925.045138,76.1307681 925.045138,94.3925781 L925.045138,126.326172 Z M917.134982,94.0996094 C917.134982,68.3182305 910.592079,47.6397263 897.506076,32.0634766 C884.420073,16.4872268 866.744468,8.69921875 844.478732,8.69921875 C822.505966,8.69921875 804.976844,16.4383992 791.890841,31.9169922 C778.804838,47.3955852 772.261935,68.4647104 772.261935,95.125 L772.261935,126.326172 C772.261935,143.318444 775.216007,158.332943 781.12424,171.370117 C787.032472,184.407292 795.45524,194.441371 806.392794,201.472656 C817.330349,208.503941 830.12319,212.019531 844.771701,212.019531 C867.037437,212.019531 884.664214,204.255937 897.65256,188.728516 C910.640906,173.201094 917.134982,152.0099 917.134982,125.154297 L917.134982,94.0996094 Z M989.521917,217 L981.611761,217 L981.611761,3.71875 L989.521917,3.71875 L989.521917,217 Z M1209.5651,217 L1201.65495,217 L1063.95963,17.1953125 L1063.95963,217 L1055.90299,217 L1055.90299,3.71875 L1063.95963,3.71875 L1201.65495,203.083984 L1201.65495,3.71875 L1209.5651,3.71875 L1209.5651,217 Z M1494.81749,126.326172 C1494.81749,144.783295 1491.52162,161.11614 1484.92979,175.325195 C1478.33796,189.534251 1468.93864,200.520469 1456.73155,208.28418 C1444.52446,216.04789 1430.4621,219.929688 1414.54405,219.929688 C1390.52049,219.929688 1371.08709,211.384851 1356.24327,194.294922 C1341.39944,177.204993 1333.97764,154.158348 1333.97764,125.154297 L1333.97764,94.3925781 C1333.97764,76.0331113 1337.27351,59.7246807 1343.86534,45.4667969 C1350.45717,31.2089131 1359.8809,20.198281 1372.13682,12.4345703 C1384.39274,4.67085962 1398.43069,0.7890625 1414.25108,0.7890625 C1430.16913,0.7890625 1444.2559,4.67085962 1456.51182,12.4345703 C1468.76774,20.198281 1478.21589,31.2333269 1484.85655,45.5400391 C1491.49721,59.8467512 1494.81749,76.1307681 1494.81749,94.3925781 L1494.81749,126.326172 Z M1486.90733,94.0996094 C1486.90733,68.3182305 1480.36443,47.6397263 1467.27842,32.0634766 C1454.19242,16.4872268 1436.51682,8.69921875 1414.25108,8.69921875 C1392.27832,8.69921875 1374.74919,16.4383992 1361.66319,31.9169922 C1348.57719,47.3955852 1342.03428,68.4647104 1342.03428,95.125 L1342.03428,126.326172 C1342.03428,143.318444 1344.98836,158.332943 1350.89659,171.370117 C1356.80482,184.407292 1365.22759,194.441371 1376.16514,201.472656 C1387.1027,208.503941 1399.89554,212.019531 1414.54405,212.019531 C1436.80979,212.019531 1454.43656,204.255937 1467.42491,188.728516 C1480.41326,173.201094 1486.90733,152.0099 1486.90733,125.154297 L1486.90733,94.0996094 Z M1689.07942,3.71875 L1689.07942,148.152344 C1689.07942,170.71105 1682.53652,188.313413 1669.45052,200.959961 C1656.36451,213.606509 1638.64008,219.929688 1616.27669,219.929688 C1593.9133,219.929688 1576.18886,213.606509 1563.10286,200.959961 C1550.01686,188.313413 1543.42513,170.906361 1543.32747,148.738281 L1543.32747,3.71875 L1551.23763,3.71875 L1551.23763,147.859375 C1551.23763,167.586036 1557.17018,183.21088 1569.03548,194.734375 C1580.90077,206.25787 1596.64768,212.019531 1616.27669,212.019531 C1635.90569,212.019531 1651.62819,206.25787 1663.44466,194.734375 C1675.26112,183.21088 1681.16927,167.537208 1681.16927,147.712891 L1681.16927,3.71875 L1689.07942,3.71875 Z M1828.5562,125.740234 L1754.58159,125.740234 L1754.58159,217 L1746.67144,217 L1746.67144,3.71875 L1814.64019,3.71875 C1836.02701,3.71875 1853.04344,9.23627295 1865.68999,20.2714844 C1878.33654,31.3066958 1884.65972,46.2967803 1884.65972,65.2421875 C1884.65972,79.7930415 1880.14316,92.5126409 1871.10991,103.401367 C1862.07666,114.290094 1850.57776,121.052721 1836.61284,123.689453 L1893.59526,214.949219 L1893.59526,217 L1885.24565,217 L1828.5562,125.740234 Z M1754.58159,117.830078 L1821.81792,117.830078 C1838.22425,117.830078 1851.48096,112.849659 1861.58843,102.888672 C1871.6959,92.9276846 1876.74956,80.3789819 1876.74956,65.2421875 C1876.74956,48.640542 1871.1588,35.5547354 1859.9771,25.984375 C1848.7954,16.4140146 1833.48794,11.6289062 1814.05425,11.6289062 L1754.58159,11.6289062 L1754.58159,117.830078 Z M2155.41015,11.6289062 L2077.77343,11.6289062 L2077.77343,217 L2069.86327,217 L2069.86327,11.6289062 L1992.22656,11.6289062 L1992.22656,3.71875 L2155.41015,3.71875 L2155.41015,11.6289062 Z M2309.53537,111.238281 L2202.60177,111.238281 L2202.60177,209.089844 L2324.47677,209.089844 L2324.47677,217 L2194.69162,217 L2194.69162,3.71875 L2324.47677,3.71875 L2324.47677,11.6289062 L2202.60177,11.6289062 L2202.60177,103.328125 L2309.53537,103.328125 L2309.53537,111.238281 Z M2479.77386,153.279297 L2375.3305,153.279297 L2351.60003,217 L2342.95746,217 L2422.79144,3.71875 L2432.45941,3.71875 L2512.29339,217 L2503.65082,217 L2479.77386,153.279297 Z M2378.26019,145.369141 L2476.84418,145.369141 L2427.62543,13.2402344 L2378.26019,145.369141 Z M2559.77799,3.71875 L2647.52213,205.427734 L2735.55924,3.71875 L2747.1315,3.71875 L2747.1315,217 L2739.22134,217 L2739.22134,15.4375 L2650.74478,217 L2644.44595,217 L2556.40884,16.4628906 L2556.40884,217 L2548.49869,217 L2548.49869,3.71875 L2559.77799,3.71875 Z" id="JOIN-OUR-TEAM" fill="#000000"></path>
        <g id="Group-2" transform="translate(0.000000, 1.000000)" fill="#000000" fill-rule="nonzero">
            <g id="Group" transform="translate(256.000000, 0.000000)">
                <path d="M8.292,67.532 C7.898,67.532 7.504,67.38 7.202,67.08 C6.6,66.476 6.6,65.498 7.202,64.9 L64.31,7.794 C64.912,7.192 65.886,7.192 66.491,7.794 C67.093,8.398 67.093,9.373 66.491,9.975 L9.381,67.08 C9.085,67.38 8.685,67.532 8.292,67.532 Z" id="Shape"></path>
                <path d="M160.57,219.811 C160.173,219.811 159.779,219.661 159.479,219.359 C158.875,218.757 158.875,217.78 159.479,217.178 L216.585,160.072 C217.187,159.468 218.167,159.468 218.765,160.072 C219.367,160.675 219.367,161.648 218.765,162.253 L161.66,219.359 C161.357,219.66 160.963,219.811 160.57,219.811 Z" id="Shape"></path>
                <path d="M1.949,99.255 C1.555,99.255 1.161,99.106 0.859,98.804 C0.257,98.202 0.257,97.228 0.859,96.623 L96.033,1.451 C96.636,0.849 97.609,0.849 98.214,1.451 C98.817,2.053 98.817,3.03 98.214,3.632 L3.039,98.804 C2.737,99.105 2.342,99.255 1.949,99.255 Z" id="Shape"></path>
                <path d="M128.843,226.153 C128.452,226.153 128.055,226.003 127.753,225.701 C127.154,225.099 127.154,224.122 127.753,223.52 L222.928,128.345 C223.53,127.741 224.507,127.741 225.109,128.345 C225.711,128.947 225.711,129.921 225.109,130.526 L129.933,225.701 C129.634,226.003 129.241,226.153 128.843,226.153 Z" id="Shape"></path>
                <path d="M1.949,124.633 C1.555,124.633 1.161,124.486 0.859,124.184 C0.257,123.582 0.257,122.605 0.859,122 L121.411,1.451 C122.013,0.849 122.99,0.849 123.592,1.451 C124.196,2.053 124.196,3.03 123.592,3.632 L3.039,124.184 C2.737,124.485 2.342,124.633 1.949,124.633 Z" id="Shape"></path>
                <path d="M103.466,226.153 C103.071,226.153 102.675,226.003 102.376,225.701 C101.771,225.099 101.771,224.122 102.376,223.52 L222.928,102.965 C223.53,102.363 224.507,102.363 225.109,102.965 C225.711,103.567 225.711,104.543 225.109,105.149 L104.556,225.701 C104.254,226.003 103.86,226.153 103.466,226.153 Z" id="Shape"></path>
                <path d="M5.127,146.843 C4.727,146.843 4.333,146.691 4.034,146.391 C3.429,145.789 3.429,144.812 4.034,144.21 L143.618,4.624 C144.22,4.02 145.197,4.02 145.795,4.624 C146.4,5.226 146.4,6.2 145.795,6.805 L6.215,146.391 C5.913,146.69 5.519,146.843 5.127,146.843 Z" id="Shape"></path>
                <path d="M11.467,165.877 C11.07,165.877 10.676,165.728 10.377,165.425 C9.772,164.823 9.772,163.847 10.377,163.245 L162.652,10.97 C163.254,10.366 164.231,10.366 164.833,10.97 C165.435,11.572 165.435,12.546 164.833,13.151 L12.558,165.425 C12.255,165.728 11.861,165.877 11.467,165.877 Z" id="Shape"></path>
                <path d="M20.986,181.738 C20.59,181.738 20.195,181.589 19.893,181.286 C19.291,180.684 19.291,179.708 19.893,179.106 L178.513,20.485 C179.115,19.883 180.092,19.883 180.694,20.485 C181.296,21.089 181.296,22.064 180.694,22.666 L22.077,181.286 C21.774,181.589 21.38,181.738 20.986,181.738 Z" id="Shape"></path>
                <path d="M62.225,216.635 C61.831,216.635 61.437,216.485 61.135,216.183 C60.536,215.581 60.536,214.604 61.135,214.002 L213.41,61.728 C214.014,61.125 214.988,61.125 215.59,61.728 C216.198,62.33 216.198,63.306 215.59,63.908 L63.315,216.183 C63.016,216.484 62.619,216.635 62.225,216.635 Z" id="Shape"></path>
                <path d="M33.671,194.43 C33.28,194.43 32.88,194.281 32.581,193.979 C31.979,193.377 31.979,192.403 32.581,191.798 L191.205,33.177 C191.81,32.573 192.784,32.573 193.386,33.177 C193.99,33.779 193.99,34.753 193.386,35.358 L34.762,193.979 C34.459,194.28 34.065,194.43 33.671,194.43 Z" id="Shape"></path>
                <path d="M46.363,207.119 C45.969,207.119 45.578,206.966 45.273,206.667 C44.671,206.063 44.671,205.088 45.273,204.486 L203.894,45.865 C204.496,45.263 205.469,45.263 206.078,45.865 C206.676,46.467 206.676,47.444 206.078,48.046 L47.454,206.667 C47.154,206.966 46.757,207.119 46.363,207.119 Z" id="Shape"></path>
                <path d="M81.262,222.978 C80.865,222.978 80.471,222.828 80.172,222.526 C79.567,221.924 79.567,220.95 80.172,220.345 L219.752,80.759 C220.36,80.157 221.331,80.157 221.936,80.759 C222.541,81.361 222.541,82.337 221.936,82.942 L82.352,222.525 C82.05,222.827 81.656,222.978 81.262,222.978 Z" id="Shape"></path>
            </g>
            <path d="M225.135,113.577 C225.135,175.753 174.754,226.156 112.575,226.156 C50.403,226.156 0,175.753 0,113.577 C0,51.408 50.403,1.002 112.576,1.002 C174.754,1.002 225.135,51.408 225.135,113.577 Z" id="Shape"></path>
        </g>
    </g>
</svg>