<svg xmlns="http://www.w3.org/2000/svg" width="1769" height="201" viewBox="0 0 1769 201">
  <g fill="#FFF">
    <path d="M128.496,177.972 C141.636,162.534 148.206,141.612 148.206,115.206 L148.206,85.932 C148.206,59.616 141.594,38.712 128.364,23.232 C115.14,7.74 97.002,0 73.968,0 C50.838,0 32.73,7.74 19.638,23.232 C6.54,38.712 0,59.616 0,85.932 L0,115.206 C0,141.612 6.588,162.534 19.77,177.972 C32.958,193.416 51.612,200.736 74.742,200.736 C97.77,200.736 115.362,193.416 128.502,177.972 L128.496,177.972 Z M123.504,28.464 C135.114,42.606 140.916,61.674 140.916,85.662 L140.916,115.206 C140.916,139.464 135.156,158.64 123.636,172.74 C112.116,186.84 96.588,194.124 75.174,194.124 C53.754,194.124 36.33,186.816 24.768,172.674 C13.2,158.532 7.428,139.374 7.428,115.206 L7.428,85.662 C7.428,61.674 13.182,42.612 24.702,28.464 C36.222,14.322 56.142,7.752 77.466,7.752 C98.88,7.752 111.894,14.322 123.504,28.464 L123.504,28.464 Z" transform="translate(1619.8 .002)"/>
    <polygon points="48.504 149.52 57.012 181.2 57.816 181.2 66.324 149.52 113.34 0 118.866 0 167.016 149.52 175.386 181.2 176.196 181.2 184.968 149.52 226.68 0 234.972 0 180.516 195.168 172.284 195.168 123.558 32.166 117.078 12.696 116.268 12.696 110.058 32.16 60.924 195.162 52.692 195.162 0 0 7.74 0" transform="translate(1371.12 2.752)"/>
    <polygon points="148.842 8.016 79.68 8.016 79.68 195.006 71.388 195.006 71.388 8.016 0 8.016 0 0 148.842 0" transform="translate(1208.48 2.986)"/>
    <polygon points="102.282 95.592 8.292 95.592 8.292 186.99 116.1 186.99 116.1 194.592 0 194.592 0 0 116.1 0 116.1 7.602 8.298 7.602 8.298 87.996 102.288 87.996 102.288 95.592" transform="translate(1011.74 3.402)"/>
    <path d="M131.832,152.262 C131.832,141.078 127.212,132.054 117.996,125.202 C108.774,118.356 93.042,111.306 70.818,104.058 C48.684,97.344 32.376,90.228 21.888,82.71 C11.406,75.192 6.168,64.05 6.168,49.278 C6.168,34.596 12.306,22.71 24.588,13.626 C36.87,4.542 52.464,0 71.364,0 C90.978,0 107.04,4.68 118.668,15.036 C129.942,25.074 135.468,39.834 135.468,58.074 L129.21,58.074 C131.976,47.274 124.14,31.194 113.34,21.618 C102.54,12.036 88.506,6.426 71.322,6.426 C53.592,6.426 39.552,11.394 29.112,19.668 C18.672,27.948 13.452,37.728 13.452,49.008 C13.452,60.288 17.664,69.438 26.076,76.464 C34.488,83.496 50.172,90.366 73.116,97.074 C95.436,104.058 112.032,111.312 122.922,118.83 C133.806,126.348 139.254,137.406 139.254,151.992 C139.254,166.854 132.822,178.758 119.958,187.71 C107.082,196.662 91.206,200.286 72.306,200.286 C52.602,200.286 35.64,196.548 21.426,187.374 C7.2,178.194 -0.438,163.77 0.012,144.072 L0.012,143.322 L8.304,143.322 C8.304,161.046 13.674,173.862 26.814,181.866 C39.954,189.882 55.044,193.668 72.234,193.668 C89.418,193.668 103.704,189.924 114.954,181.998 C126.198,174.078 131.826,164.172 131.826,152.262 L131.832,152.262 Z" transform="translate(837.58 .454)"/>
    <path d="M29.964,137.49 L125.94,137.49 L147.942,195.168 L155.904,195.168 L82.338,0 L73.428,0 L0,195.168 L7.962,195.168 L29.964,137.49 Z M123.24,129.24 L32.664,129.24 L73.836,20.082 L77.478,8.664 L78.288,8.664 L82.068,20.082 L123.234,129.24 L123.24,129.24 Z" transform="translate(666.66 2.752)"/>
    <path d="M52.524,0 C72.858,0 89.244,3.9 100.5,12.228 C111.744,20.556 118.86,33 118.86,49.5 C118.86,60.498 114.69,70.056 109.332,77.754 C103.98,85.452 96.396,90.594 86.592,93.192 L86.454,94.002 C98.064,95.52 107.826,100.824 115.746,109.914 C123.666,118.998 127.626,129.492 127.626,141.402 C127.626,158.496 122.07,171.744 110.952,181.146 C99.84,190.542 85.152,195.246 66.888,195.246 L0,195.246 L0,0 L52.524,0 Z M66.342,98.922 L8.292,98.922 L8.292,186.918 L66.342,186.918 C82.896,186.918 96.492,183.846 106.032,175.698 C115.566,167.55 120.342,156.186 120.342,141.594 C120.342,128.706 115.524,118.32 105.9,110.442 C96.264,102.564 82.722,98.922 66.342,98.922 L66.342,98.922 Z M52.524,8.178 L8.292,8.178 L8.292,90.672 L58.05,90.672 C75.06,90.402 88.236,87.48 96.918,80.502 C105.606,73.518 110.574,63.09 110.574,49.218 C110.574,35.25 105.156,24.714 95.574,17.598 C85.986,10.476 71.238,8.178 52.524,8.178 Z" transform="translate(522.44 2.98)"/>
    <g transform="translate(226)">
      <path d="M1.362,52.9261086 C0.809927567,52.9329771 0.309246248,52.6030797 0.0978323279,52.0930436 C-0.113581592,51.5830075 0.0068858699,50.995639 0.402,50.61 L50.88,0.402 C51.4139334,-0.130476868 52.2780666,-0.130476868 52.812,0.402 C53.0684976,0.655600645 53.2128425,1.00130026 53.2128425,1.362 C53.2128425,1.72269974 53.0684976,2.06839935 52.812,2.322 L2.328,52.536 C2.07224647,52.7879599 1.72701081,52.9282119 1.368,52.9261086 L1.362,52.9261086 Z" transform="translate(6.28 5.576)"/>
      <path d="M1.362,52.932002 C0.812825793,52.9329436 0.317307438,52.6025541 0.107019864,52.0952353 C-0.10326771,51.5879165 0.0132027167,51.0038529 0.402,50.616 L50.88,0.396 C51.1356583,0.138784063 51.4833415,-0.00585001172 51.846,-0.00585001172 C52.2086585,-0.00585001172 52.5563417,0.138784063 52.812,0.396 C53.0684976,0.649600645 53.2128425,0.99530026 53.2128425,1.356 C53.2128425,1.71669974 53.0684976,2.06239935 52.812,2.316 L2.328,52.536 C2.07248745,52.7890485 1.72761053,52.9313102 1.368,52.932002 L1.362,52.932002 Z" transform="translate(140.9 139.482)"/>
      <path d="M1.362,86.4001086 C0.809927567,86.4069771 0.309246248,86.0770797 0.0978323279,85.5670436 C-0.113581592,85.0570075 0.0068858699,84.469639 0.402,84.084 L84.534,0.396 C85.0672335,-0.132500096 85.9267665,-0.132500096 86.46,0.396 C86.7164976,0.649600645 86.8608425,0.99530026 86.8608425,1.356 C86.8608425,1.71669974 86.7164976,2.06239935 86.46,2.316 L2.328,86.004 C2.07248745,86.2570485 1.72761053,86.4001086 1.368,86.4001086 L1.362,86.4001086 Z" transform="translate(.66)"/>
      <path d="M1.362,86.4060086 C0.812825793,86.4069436 0.317307438,86.0765541 0.107019864,85.5692353 C-0.10326771,85.0619165 0.0132027167,84.4778529 0.402,84.09 L84.528,0.396 C85.0605194,-0.128547808 85.9154806,-0.128547808 86.448,0.396 C86.7044976,0.649600645 86.8488425,0.99530026 86.8488425,1.356 C86.8488425,1.71669974 86.7044976,2.06239935 86.448,2.316 L2.328,86.01 C2.07360054,86.2647208 1.72800019,86.4072809 1.368,86.4060086 L1.362,86.4060086 Z" transform="translate(112.86 111.584)"/>
      <path d="M1.362,108.720002 C0.812825793,108.720002 0.317307438,108.390554 0.107019864,107.883235 C-0.10326771,107.375917 0.0132027167,106.791853 0.402,106.404 L106.962,0.396 C107.495933,-0.136476868 108.360067,-0.136476868 108.894,0.396 C109.150498,0.649600645 109.294842,0.99530026 109.294842,1.356 C109.294842,1.71669974 109.150498,2.06239935 108.894,2.316 L2.328,108.324 C2.07285422,108.577601 1.7277397,108.720002 1.368,108.720002 L1.362,108.720002 Z" transform="translate(.66)"/>
      <path d="M1.362,108.72 C0.815454495,108.718531 0.323216635,108.389088 0.113471566,107.884388 C-0.0962735023,107.379689 0.0174801095,106.798405 0.402,106.41 L106.968,0.396 C107.501933,-0.136476868 108.366067,-0.136476868 108.9,0.396 C109.155012,0.650393309 109.298328,0.995796023 109.298328,1.356 C109.298328,1.71620398 109.155012,2.06160669 108.9,2.316 L2.322,108.324 C2.06783431,108.579801 1.72259912,108.724368 1.362,108.726 L1.362,108.72 Z" transform="translate(90.4 89.266)"/>
      <path d="M1.368,125.460013 C1.00618289,125.461551 0.658618215,125.319071 0.402,125.064 C0.145502407,124.810399 0.00115752117,124.4647 0.00115752117,124.104 C0.00115752117,123.7433 0.145502407,123.397601 0.402,123.144 L123.792,0.396 C124.332564,-0.0643309561 125.136072,-0.032177509 125.638125,0.469875096 C126.140178,0.971927701 126.172331,1.77543636 125.712,2.316 L2.334,125.064 C2.07812483,125.316502 1.73348207,125.458667 1.374,125.460013 L1.368,125.460013 Z" transform="translate(3.72 3.02)"/>
      <path d="M1.362,136.62 C1.0011326,136.62 0.655409069,136.474923 0.402,136.218 C0.143995701,135.965208 -0.00139593877,135.619206 -0.00139593877,135.258 C-0.00139593877,134.896794 0.143995701,134.550792 0.402,134.298 L135.012,0.402 C135.545234,-0.126500096 136.404766,-0.126500096 136.938,0.402 C137.194498,0.655600645 137.338842,1.00130026 137.338842,1.362 C137.338842,1.72269974 137.194498,2.06839935 136.938,2.322 L2.328,136.218 C2.07383431,136.473801 1.72859912,136.618368 1.368,136.62 L1.362,136.62 Z" transform="translate(9.06 8.37)"/>
      <path d="M1.368,142.2 C0.820551798,142.197564 0.32776781,141.867586 0.117022849,141.362322 C-0.0937221122,140.857058 0.0185358749,140.274718 0.402,139.884 L140.622,0.396 C141.154519,-0.128547808 142.009481,-0.128547808 142.542,0.396 C142.798498,0.649600645 142.942842,0.99530026 142.942842,1.356 C142.942842,1.71669974 142.798498,2.06239935 142.542,2.316 L2.334,141.798 C2.07885422,142.051601 1.7337397,142.19396 1.374,142.194 L1.368,142.2 Z" transform="translate(17.5 16.738)"/>
      <path d="M1.362,136.62 C0.815641248,136.615177 0.325046321,136.284321 0.115828989,135.779584 C-0.0933883441,135.274847 0.019271993,134.693936 0.402,134.304 L135,0.396 C135.533933,-0.136476868 136.398067,-0.136476868 136.932,0.396 C137.472,0.93 137.472,1.788 136.932,2.316 L2.322,136.218 C2.06685422,136.471601 1.7217397,136.61396 1.362,136.614 L1.362,136.62 Z" transform="translate(53.94 53.004)"/>
      <path d="M1.362,142.200109 C0.809927567,142.206977 0.309246248,141.87708 0.0978323279,141.367044 C-0.113581592,140.857008 0.0068858699,140.269639 0.402,139.884 L140.622,0.396 C141.155933,-0.136476868 142.020067,-0.136476868 142.554,0.396 C142.810498,0.649600645 142.954842,0.99530026 142.954842,1.356 C142.954842,1.71669974 142.810498,2.06239935 142.554,2.316 L2.328,141.798 C2.07346246,142.053248 1.72846611,142.197715 1.368,142.200109 L1.362,142.200109 Z" transform="translate(28.7 27.896)"/>
      <path d="M1.362,142.200109 C0.809927567,142.206977 0.309246248,141.87708 0.0978323279,141.367044 C-0.113581592,140.857008 0.0068858699,140.269639 0.402,139.884 L140.622,0.396 C140.964975,0.0508813942 141.466015,-0.0850463747 141.936384,0.0394193731 C142.406753,0.163885121 142.774991,0.529835075 142.902384,0.999419418 C143.029778,1.46900376 142.896975,1.97088145 142.554,2.316 L2.328,141.798 C2.07346246,142.053248 1.72846611,142.197715 1.368,142.200109 L1.362,142.200109 Z" transform="translate(39.92 39.054)"/>
      <path d="M1.362,125.460002 C0.812825793,125.460002 0.317307438,125.130554 0.107019864,124.623235 C-0.10326771,124.115917 0.0132027167,123.531853 0.402,123.144 L123.792,0.396 C124.326563,-0.129260546 125.183437,-0.129260546 125.718,0.396 C126.258,0.924 126.258,1.782 125.718,2.316 L2.328,125.058 C2.07383431,125.313801 1.72859912,125.458368 1.368,125.460002 L1.362,125.460002 Z" transform="translate(70.76 69.74)"/>
    </g>
    <path d="M199.02,98.994 C199.02,153.666 154.482,197.994 99.516,197.994 C44.556,197.988 0,153.66 0,98.988 C0,44.316 44.556,0 99.516,0 C154.482,0 199.02,44.322 199.02,98.994 Z" transform="translate(0 .006)"/>
  </g>
</svg>
