<svg id="Layer_1" data-name="Layer 1" xmlns="http://www.w3.org/2000/svg" viewBox="0 0 367.52 123"><defs><style>.cls-1{fill:#fff}.cls-2{fill:none}</style></defs><g id="Group"><g id="Shape"><path id="path3_fill" data-name="path3 fill" class="cls-1" d="M174.3 82.79V36.42h6.14v40.87h22.78v5.45H174.3z"/></g><g id="Shape-2" data-name="Shape"><path id="path4_fill" data-name="path4 fill" class="cls-1" d="M238.33 72.73l-5.86-.73a12.17 12.17 0 0 1-3.47 5.34 8.88 8.88 0 0 1-5.36 1.66 9.27 9.27 0 0 1-7-2.94c-1.86-2-2.88-4.8-3.11-8.48h25v-1.54c0-5.55-1.44-9.83-4.28-12.91a14.4 14.4 0 0 0-11-4.57A14.65 14.65 0 0 0 212 53.2c-2.93 3.12-4.37 7.5-4.37 13.14q0 8.18 4.32 12.72c2.88 3 6.79 4.52 11.67 4.52a15.38 15.38 0 0 0 9.57-2.84 14.37 14.37 0 0 0 5.14-8.01zm-5.81-9.93h-18.69a11.43 11.43 0 0 1 1.31-4.86 9.35 9.35 0 0 1 1.66-2.18 9 9 0 0 1 6.56-2.61 8.69 8.69 0 0 1 7 3.31 11.23 11.23 0 0 1 2.16 6.34z"/></g><g id="Shape-3" data-name="Shape"><path id="path5_fill" data-name="path5 fill" class="cls-1" d="M245.7 82.78v-33.6h5.11v4.75a12 12 0 0 1 10.65-5.55 14.69 14.69 0 0 1 5.54 1.08 8.49 8.49 0 0 1 3.81 2.84 10.69 10.69 0 0 1 1.77 4.19 30.31 30.31 0 0 1 .33 5.55v20.65h-5.67V62.28a16.19 16.19 0 0 0-.65-5.22 5.43 5.43 0 0 0-2.37-2.75 7.35 7.35 0 0 0-4-1 9.27 9.27 0 0 0-6.22 2.3c-1.77 1.54-2.65 4.47-2.65 8.76v18.37h-5.65z"/></g><g id="Shape-4" data-name="Shape"><path id="path6_fill" data-name="path6 fill" class="cls-1" d="M279.3 72.78l5.63-.89a8 8 0 0 0 2.65 5.17 9.09 9.09 0 0 0 6 1.82c2.6 0 4.56-.51 5.81-1.58a4.84 4.84 0 0 0 1.91-3.73 3.43 3.43 0 0 0-1.67-3 22.9 22.9 0 0 0-5.81-1.91 50.29 50.29 0 0 1-8.65-2.75 8.36 8.36 0 0 1-4.93-7.74 8.44 8.44 0 0 1 1-4.15 9.61 9.61 0 0 1 2.79-3.17 12 12 0 0 1 3.63-1.68 16.8 16.8 0 0 1 4.93-.7 19.64 19.64 0 0 1 6.93 1.12 9.4 9.4 0 0 1 4.48 3.05 11.9 11.9 0 0 1 2 5.22l-5.53.75a6.05 6.05 0 0 0-2.19-4.05 8 8 0 0 0-5.11-1.44c-2.6 0-4.46.42-5.58 1.3a3.79 3.79 0 0 0-1.67 3 3.18 3.18 0 0 0 .7 2 5.37 5.37 0 0 0 2.12 1.58c.56.23 2.23.7 5 1.44a66.88 66.88 0 0 1 8.42 2.66 8 8 0 0 1 5.07 7.83 9.47 9.47 0 0 1-1.67 5.36 10.49 10.49 0 0 1-4.79 3.87 17.87 17.87 0 0 1-7.07 1.4c-4.37 0-7.67-.89-10-2.7s-3.75-4.54-4.4-8.08z"/></g></g><path class="cls-1" d="M43.48 105c-12-12-18-26.54-18-43.51S31.45 30 43.48 18A58.67 58.67 0 0 1 74.2 1.21 65.66 65.66 0 0 0 61.47 0c-17 0-31.5 6-43.4 18S0 44.44 0 61.5A59.26 59.26 0 0 0 18.08 105a59.21 59.21 0 0 0 43.4 18 65.16 65.16 0 0 0 12.73-1.22Q56.82 118.3 43.48 105z"/><path class="cls-1" d="M66.83 64.81h14.25l-7.19-19.63-7.06 19.63z"/><path class="cls-1" d="M141 18C128.94 6 114.5 0 97.45 0S66 6 54.07 18 36 44.44 36 61.5A59.28 59.28 0 0 0 54.07 105a59.17 59.17 0 0 0 43.38 18 59.31 59.31 0 0 0 43.48-18 59.23 59.23 0 0 0 18-43.51C158.95 44.44 153 30 141 18zM89.07 85.75l-4.57-12H63.55l-4.34 12H48l20.4-52.93h11.16l21 52.93zm53-3.33c-3.65 2.8-8.31 4.2-13.89 4.2a22.31 22.31 0 0 1-17.12-7.18c-4.48-4.8-6.69-11.38-6.69-19.68 0-8.81 2.26-15.62 6.74-20.52s10.43-7.32 17.77-7.32c6.41 0 11.63 1.91 15.6 5.74 2.4 2.29 4.15 5.5 5.35 9.75l-10.47 2.52a10.84 10.84 0 0 0-11-8.86 11.86 11.86 0 0 0-9.46 4.24c-2.4 2.8-3.65 7.37-3.65 13.67 0 6.67 1.2 11.47 3.55 14.27a11.56 11.56 0 0 0 9.28 4.24 10.45 10.45 0 0 0 7.24-2.71c2-1.77 3.46-4.62 4.38-8.49l10.24 3.26c-1.56 5.79-4.19 10.08-7.84 12.88z"/><path class="cls-2" d="M92.86 1.17v1.71h209.7q1.49 0 2.95.07c.58 0 1.15.08 1.72.12l1.17.08a54.42 54.42 0 0 1 33.94 15.79c.24.23.48.45.71.68q15.75 15.83 16.75 37.67.07 1.46.07 2.94v.92q0 1.48-.07 2.93a55.08 55.08 0 0 1-16.8 37.58l-.67.64a54.74 54.74 0 0 1-36.88 16.12q-1.45.07-2.94.07H92.86V123h274.66V1.17z"/><path class="cls-2" d="M305.31 114.73c.6 0 1.19-.08 1.79-.12l.91-.06c12.48-1.14 23.23-6.29 32.43-15.5a51.62 51.62 0 0 0 15.73-37.9v-.92q0-1.39-.06-2.76c0-.84-.1-1.68-.17-2.51v-.19A51.48 51.48 0 0 0 341.13 23c-.23-.24-.46-.49-.7-.73a51.12 51.12 0 0 0-35.11-15.64q-1.37-.06-2.76-.06H92.86v108.22h209.7q1.38 0 2.75-.06z"/><path class="cls-1" d="M341.13 23c-.23-.24-.46-.49-.7-.74a51 51 0 0 0-35.11-15.63 51.12 51.12 0 0 1 35.12 15.59c.24.24.46.49.69.78zM342.37 102.3a54.84 54.84 0 0 1-36.88 16.12 54.74 54.74 0 0 0 36.88-16.12zM359.79 57.28q-1-21.84-16.75-37.67c-.23-.23-.48-.45-.71-.68.24.23.48.45.71.69 10.51 10.6 16.09 23.12 16.75 37.66z"/><path class="cls-1" d="M305.49 118.41a54.84 54.84 0 0 0 36.88-16.12l.67-.64a55.08 55.08 0 0 0 16.75-37.58q.07-1.45.07-2.93v-.92q0-1.48-.07-2.94c-.66-14.54-6.24-27.06-16.75-37.66-.23-.24-.48-.45-.71-.69a54.42 54.42 0 0 0-33.94-15.79l-1.17-.08c-.57 0-1.14-.09-1.72-.12q-1.46-.07-2.95-.07H92.86v3.7h209.7q1.4 0 2.76.06a51 51 0 0 1 35.12 15.59c.24.24.46.49.7.74a51.48 51.48 0 0 1 14.79 31.81v.19c.07.83.13 1.66.17 2.51s.06 1.83.06 2.76v.92A51.62 51.62 0 0 1 340.44 99c-9.2 9.21-20 14.36-32.43 15.5l-.91.06c-.59 0-1.19.09-1.79.12q-1.36.06-2.75.06H92.86v3.69h209.7q1.44.05 2.93-.02z"/></svg>