<svg width="362" height="198" xmlns="http://www.w3.org/2000/svg" xmlns:xlink="http://www.w3.org/1999/xlink"><use xlink:href="#path0_fill" transform="scale(2)" fill="#FFF"/><use xlink:href="#path1_fill" transform="matrix(2 0 0 2 55.2 101.04)" fill="#FFF"/><use xlink:href="#path2_fill" transform="matrix(2 0 0 2 81.4 99.5)" fill="#FFF"/><use xlink:href="#path3_fill" transform="matrix(2 0 0 2 115 101.04)" fill="#FFF"/><use xlink:href="#path4_fill" transform="matrix(2 0 0 2 159.6 101.04)" fill="#FFF"/><use xlink:href="#path5_fill" transform="matrix(2 0 0 2 184.2 101.04)" fill="#FFF"/><use xlink:href="#path6_fill" transform="matrix(2 0 0 2 61.4 24.5)" fill="#FFF"/><use xlink:href="#path7_fill" transform="matrix(2 0 0 2 95.2 24.5)" fill="#FFF"/><use xlink:href="#path8_fill" transform="matrix(2 0 0 2 139.6 24.5)" fill="#FFF"/><use xlink:href="#path9_fill" transform="matrix(2 0 0 2 164.2 24.5)" fill="#FFF"/><use xlink:href="#path10_fill" transform="matrix(2 0 0 2 194.8 24.5)" fill="#FFF"/><use xlink:href="#path11_fill" transform="matrix(2 0 0 2 210.2 24.5)" fill="#FFF"/><use xlink:href="#path12_fill" transform="matrix(2 0 0 2 231.6 24.5)" fill="#FFF"/><use xlink:href="#path13_fill" transform="matrix(2 0 0 2 267 24.5)" fill="#FFF"/><use xlink:href="#path14_fill" transform="matrix(2 0 0 2 59.8 62.76)" fill="#FFF"/><use xlink:href="#path15_fill" transform="matrix(2 0 0 2 82.8 62.76)" fill="#FFF"/><use xlink:href="#path16_fill" transform="matrix(2 0 0 2 105.8 62.76)" fill="#FFF"/><use xlink:href="#path17_fill" transform="matrix(2 0 0 2 132 61.24)" fill="#FFF"/><use xlink:href="#path18_fill" transform="matrix(2 0 0 2 158 62.76)" fill="#FFF"/><use xlink:href="#path19_fill" transform="matrix(2 0 0 2 179.6 62.76)" fill="#FFF"/><use xlink:href="#path20_fill" transform="matrix(2 0 0 2 211.8 62.76)" fill="#FFF"/><use xlink:href="#path21_fill" transform="matrix(2 0 0 2 225.6 61.24)" fill="#FFF"/><use xlink:href="#path22_fill" transform="matrix(2 0 0 2 49 181.44)" fill="#FFF"/><use xlink:href="#path23_fill" transform="matrix(2 0 0 2 216.4 101.78)" fill="#FFF"/><use xlink:href="#path24_fill" transform="matrix(2 0 0 2 219.6 101.7)" fill="#FFF"/><use xlink:href="#path25_fill" transform="matrix(2 0 0 2 352.4 179.8)" fill="#FFF"/><use xlink:href="#path26_fill" transform="matrix(2 0 0 2 355.4 179.7)" fill="#FFF"/><defs><path id="path0_fill" d="M10.646 0L0 78.84h81.624l1.143-8.64h-4.07l-.61 4.62H4.614l9.56-70.8h73.279l-.61 4.62h4.068L92.054 0H10.646z"/><path id="path1_fill" fill-rule="evenodd" d="M5.292 15.309H0L2.31 0h6.933l.634.037c2.714.131 4.774 1.686 4.696 4.567v.337l-.037.336c-.299 2.936-2.217 5.158-5.218 5.428H5.963l-.67 4.604zm2.2-11.119H6.97l-.412 2.657h.561c2.362.372 3.353-2.985.372-2.657z"/><path id="path2_fill" fill-rule="evenodd" d="M9.23.038L9.678 0l.412.036h.373l.408.037c4.131.53 6.573 3.785 5.893 7.963l-.038.49-.15.453c-.877 4.185-4.77 6.906-8.875 7.095h-.858l-.447-.038L5.987 16c-3.674-.476-6.246-3.145-5.966-7.02v-.45l.074-.491C.786 3.81 4.166.559 8.375.075l.408-.037h.447zm-.037 5.094l-.336-.037-.596.075c-3.13.657-3.903 5.89-.261 6h.298l.299-.075.26-.076a3.532 3.532 0 0 0 2.275-2.226l.075-.302.074-.34c.174-1.454-.352-2.505-1.752-2.981l-.15-.038h-.186z"/><path id="path3_fill" d="M0 0l2.968 15.309h4.658l2.405-5.989.188-.3.075-.299.15-.561.112-.6.189-.56h.15l.45 8.309h4.81L23.78 0h-5.673L15.59 6.476l-.263.636-.188.674-.338 1.347h-.112L13.976 0H9.767L7.251 6.326l-.301.711-.225.673-.376 1.423h-.113L5.673 0H0z"/><path id="path4_fill" d="M0 15.309h10.119l.62-4.192H6.028l.256-1.498h4.128l.584-3.967H6.868l.183-1.46h4.565L12.274 0H2.264L0 15.309z"/><path id="path5_fill" fill-rule="evenodd" d="M5.403 15.309H0L2.332 0H9.29c2.164.055 4.509.77 5.144 3.107l.074.262.037.336c.198 2.12-.595 4.678-2.85 5.315l-.333.15-.444.15v.112l.185.187.222.188.111.112.111.15.111.112.037.15 2.554 4.978H7.884l-1.629-4.941h-.111l-.74 4.94zM7.847 4.19h-.74l-.408 2.583h.74c.92-.01 1.451-.367 1.629-1.273v-.374c.081-.691-.682-.943-1.221-.936z"/><path id="path6_fill" fill-rule="evenodd" d="M10.782 13.408h-4.2l-.716 1.9H0L7.644 0h6.13l3.103 15.308h-5.868l-.227-1.9zm-.906-8.305l-1.74 4.655h2.232l-.227-2.718-.037-.484-.038-.447V5.103h-.19z"/><path id="path7_fill" d="M0 15.309h5.383L7.03 8.79l.448-1.862h.187l-.037.484v.485l.037.93 1.01 6.482h3.215l3.29-6.89.15-.336.149-.373.299-.782h.074l-.523 8.38h5.384L20.562 0H14.88l-2.654 6.034-.375.969-.298 1.042h-.113L10.543 0h-5.72L0 15.309z"/><path id="path8_fill" d="M0 15.309h10.13l.628-4.172H6.063l.185-1.527h4.177l.592-3.985H6.839l.222-1.453h4.584L12.274 0H2.255L0 15.309z"/><path id="path9_fill" fill-rule="evenodd" d="M5.372 15.309H0L2.35 0h6.94c2.005-.04 4.75.885 5.148 3.129l.075.26.037.298c.18 2.564-.559 4.635-3.209 5.476l-.373.148-.037.112.187.186.223.186.113.112.074.112.15.186.074.15 2.536 4.953H7.946l-1.678-4.917h-.113l-.783 4.917zm2.5-11.137h-.784l-.41 2.607h.746c.773.031 1.676-.443 1.641-1.303l.037-.187v-.186l-.037-.149v-.149l-.149-.223-.186-.186-.112-.075-.112-.037-.187-.037-.112-.038-.335-.037z"/><path id="path10_fill" d="M0 15.309h5.94L8.437 0H2.54L0 15.309z"/><path id="path11_fill" d="M13.041.688l-.903-.302C6.804-1.239 1.208 2.463.171 7.805l-.075.376-.076.413c-.386 6.3 4.787 8.566 10.35 7.004l.188-.075.188-.076 1.09-5.799-.375.301-.226.151c-2.023 1.584-5.532 1.366-5.494-1.732v-.301l.075-.34a3.574 3.574 0 0 1 5.872-1.769l.302.339.3.301.751-5.91z"/><path id="path12_fill" fill-rule="evenodd" d="M10.784 13.409H6.583l-.717 1.9H0L7.607 0h6.167l3.103 15.308H11.01l-.227-1.9zm-.906-8.306l-1.74 4.655 2.232.001-.265-2.719V5.103h-.227z"/><path id="path13_fill" d="M0 15.308h5.305l.752-4.953c.14-.761.19-1.536.15-2.309v-.744h.151l3.65 8.007h5.267L17.644.003h-5.305l-.676 4.578c-.183.97-.246 1.957-.188 2.942l.038.968h-.152L7.674 0H2.369L0 15.308z"/><path id="path14_fill" d="M0 15.309h10.167l.618-4.132H6.064l.254-1.55h4.104l.617-3.983H6.9l.218-1.439h4.54L12.273 0H2.288L0 15.309z"/><path id="path15_fill" d="M0 15.309h10.017l.723-4.87H6.22L7.737 0H2.314L0 15.309z"/><path id="path16_fill" d="M0 15.309h10.13l.618-4.132H6.064l.218-1.55h4.14l.617-3.983H6.863l.218-1.439h4.503L12.274 0H2.288L0 15.309z"/><path id="path17_fill" d="M13.041.62l-.417-.113-.457-.15C6.632-1.16 1.364 2.32.17 7.757l-.152.83c-.365 6.271 4.813 8.614 10.359 6.986l.229-.076.19-.075 1.028-5.815-.573.454c-2.054 1.705-5.59 1.296-5.523-1.737l.076-.605C6.577 5.1 9.591 4.072 11.67 5.983l.343.265.267.301.762-5.928z"/><path id="path18_fill" d="M0 4.98l3.05-.148L1.467 15.31h5.497L8.546 4.832l2.975.148.753-4.98H.79L0 4.98z"/><path id="path19_fill" fill-rule="evenodd" d="M5.392 15.309H0L2.3 0h7.013c2.158-.005 4.634.785 5.128 3.098l.076.296.038.258c.142 2.276-.408 4.48-2.828 5.349l-.34.185-.452.11v.11c.32.268.599.579.83.923l2.488 4.98H7.918l-1.697-4.906h-.075l-.754 4.906zm2.11-11.14h-.413l-.415 2.58h.752c.901-.066 1.463-.338 1.659-1.255V5.09c.052-.632-.695-.955-1.244-.885l-.34-.037z"/><path id="path20_fill" d="M0 15.309h5.898L8.438 0h-5.94L0 15.309z"/><path id="path21_fill" d="M13.041.62l-.417-.114-.457-.15C6.61-1.157 1.393 2.31.174 7.755l-.152.83c-.394 6.21 4.784 8.632 10.32 6.986l.267-.075.19-.076 1.028-5.814-.573.453C9.2 11.765 5.659 11.352 5.732 8.323l.076-.604c.76-2.596 3.778-3.66 5.863-1.737l.305.265.305.301.76-5.928z"/><path id="path22_fill" fill-rule="evenodd" d="M33.577 7.965h-1.194L33.399 0l4.462 4.685c.274.293.525.604.75.932L39.292.3h1.193l-1.017 7.965-4.55-4.77a5.15 5.15 0 0 1-.66-.858l-.68 5.328zm71.29 0h-1.193L104.689 0l4.463 4.685c.274.293.524.604.75.932L110.581.3h1.193l-1.016 7.965-4.551-4.77a5.207 5.207 0 0 1-.66-.858l-.68 5.328zm32.73-2.876l.134-1.048 3.154-.001-.016.177-.015.158-.006.07a5.155 5.155 0 0 1-.033.313c-.277 2.176-1.794 3.41-4.112 3.41a3.73 3.73 0 0 1-2.945-1.115 3.581 3.581 0 0 1-.799-2.906 4.412 4.412 0 0 1 1.584-2.895 4.943 4.943 0 0 1 3.186-1.126c1.126-.062 2.202.446 2.839 1.34l-1.035.686a2.265 2.265 0 0 0-1.926-.89c-1.711-.02-3.15 1.233-3.298 2.873-.223 1.748.843 2.916 2.57 2.916 1.494 0 2.476-.718 2.621-1.854l.014-.108h-1.917zm9.842 2.876h-1.282l.448-3.506-2.154-4.16h1.359l1.339 2.605c.027.054.124.257.257.611a4.2 4.2 0 0 1 .415-.643l2.045-2.573h1.292l-3.272 4.16-.447 3.506zm-21.684-4.396l.281-2.196h.234c1.158 0 1.679.203 1.556 1.148-.117.922-.702 1.048-1.838 1.048h-.233zm-.057.965h-.145l-.437 3.432h-1.215l.979-7.665h1.805c.858 0 1.485.064 1.929.429.466.436.674 1.068.554 1.683-.035 1.107-.943 2.004-2.093 2.067l2.297 3.485h-1.459l-2.215-3.43zm-10.4 3.43h4.446l.143-1.114h-3.155l.316-2.477h3.154l.14-1.093h-3.155l.246-1.92h3.153l.136-1.06h-4.447l-.977 7.665zm-20.228 0h4.447l.142-1.114h-3.154l.316-2.477h3.154l.139-1.093h-3.153l.244-1.92h3.155l.135-1.06h-4.446l-.98 7.665zm-12.797.204c-1.36 0-2.172-.622-2.297-1.736l1.093-.457c.038.32.208.612.472.81.264.197.6.283.932.239.71.048 1.332-.455 1.404-1.137.088-.672-.36-.889-1.01-1.204l-.01-.004-.107-.052c-.038-.02-.078-.038-.118-.058-1.33-.665-2.046-1.18-1.897-2.338.174-1.265 1.34-2.184 2.664-2.1 1.181 0 1.936.46 2.134 1.264l-1.078.504a1.151 1.151 0 0 0-1.092-.699c-.622-.056-1.178.37-1.26.965-.089.692.427.934 1.183 1.287l.158.074c1.326.622 1.913 1.169 1.772 2.273-.182 1.426-1.294 2.37-2.943 2.37zm-11.09-1.736c.125 1.114.937 1.736 2.297 1.736 1.649 0 2.762-.943 2.943-2.369.141-1.104-.447-1.65-1.771-2.273l-.157-.073c-.757-.354-1.274-.596-1.185-1.288.082-.595.638-1.02 1.26-.965.48-.01.916.27 1.092.699l1.078-.504C76.542.591 75.787.13 74.606.13c-1.324-.083-2.49.836-2.664 2.101-.148 1.158.566 1.673 1.897 2.338a15.063 15.063 0 0 0 .234.114c.652.315 1.099.532 1.011 1.204-.072.682-.694 1.185-1.404 1.137a1.276 1.276 0 0 1-.932-.24 1.183 1.183 0 0 1-.472-.809l-1.093.457zm-3.896 1.533h-4.446L63.82.3h4.447l-.136 1.06h-3.154l-.245 1.92h3.154l-.14 1.093h-3.153l-.316 2.477h3.153l-.143 1.115zm-12.359 0h4.19l.143-1.115h-2.898L57.2.3h-1.293l-.977 7.665zm-8.791-6.55l-.694 5.424h1.094c.88 0 1.565-.043 2.192-.504a3.096 3.096 0 0 0 1.185-2.208 2.406 2.406 0 0 0-.623-2.209c-.53-.471-1.262-.503-2.22-.503h-.934zm-2.13 6.55h2.095c1.293 0 2.345-.032 3.357-.719a4.239 4.239 0 0 0 1.801-3.109c.176-1.372-.178-2.446-1.006-3.12C49.376.3 48.23.3 46.735.3h-1.75l-.978 7.665zM22.362.3l-.608 4.77c-.265 2.07.674 3.098 2.87 3.098 2.195 0 3.407-1.029 3.671-3.098L28.904.3h-1.293l-.593 4.652c-.177 1.383-.934 2.08-2.25 2.08-1.314 0-1.894-.7-1.718-2.08L23.644.3h-1.282zm-7.08 5.875A3.228 3.228 0 0 0 16.4 4.148a2.517 2.517 0 0 0-.598-2.036 2.531 2.531 0 0 0-1.943-.837 3.312 3.312 0 0 0-2.169.837 3.24 3.24 0 0 0-1.107 2.036c-.115.726.1 1.464.588 2.027.49.545 1.207.851 1.955.836a3.262 3.262 0 0 0 2.158-.836zm2.467-2.027a3.445 3.445 0 0 0-.882-2.852 3.827 3.827 0 0 0-2.86-1.168 4.925 4.925 0 0 0-3.17 1.168 4.446 4.446 0 0 0-1.6 2.852 3.386 3.386 0 0 0 .874 2.841 3.857 3.857 0 0 0 2.87 1.18 4.935 4.935 0 0 0 3.16-1.18 4.414 4.414 0 0 0 1.608-2.84zM2.114 1.341l-.28 2.196.49.001c1.17 0 1.726-.257 1.83-1.061.121-.954-.402-1.136-1.55-1.136h-.49zm-.713 5.584l.311-2.446h.836c.352-.026.705.033 1.026.171.38.219.573.646.478 1.062-.045.4-.275.757-.626.975a3.25 3.25 0 0 1-1.58.236l-.445.002zm.616 1.04H0L.977.299h2.005c.847 0 1.478.032 1.923.386a1.7 1.7 0 0 1 .573 1.619C5.428 3.059 4.887 3.7 4.13 3.9c.908.14 1.384.858 1.253 1.887a2.55 2.55 0 0 1-.85 1.598c-.638.547-1.4.579-2.515.579z"/><path id="path23_fill" d="M1.368.349a.655.655 0 0 0-.59-.347.627.627 0 0 0-.675.592c0 .319.238.468.498.58l.16.067c.196.082.394.188.394.433a.432.432 0 0 1-.644.383.432.432 0 0 1-.222-.372L0 1.747a.715.715 0 0 0 .71.64.707.707 0 0 0 .73-.714c0-.383-.242-.562-.568-.689L.71.92C.565.865.389.772.389.592A.361.361 0 0 1 .772.268a.392.392 0 0 1 .368.216l.228-.135z"/><path id="path24_fill" d="M1.256 2.434l.688-1.56h.005l.268 1.51h.296L2.043 0l-.787 1.803L.469 0 0 2.385h.295L.563.875H.57l.687 1.559z"/><path id="path25_fill" d="M1.368.349a.655.655 0 0 0-.59-.347.627.627 0 0 0-.675.592c0 .319.238.468.498.58l.16.067c.196.082.394.188.394.433a.433.433 0 0 1-.866.011L0 1.747a.715.715 0 0 0 .71.64.707.707 0 0 0 .73-.714c0-.383-.242-.562-.568-.689L.71.92C.565.865.389.772.389.592A.361.361 0 0 1 .772.268a.392.392 0 0 1 .368.216l.228-.135z"/><path id="path26_fill" d="M1.256 2.434l.687-1.56h.006l.268 1.51h.296L2.043 0l-.787 1.803L.469 0 0 2.385h.295L.563.875h.006l.687 1.56z"/></defs></svg>