<svg id="Layer_1" data-name="Layer 1" xmlns="http://www.w3.org/2000/svg" viewBox="0 0 283.34 75.43"><defs><style>.cls-1{fill:#fff}</style></defs><path class="cls-1" d="M0 0H283.34v22.58c-.43 0-.85.07-1.27.07H1.19c-.4 0-.79-.05-1.19-.08zM0 37.68h283.33v7.59H1.79c-.6 0-1.2 0-1.79.06zM0 30.24c.52 0 1-.07 1.55-.07h281.79v3.75H1.55c-.52 0-1 0-1.55-.07zM258.11 75.35h-11.82a28.44 28.44 0 0 1-4.29-.25c-3.44-.56-5.32-2.5-5.66-6a32.42 32.42 0 0 1 0-6.1c.34-3.64 2.18-5.8 5.79-6.08 5.28-.42 10.6-.37 16-.52v3.47c-.39 0-.81.06-1.23.06h-12.11a9.07 9.07 0 0 0-2.48.34 3 3 0 0 0-2.31 2.81 44 44 0 0 0 0 5.26c.14 2.24 1.21 3.49 3.42 3.59 3.66.16 7.34 0 11.1 0V68h-7.65v-3.39h11.3zM141.82 75.27V56.7a4 4 0 0 1 .77-.15c4.56 0 9.11 0 13.67.09a10.71 10.71 0 0 1 2.48.38c3.06.78 4.72 2.52 5 5.68a39.7 39.7 0 0 1-.07 7 5.47 5.47 0 0 1-4 4.89 11.88 11.88 0 0 1-3.39.67c-4.6.07-9.2 0-13.79 0a5.76 5.76 0 0 1-.67.01zm3.63-3.27h10.91a4.53 4.53 0 0 0 1.17-.23 3.16 3.16 0 0 0 2.57-3.07 40.1 40.1 0 0 0 0-5c-.16-2.38-1.33-3.52-3.74-3.67-1.83-.11-3.68 0-5.52-.06h-5.43zM171.85 56.68a4.56 4.56 0 0 1 4.52 1.23c4.06 3.9 8.27 7.66 12.42 11.47.2.18.42.34.79.64V56.65h3.58v18.61a5 5 0 0 1-4.66-1.32c-3.94-3.86-8.09-7.5-12.16-11.22-.23-.21-.47-.4-.92-.78v13.34h-3.57zM198.65 56.56c1.31 0 2.5-.06 3.67 0 .31 0 .66.51.85.85 2.15 4 4.27 8 6.4 12.06.2.38.42.74.73 1.28l3-5.71c1.35-2.54 2.73-5.06 4-7.63a1.43 1.43 0 0 1 1.58-.93c.91.06 1.83 0 3 0-.26.53-.43.9-.63 1.26l-9.16 16.7c-.61 1.11-3.1 1.26-3.69.2q-4.79-8.71-9.55-17.44a6.33 6.33 0 0 1-.2-.64zM266.13 56.62h3.52V72h13.68v3.27h-17.2zM229.1 64v4.11H225V64z"/></svg>