<svg id="Layer_1" data-name="Layer 1" xmlns="http://www.w3.org/2000/svg" viewBox="0 0 340.38 180.87"><defs><style>.cls-1{fill:#fff}</style></defs><path class="cls-1" d="M170.22 79.52H.92c-.66 0-1-.22-.91-.9v-.72Q0 39.74 0 1.59C0 0 0 0 1.54 0h337.28c1.56 0 1.57 0 1.57 1.55v76.43c0 1.53 0 1.53-1.59 1.53zM216 41.76c-1.51-.63-10.27-.53-11.13.11a11.18 11.18 0 0 0 1.44.34c1.41.13 2 .63 2 2 .05 2.6 0 5.2 0 7.8 0 .58-.16.89-.81.89h-11.39c-.73 0-.85-.36-.85-1v-7a10.9 10.9 0 0 1 .13-1.3 1.49 1.49 0 0 1 1.58-1.45 4.37 4.37 0 0 0 1.16-.39l-.1-.32h-10.44l-.07.34a5.19 5.19 0 0 0 1.09.37c1.8.2 2.24.64 2.25 2.39v16c0 2.07-.14 4.15-.25 6.22a1.39 1.39 0 0 1-1.49 1.51 5.25 5.25 0 0 0-1.26.4c1 .69 10.57.59 11.24-.15-.64-.11-1.16-.23-1.68-.28-1.38-.11-1.79-.4-1.84-1.81-.12-3.47-.14-6.95-.24-10.42 0-.87.52-.83 1.1-.83h9.47c2.47 0 2.5 0 2.46 2.46 0 3-.15 6.07-.25 9.1a1.38 1.38 0 0 1-1.47 1.53 5.57 5.57 0 0 0-1.27.38c1 .7 10.51.63 11.29-.16-.77-.1-1.36-.23-2-.26a1.5 1.5 0 0 1-1.62-1.54c-.09-1.15-.22-2.31-.22-3.46V45.72a14 14 0 0 1 0-1.56c.13-1.12.49-2 1.9-2a4.4 4.4 0 0 0 1.27-.4zm-76.4 23.1l-.43-.07a3.83 3.83 0 0 0-.35.83 2.12 2.12 0 0 1-2.17 1.85 16 16 0 0 1-2.64 0c-1.43-.12-2-.73-2-2.17v-4.2c0-2.56 0-2.54 2.62-2.28 1.49.15 3 .15 3.1 2.24 0 0 .14 0 .46.16l.44-5.05c-.74.37-1.12.71-1.51.74-1.47.09-3 .12-4.43.06-.24 0-.63-.55-.65-.86-.08-1.19 0-2.4 0-3.6 0-2.65 0-2.65 2.69-2.59 2.5.06 2.63.15 3.4 2.26 0 .05.13.08.48.27L139 48c-1 .07-1.77.16-2.56.16-3.2 0-6.4-.05-9.59-.06a7.24 7.24 0 0 0-1.25.21c.2.39.38.56.59.6 2 .45 2 .44 2 2.51v12.35a22.85 22.85 0 0 1-.12 3c-.24 1.75-1 2.08-2.17.77-2.36-2.57-4.53-5.32-6.64-7.83a35 35 0 0 0 2.87-3.94c1.78-3.36 0-7-3.78-7.4-3.4-.34-6.86-.2-10.29-.26-.18 0-.36.21-.56.34.12.17.16.3.25.35a1.4 1.4 0 0 0 .45.14c1.7.29 1.83.4 1.83 2v15.35c0 1.22-.11 2.29-1.73 2.24-.14 0-.29.13-.43.2l.14.48c2.55 0 5.11.09 7.66.1.26 0 .51-.28 1-.56a3.64 3.64 0 0 0-.86-.27c-1.52.09-1.93-.33-2-2.12-.07-1.56 0-3.12 0-4.68a1.22 1.22 0 0 1 .34-.9 2.67 2.67 0 0 1 2.93.82c1.07 1.59 2.15 3.17 3.2 4.77a6.05 6.05 0 0 0 5.86 3c1.51-.11 3-.2 4.54-.19 2.48 0 4.95.15 7.43.18.36 0 .94-.16 1-.4a7.84 7.84 0 0 0 .49-4.1zm-58-29.23l-.08-.44c-.34 0-.68-.08-1-.1-1.75-.12-2.32-.64-2.49-2.41q-.16-1.61-.22-3.22c-.09-2.39-.19-4.79-.23-7.18V15.8L78.7 17c3.61 3.74 7.2 7.49 10.82 11.21q3.64 3.73 7.39 7.37a5.48 5.48 0 0 0 1.42.73 5.39 5.39 0 0 0 .51-1.5c.1-3.75.13-7.51.2-11.26.08-4.19.15-8.39.29-12.58 0-1.54.54-1.94 2-2.13a2.9 2.9 0 0 0 .85-.43c-.29-.15-.57-.44-.86-.44q-4-.05-8 0a3.09 3.09 0 0 0-1 .39c.26.36.43.47.61.48 2.8.29 3.1.65 3.14 3.5.06 4.43.17 8.87.25 13.3v2.65l-.3.12c-.25-.31-.48-.64-.75-.93Q86 17.83 76.63 8.17a5.19 5.19 0 0 0-1.17-.7A4.66 4.66 0 0 0 75 8.83c-.09 2.79-.12 5.59-.17 8.39-.1 5.19-.18 10.39-.31 15.58 0 1.78-.47 2.14-2.2 2.32a3.17 3.17 0 0 0-.94.44 3 3 0 0 0 1 .43q4.08.05 8.15 0a3.91 3.91 0 0 0 1.06-.36zM317 48.27v.33a2.54 2.54 0 0 0 .59.3c1.68.37 1.76.44 1.76 2.1v15.11a3.85 3.85 0 0 1-.25 1.52 1.39 1.39 0 0 1-.9.77c-2.29.12-2.9.32-4-2.05-.79-1.65-1.4-3.39-2.07-5.09-1.67-4.23-3.32-8.47-5-12.69a4.57 4.57 0 0 0-.85-1 4.69 4.69 0 0 0-1 1.06c-.55 1.19-1 2.44-1.47 3.66l-5.54 14c-.42 1.06-.89 2.07-2.25 2.2-.28 0-.55.28-.82.43.29.14.59.4.88.41h5.25a4.19 4.19 0 0 0 1.08-.4c-.42-.25-.58-.43-.73-.42-1.33 0-1.48-.63-1.09-1.69s.91-2.38 1.31-3.59a1.08 1.08 0 0 1 1.23-.84h4.56a1.15 1.15 0 0 1 1.31.9c.42 1.29 1 2.54 1.36 3.83a11.49 11.49 0 0 1 .21 2.07c.7 0 1.71.17 2.72.16 2.79 0 5.58-.17 8.37-.17s5.43.13 8.14.21c.73 0 1.29-.22 1.41-1 .16-1 .26-2.05.34-3.09 0-.21-.18-.43-.38-.88a7.66 7.66 0 0 0-.47 1.09 2.11 2.11 0 0 1-2 1.84c-.63 0-1.27.15-1.9.14-3.13-.06-3.56-.5-3.57-3.67V53.26c0-1 0-1.91.09-2.87s.47-1.49 1.5-1.46a3.1 3.1 0 0 0 .92-.28l-.05-.37zM34.47 62.08L34.1 62a9.19 9.19 0 0 0-.56 1.15 5.1 5.1 0 0 1-3.43 3.58c-4.58 1.32-9.34.44-12.68-3.65-3.84-4.71-3.93-10-1.75-15.46A7.6 7.6 0 0 1 21.31 43a14.8 14.8 0 0 1 7.58.26c2.43.73 4.2 2.12 4.35 4.92 0 .27.35.53.54.79.18-.27.5-.53.52-.81.13-1.87.22-3.75.24-5.62a1.18 1.18 0 0 0-.64-.92c-4.64-.94-9.31-1.58-14-.5-5.65 1.31-9.42 4.77-10.58 10.48s.19 10.87 5.06 14.64a16.3 16.3 0 0 0 9.83 3.27 68.5 68.5 0 0 0 8.2-.63 1.69 1.69 0 0 0 1.55-1.59c.22-1.41.46-2.83.65-4.25a3.75 3.75 0 0 0-.14-.96zm157.24-47.17l-.15.43c2.29.12 2.28 2 2.79 3.39s.89 2.73 1.32 4.1C197 26.9 198.24 31 199.56 35a5 5 0 0 0 .84 1.19 8.66 8.66 0 0 0 1.05-1.14 7.33 7.33 0 0 0 .61-1.43l4.12-11c.11-.3.26-.59.46-1 .17.37.26.54.33.72 1.7 4.3 3.39 8.61 5.13 12.9.15.38.6.65.91 1 .29-.34.59-.66.85-1a2.55 2.55 0 0 0 .23-.67q2.6-8.08 5.19-16.17c.44-1.37.74-2.82 2.54-3 0 0 .07-.13.1-.2-.82-.58-5.38-.59-6.28 0 .12.11.21.26.34.31 1.49.57 1.53.62 1.11 2.19-.36 1.35-.74 2.69-1.12 4-.73 2.55-1.46 5.11-2.25 7.9-.25-.53-.39-.81-.5-1.09-1.55-4-3.08-8-4.66-11.92a8.68 8.68 0 0 0-1.16-1.65 10 10 0 0 0-1.09 1.73c-.87 2.27-1.65 4.58-2.47 6.87-.72 2-1.45 4-2.3 6.38-1.15-4.09-2.23-7.82-3.23-11.58-.31-1.16-1.39-2.63 1.12-3.13l-.31-.27zM49.57 69a5.88 5.88 0 0 0 1.25.34h6.81c.31 0 .61-.31.92-.48a2.87 2.87 0 0 0-.89-.36c-.94 0-1.72-.27-1.73-1.38V50.23a1.15 1.15 0 0 1 1.24-1.29 2.76 2.76 0 0 0 .83-.35l-.09-.48a48.61 48.61 0 0 0-8.43.36 2.16 2.16 0 0 0 1.15.49c.76.11 1.29.48 1.31 1.3 0 2 .09 4.08 0 6.11a1.19 1.19 0 0 1-.86.78c-2.76.06-5.52.06-8.28 0a1.09 1.09 0 0 1-.8-.75q-.09-3 0-6c0-.81.37-1.47 1.38-1.48a3.09 3.09 0 0 0 .88-.33c-.9-.7-7.82-.69-8.76 0a5.46 5.46 0 0 0 .91.34c1.58.27 1.77.48 1.78 2.09v14.75c0 2.15-.09 2.27-2 2.86-.05 0-.07.13-.1.2.73.74 8.19.64 8.64-.11-.05-.06-.1-.15-.16-.17a2.21 2.21 0 0 0-.47-.09c-1.74-.15-1.87-.16-2-1.84-.15-2.27-.1-4.55-.16-6.82 0-.81.52-.75 1.05-.75h7.8c.93 0 1.17.34 1.15 1.19-.06 2.08-.08 4.16-.09 6.23 0 1.16-.2 2.1-1.68 2-.08.02-.23.23-.6.53zm183.94-54.1v.45c.39.08.78.18 1.18.25.8.13 1.33.51 1.33 1.4v16.55c0 .85-.3 1.58-1.39 1.57-.24 0-.49.22-.73.33l.06.37c.52 0 1 .12 1.57.14 2.31.08 4.63.12 6.94.22 6.63.29 12.09-2.36 13.07-9.53.71-5.23-1.68-11.17-9.14-11.69-3.9-.27-7.82-.18-11.73-.24a6.22 6.22 0 0 0-1.16.18zM86.09 48.29c.3.33.36.44.46.49a1.59 1.59 0 0 0 .45.14c1.77.31 1.86.42 1.86 2.24v14.63c0 2.19 0 2.24-2 2.84-.05 0-.07.13-.24.46a11 11 0 0 0 1.41.24c2.46.08 4.93.13 7.39.21 6.5.22 11.87-2.56 12.68-10 .47-4.33-1.33-9.47-6.89-10.88A19.64 19.64 0 0 0 97 48.1c-3.19-.09-6.39 0-9.59 0a9.27 9.27 0 0 0-1.32.19zm71-12c6.1.3 11.34-4.22 11.31-11.38 0-6.78-4.23-10.46-11-10.52s-11.17 4.51-11.23 11c-.02 5.67 4.06 11.13 10.96 10.85zM226.3 69.6c6.29.26 11.25-4.43 11.28-11.42 0-6.39-4.31-10.55-10.92-10.51s-11.19 4.51-11.22 11 4.43 10.93 10.86 10.93zM176 35.77c-.24-.35-.29-.48-.38-.53a1.41 1.41 0 0 0-.45-.13c-1.55-.26-1.85-.58-1.92-2.15 0-.92-.07-1.84-.07-2.76v-8.93c.33.37.64.71 1 1q6.22 6.58 12.45 13.14a5.16 5.16 0 0 0 1.4.75 5.17 5.17 0 0 0 .51-1.47c.14-5.59.23-11.18.33-16.78 0-1.86 0-1.86 1.8-2.47.13 0 .22-.2.34-.3-.89-.65-6.52-.65-7.31 0 0 .07 0 .17.1.21a1.24 1.24 0 0 0 .42.19c2 .37 2.08.51 2.1 2.55 0 1.84.07 3.68.08 5.51v6.33l-2.32-2.5q-5.79-6.22-11.6-12.43a4.05 4.05 0 0 0-1.18-.61 4.85 4.85 0 0 0-.35 1.2c-.1 3.83-.16 7.67-.23 11.5 0 2.2-.08 4.39-.14 6.59 0 .93-.46 1.49-1.5 1.45a2.23 2.23 0 0 0-.78.29l.06.37zm-28.48 33.36v-.37a1.72 1.72 0 0 0-.47-.28c-1.91-.39-2-.55-2.12-2.47-.06-1.52-.18-3-.21-4.55v-6.84c3.58 3.82 7 7.53 10.52 11.22 1 1.11 2.09 2.21 3.19 3.25a1.51 1.51 0 0 0 1.15.38c.21 0 .34-.64.45-1a2.77 2.77 0 0 0 0-.72q.13-8.51.27-17c0-1 .29-1.81 1.53-1.84.2 0 .4-.25.66-.42-1.13-.63-6.65-.52-7.36.14a2 2 0 0 0 .31.18 2.3 2.3 0 0 0 .46.12c1.63.25 1.78.43 1.83 2s.16 3 .18 4.55v7.79c-.26-.24-.41-.36-.53-.49q-6.59-7.22-13.19-14.43a5 5 0 0 0-1.16-.71 4.56 4.56 0 0 0-.43 1.27c-.1 4-.17 7.91-.23 11.87 0 2 0 4-.07 6 0 .92-.36 1.74-1.58 1.67-.25 0-.52.18-.77.28l.06.37zm-24.88-33.41c-.4-.35-.51-.53-.62-.53-1.9 0-2.55-1.4-3.14-2.83-1.09-2.66-2.13-5.33-3.19-8-1.22-3.08-2.41-6.16-3.67-9.23-.16-.38-.61-.63-.93-.95a10.71 10.71 0 0 0-.83.93 3.62 3.62 0 0 0-.32.77l-6.68 16.78c-.52 1.32-1.1 2.52-2.82 2.47-.14 0-.29.22-.44.35.89.69 6.39.62 7-.09a1.42 1.42 0 0 0-.38-.24c-1.42-.35-1.55-.53-1.09-1.9a32.63 32.63 0 0 1 1.32-3.46 1.57 1.57 0 0 1 1.12-.75c1.47-.09 3 0 4.44-.05a1.34 1.34 0 0 1 1.59 1.07c.36 1.18.88 2.31 1.24 3.49a16.3 16.3 0 0 1 .34 2.27 26.87 26.87 0 0 0 7.06-.1zM253.69 69a5.24 5.24 0 0 0 1.11.3h6.81c.32 0 .63-.3.94-.46a3.33 3.33 0 0 0-1-.38c-1 0-1.62-.4-1.64-1.47l-.22-16.3c0-.77.33-1 1.09-1.06a4.23 4.23 0 0 1 4.22 3.79c.41 2.72-.8 5-3 5.55l-1.27.35v.34a4.5 4.5 0 0 0 1 .31 6.67 6.67 0 0 0 6.81-5.39c.61-3.39-1-5.92-4.39-6.24s-6.78-.17-10.17-.22c-.16 0-.32.16-.75.39a5.4 5.4 0 0 0 1 .42c1.62.28 1.79.41 1.79 1.94 0 5.2 0 10.39-.05 15.59 0 1.15-.15 2.12-1.65 2.05-.17-.01-.32.22-.63.49zm13.9-50h.44l.47-4.13H255v.37a2.73 2.73 0 0 0 .66.33c1.84.35 2 .49 2 2.31v13.79a8.46 8.46 0 0 1-.26 2.37c-.13.42-.66.74-1 1.05a5.16 5.16 0 0 1-.83.47c.29.14.58.4.87.4q5.63.05 11.27 0a1.5 1.5 0 0 0 1-.34c.58-.56.71-3.38.15-4.35-.15.38-.27.64-.36.91-.49 1.5-1 1.88-2.61 1.92h-2.28c-1.46-.1-2-.76-2.06-2.23v-3.72c0-2.77 0-2.77 2.79-2.59 2.32.15 2.32.15 3 2.13 0 .05.13.07.51.24l.47-5.09c-2 1.1-3.92.89-5.81.95-.64 0-1-.18-.95-.88v-5.52c0-.61.2-.9.84-.85 1.27.09 2.56.07 3.82.28.47.08.91.64 1.25 1.07a3 3 0 0 1 .12 1.11zm-131.45-4.35c-.5 0-1 .06-1.53.06-4.4 0-8.79 0-13.18.07-1 0-2.17-.94-2.84.08a7.7 7.7 0 0 0-.64 3 3.41 3.41 0 0 0 .16 1l.31.19c.62-2.65 2.62-2.28 4.44-2.29a8.8 8.8 0 0 0 1.32 0c1-.16 1.22.27 1.22 1.2v14.87c0 1.26-.13 2.36-1.77 2.37-.12 0-.23.18-.35.28.77.66 8 .69 9 0a4.76 4.76 0 0 0-.9-.33c-1.82-.24-1.94-.32-2-2.13 0-4.76-.06-9.51-.08-14.27 0-2 0-2 1.9-1.94h1.44c1.44 0 2.74.24 3 2 0 .12.19.22.53.59zm162 37.95l.52-.13c0-1.35.08-2.7.05-4.05 0-.14-.45-.4-.69-.4-4.79 0-9.58 0-14.37.06-.84 0-2-.37-2.44 0s-.47 1.61-.62 2.47a14.22 14.22 0 0 0-.1 1.57c2.14-2 2.14-2 4.17-2 .76 0 1.52 0 2.28-.06s1 .21.93.9V66.2c0 1.74-.19 1.93-1.82 2.32a4.68 4.68 0 0 0-.48.17c1 .82 8.31.76 9 0a8.35 8.35 0 0 0-1.18-.19 1.38 1.38 0 0 1-1.57-1.53c0-1-.18-2-.19-3V52.46c0-2.45-.61-2.46 2.44-2.32 1.78.06 3.74-.26 4.03 2.46zm-48 .55c.27-.45.47-.63.48-.83.06-1.16.11-2.32.06-3.47a1.07 1.07 0 0 0-.72-.75 24.67 24.67 0 0 0-5.21-.19 5.42 5.42 0 0 0-4.75 3.87 5.69 5.69 0 0 0 1.63 6.13c1 .92 2.14 1.65 3.22 2.48a9.58 9.58 0 0 1 2.15 1.89 4.82 4.82 0 0 1 .81 2.84 3.14 3.14 0 0 1-3.25 2.88c-2.22.06-3.82-1-4.3-2.87-.14-.55-.24-1.11-.37-1.67h-.36a5.32 5.32 0 0 0-.34 1.13c-.07 1 0 2-.11 3s.34 1.54 1.21 1.6a50.5 50.5 0 0 0 6.27.16 4.57 4.57 0 0 0 2.4-1.22c3.3-2.81 3-7.8-.71-10.56-1.08-.81-2.34-1.4-3.38-2.26a5.83 5.83 0 0 1-1.94-2.42c-.52-1.69.54-3 2.29-3.4 2.19-.44 4 .53 4.44 2.41.09.32.21.66.4 1.25zM178 52.87h.57c0-1.24 0-2.48.1-3.72 0-.63-.21-1-.85-1.05a25.35 25.35 0 0 0-5-.17 5.63 5.63 0 0 0-5 6.87c.5 2.28 2 3.62 3.78 4.87 1.1.78 2.25 1.52 3.28 2.4a3.05 3.05 0 0 1 1 3 3.26 3.26 0 0 1-3.4 2.93 4 4 0 0 1-4.21-2.84c-.14-.56-.24-1.13-.36-1.69h-.35a5 5 0 0 0-.35 1.12c-.08 1-.05 2.08-.12 3.11a1.21 1.21 0 0 0 1.07 1.46 42.08 42.08 0 0 0 4.49.48 5.77 5.77 0 0 0 5.75-3.36 6.25 6.25 0 0 0-.45-6.8 17.91 17.91 0 0 0-3.26-2.94c-1-.8-2.14-1.4-3.09-2.24a2.81 2.81 0 0 1-.28-3.7 3.85 3.85 0 0 1 4-1.06 3.05 3.05 0 0 1 2.36 2.45c.06.26.15.57.24.88zM86 64.75l-.55-.1a4 4 0 0 0-.32.72 2.24 2.24 0 0 1-2.32 2c-1.11 0-2.22-.06-3.33-.07a1.6 1.6 0 0 1-1.74-1.82V50.25A1.16 1.16 0 0 1 79 48.94a8.61 8.61 0 0 0 1.31-.32c-1.06-.77-8.09-.71-8.84 0a4.13 4.13 0 0 0 .91.27c1.06.05 1.48.62 1.47 1.63q0 8.09-.06 16.17c0 1.07-.31 1.8-1.56 1.76-.16 0-.33.25-.8.62a15.38 15.38 0 0 0 1.76.2c1.16 0 2.31-.16 3.46-.14 2.56 0 5.11.15 7.67.16.4 0 1.08-.32 1.15-.6.27-1.27.39-2.61.53-3.94zm51.6-49.83l-.07.35a2.74 2.74 0 0 0 .76.3c1 .07 1.46.63 1.46 1.64v16.17c0 .93-.25 1.77-1.48 1.74-.22 0-.44.21-.71.36 1 .7 8.23.65 9.05-.16-.57-.09-1-.2-1.43-.23-.82-.06-1.39-.36-1.4-1.28 0-5.34-.05-10.69-.1-16 0-1.29.21-2.32 1.82-2.31.1 0 .21-.21.52-.55zm85.05.36a4.52 4.52 0 0 0 .9.29 1.38 1.38 0 0 1 1.39 1.59v16.07c0 1-.24 1.93-1.59 1.91-.18 0-.36.22-.85.53a8.33 8.33 0 0 0 1.36.29h6.71a3.49 3.49 0 0 0 1-.36c-.34-.17-.68-.48-1-.48-1.17 0-1.64-.55-1.66-1.69 0-2-.15-3.91-.17-5.86v-9c0-1.45-.08-3.06 2.06-3.18.06 0 .1-.19.15-.29-.95-.58-7.45-.52-8.3.18zm56.87 53.48a3.18 3.18 0 0 0-.92-.29c-1.37.12-2-.51-2-1.86 0-5.39-.06-10.78 0-16.17a1.35 1.35 0 0 1 1.4-1.53c.23 0 .46-.23.82-.42-1.27-.61-7.57-.53-8.45.14a7.05 7.05 0 0 0 1 .31 1.32 1.32 0 0 1 1.28 1.45v16.18c0 1.06-.27 2-1.7 1.93-.13 0-.28.21-.44.33.79.61 8.01.64 9.02-.07zM61.12 48.24l-.07.44a7.07 7.07 0 0 0 .93.26 1.25 1.25 0 0 1 1.2 1.37v16.55c0 .91-.35 1.65-1.49 1.61-.21 0-.43.2-.64.31l.06.42c2.7 0 5.39.08 8.09.09.23 0 .45-.26.82-.48a3 3 0 0 0-.61-.34c-2.18-.36-2.18-.35-2.39-2.54v-1.08-13c0-.48 0-1 .07-1.43.08-.93.41-1.62 1.53-1.58.2 0 .4-.24.6-.37l-.08-.3zM163.41 55c.47-.21.69-.24.8-.37a13.84 13.84 0 0 0 3.29-6.53c.07-.41-.06-1.17-.31-1.28a30.58 30.58 0 0 0-3.25-1.09l-.43.33c2.36 2.94.64 5.85-.1 8.94zM141 129.78c-1.22-1.75-3.54-2.59-3.18-5.44a6.86 6.86 0 0 0-1.06.81 3.64 3.64 0 0 1-4 1.48c-.93-.19-2-.89-2.68.54 0 .1-.68.08-.89-.08a1.7 1.7 0 0 1-.64-1c-.21-1.49-1.09-1.86-2.45-1.79a1.64 1.64 0 0 1-1.15-.71c-.6-.88-1-1.89-1.63-2.77a1.94 1.94 0 0 0-1.14-.56c-.42-.09-.88 0-1.31 0-.74-.08-1.3-.36-1.17-1.29a9.17 9.17 0 0 0 0-1.32c-.06-9.79-.11-19.58-.21-29.37 0-1.14.29-1.55 1.46-1.49a60.5 60.5 0 0 0 6.11 0 19.4 19.4 0 0 1 7.27 1.13 9 9 0 0 1 1.92 1.25c.19.13.44.39.58.35 1.67-.54 2.94.84 4.45.88a22.42 22.42 0 0 0 3.62-.44c.23 0 .46-.23.68-.2 2.69.28 4.66-1.29 6.56-2.75s4.45-1.6 6.7-2.28c.33-.1.69-.14 1.19-.24 0 .43.12.8.12 1.18v13.79c0 .58 0 1-.77 1.23s-.79.91-.42 1.53a1.61 1.61 0 0 1-.07 1.92c-.43.73-.29 1.77-.52 2.64a25 25 0 0 1-1.66 5.51 32 32 0 0 1-3.82 4.83c-.11.13-.43.27-.51.21-1.32-.9-2.21.14-2.84.88-.86 1-2.26 2.06-1.18 3.82.35.56-.42 1.09-1.27.94a5.69 5.69 0 0 0-1.75-.23c-1.2.17-1.31 1-1.06 2.16a3 3 0 0 1-.81 2.61 5.41 5.41 0 0 0-1.71 1.66 2.79 2.79 0 0 1-.76.61zm7.76-26.61l-.12-.33c-.38 0-.76-.07-1.14-.07h-5a1.1 1.1 0 0 1-1.27-.93 221.4 221.4 0 0 0-1.78-5.7 9.2 9.2 0 0 0-.41-.93 51.44 51.44 0 0 0-2.27 6.44 1.28 1.28 0 0 1-1.5 1.13c-1.68-.07-3.36 0-5 0-.36 0-.72.06-1.43.13 1.94 1.57 3.55 2.93 5.23 4.21a1.19 1.19 0 0 1 .45 1.62c-.66 1.8-1.25 3.62-1.86 5.43-.13.37-.2.77-.37 1.44.54-.32.79-.44 1-.6 1.58-1.16 3.18-2.28 4.71-3.51a1.31 1.31 0 0 1 2 0c1.39 1.13 2.87 2.17 4.31 3.24.39.29.8.55 1.2.82l.24-.22c-.73-2.18-1.42-4.37-2.2-6.52a1.26 1.26 0 0 1 .48-1.71c1.57-1.3 3.15-2.64 4.76-3.94zM24.75 174.35l3.46-8.44q5.58-13.64 11.15-27.29a1.49 1.49 0 0 1 1.64-1.11c2.39.07 4.79 0 7.27 0v42.91h-4.64v-39.15l-.25-.06-.61 1.47q-7.56 18.38-15.11 36.76a1.44 1.44 0 0 1-1.66 1.09c-1.19-.11-2.63.3-3.51-.25s-1-2-1.46-3l-14.5-34.73a1.92 1.92 0 0 0-.58-.81v38.7H1.23v-42.89h7.91c.29 0 .67.6.83 1q5.03 12.27 10.1 24.53c1.41 3.42 2.79 6.85 4.19 10.27.12.28.27.55.49 1zM192.87 123.82c.48-1.16 1-2.31 1.45-3.47q6.6-16.11 13.18-32.22a1.34 1.34 0 0 1 1.49-1c2 .06 4.08 0 6.12 0 .84 0 1.21.17 1.21 1.12v40.56c0 .82-.24 1.11-1.09 1.12-3.54 0-3.54.07-3.54-3.46V91.79v-1.15l-.3-.07c-.15.29-.31.57-.43.87q-7.7 18.7-15.38 37.4a1.46 1.46 0 0 1-1.57 1.1c-3.59 0-3.57 0-5-3.36q-7-16.73-14-33.44c-.29-.69-.56-1.38-.84-2.07h-.32c0 .43-.08.87-.08 1.3v36c0 1.2-.28 1.58-1.53 1.55-3.11-.09-3.11 0-3.11-3.17V88.59c0-1.14.27-1.55 1.46-1.49 1.83.1 3.68.08 5.52 0a1.56 1.56 0 0 1 1.77 1.15q6.44 15.79 12.95 31.54c.55 1.35 1.12 2.69 1.68 4zM251.55 107.52c.93.39 1.65.64 2.32 1a7.86 7.86 0 0 1 4.35 7 31.53 31.53 0 0 1-.49 7.72c-.74 3.88-3.61 6.22-7.75 6.43-4.78.23-9.58.21-14.37.26h-8.87c-.88 0-1.19-.25-1.18-1.15V88.24c0-.83.26-1.11 1.11-1.11 6.56 0 13.11-.06 19.67.06a31 31 0 0 1 6 .92 5 5 0 0 1 3.86 3.71 19.16 19.16 0 0 1 .42 10.14 7.21 7.21 0 0 1-4.1 5c-.28.12-.52.3-.97.56zM239.21 126c2.4 0 4.8.06 7.2 0a21.85 21.85 0 0 0 3.9-.51 3.86 3.86 0 0 0 3.19-3 18.91 18.91 0 0 0-.19-9.56 2.91 2.91 0 0 0-2.31-2.2 25.51 25.51 0 0 0-4.35-.67c-5.12-.08-10.24 0-15.36-.05-.92 0-1.29.24-1.28 1.2v13.68c0 1 .36 1.22 1.28 1.2 2.64-.09 5.28-.09 7.92-.09zm-.33-34.81V91h-7.79c-.77 0-1.08.25-1.07 1v12.94c0 .8.29 1.14 1.13 1.13 5.3-.1 10.62 0 15.91-.31 3.69-.23 4.7-1.21 5.3-4.25a17.15 17.15 0 0 0 .27-5c-.35-3.43-.85-5-4.91-5.31-2.93-.2-5.89 0-8.83 0zM335.45 137.69h4.69v42.68h-7.42c-.31 0-.68-.48-.89-.81q-11.24-18.29-22.44-36.56c-.22-.36-.46-.7-.85-1.31v38.58h-4.72v-42.62c1.89 0 3.8.1 5.69 0a3 3 0 0 1 3.2 1.74c7.29 12.09 14.68 24.12 22 36.17.16.25.34.49.69 1zM105.72 163.09v17.22H101v-42.58c.28 0 .55-.07.81-.07 7.16 0 14.31-.05 21.47.07a17 17 0 0 1 5.11 1c3.25 1.11 4.54 3.83 5.07 7a27 27 0 0 1-.22 9.88c-.66 3.28-3 4.7-6 5.33l-.82.15c.87.21 1.4.32 1.92.47a6 6 0 0 1 4.65 5.74c.24 4.29.06 8.61.06 13h-4.66v-7a35.92 35.92 0 0 0-.38-5.83 5.31 5.31 0 0 0-5.6-4.4h-16.69zm.07-4.29c5.89 0 11.63.11 17.37 0 3.35-.09 5.46-1.84 5.79-4.79a30 30 0 0 0-.08-7.48c-.51-3.51-2.1-4.69-5.73-4.75-5.51-.08-11-.07-16.53-.1a7.19 7.19 0 0 0-.82.09zM259.18 157.2c.21-3.38.28-6.77.66-10.13.57-5 3.41-8 8.36-9a49.09 49.09 0 0 1 20 .16c4.14.89 6 3.76 6.6 7.65a81.88 81.88 0 0 1 .79 18 47.83 47.83 0 0 1-1.47 10.74 6.67 6.67 0 0 1-4.41 4.65 30.45 30.45 0 0 1-9 1.48 53.28 53.28 0 0 1-13.57-.89c-4.14-.86-6.16-3.49-6.87-7.53a103.32 103.32 0 0 1-1.09-15.13zm4.52 1.13c.25 4.35.29 8.12.74 11.83.54 4.51.83 5.47 5.37 6.08a81.32 81.32 0 0 0 11.47.48 32.46 32.46 0 0 0 6-.9 3.63 3.63 0 0 0 3-3.17A43.48 43.48 0 0 0 291 167c.16-4.79.29-9.59.2-14.38a38.86 38.86 0 0 0-.93-7.07 4.21 4.21 0 0 0-3.31-3.28 26.07 26.07 0 0 0-4.45-.79c-4.58-.3-9.18-.51-13.71.51-3 .67-3.83 1.49-4.16 4.56-.43 4.07-.64 8.21-.94 11.77zM322.86 130.49c-2.15-.23-5-.42-7.76-.86-4.3-.68-6.56-3.25-6.91-7.61-.11-1.39-.15-2.78-.25-4.17-.05-.74.27-1 1-1a18 18 0 0 0 2.4 0c.93-.08 1.28.23 1.25 1.21a17.66 17.66 0 0 0 .21 3.33c.54 3.44 1.55 4.44 5 4.8A51.24 51.24 0 0 0 331 126c2.8-.44 3.89-1.19 4.28-4a34.58 34.58 0 0 0 .12-7.71c-.2-2.22-2-3.39-4.83-3.59-3.1-.21-6.21-.29-9.32-.52-2.69-.19-5.41-.27-7.92-1.54a9.11 9.11 0 0 1-4.92-6.83 20.44 20.44 0 0 1 .27-8.07c.75-3.65 3.09-5.67 6.65-6.31a47.55 47.55 0 0 1 17.81.1c3.48.69 5.18 2.89 5.74 6.19.21 1.25.33 2.52.48 3.79.08.62-.1 1-.83 1h-.24c-1.08 0-2.46.33-3.14-.2s-.49-1.95-.63-3c-.38-2.75-1.47-4-4.63-4.44a37.32 37.32 0 0 0-13 .29c-3 .62-4 1.87-4.33 5.57a21.87 21.87 0 0 0 .49 5.68c.45 2.35 2.5 2.73 4.42 2.92 4 .41 7.94.59 11.9 1a38.55 38.55 0 0 1 6.19 1.23c2.89.81 3.78 3.25 4.19 5.87a26.52 26.52 0 0 1-.24 10.1c-.87 3.79-2.8 5.47-6.89 6.08-1.53.23-3.08.36-4.63.5s-2.99.23-5.13.38zM42.77 108.11c.27-4.44.34-7.92.71-11.36.55-5.08 3.24-8 8.26-9.12a47 47 0 0 1 19.69 0c4.49.93 6.41 3.17 7.08 8a87 87 0 0 1 .77 8.91 95.12 95.12 0 0 1-.08 10.63 73.05 73.05 0 0 1-1.57 9.38 5.24 5.24 0 0 1-3.9 4 49 49 0 0 1-7.22 1.45 40.93 40.93 0 0 1-7 .24 59.66 59.66 0 0 1-8.64-1c-4.4-.89-6.28-3.07-6.86-7.89s-.91-9.43-1.24-13.24zm32.55-.85c-.24-3.78-.34-7.13-.7-10.45s-1.74-4.88-5.12-5.55a44.08 44.08 0 0 0-17 0c-3.11.6-4 1.58-4.4 4.66a77.09 77.09 0 0 0-.69 8.32c-.07 4.23 0 8.46.2 12.69a39.77 39.77 0 0 0 .73 5.31 3.86 3.86 0 0 0 3.18 3.3c.66.15 1.31.36 2 .46A56.45 56.45 0 0 0 69 126c3.73-.5 5.07-1.72 5.4-5.46.4-4.54.6-9.13.92-13.28zM215.52 137.69h4.66v18.73h25.09v-18.7h4.65v42.6h-4.62v-1.4-17.28c0-.73-.06-1.18-1-1.17h-23.39c-.19 0-.38 0-.68.07v19.76h-4.71zM179.31 180.37h-4.06c-.69 0-1-.24-1.18-.87-.87-2.48-1.83-4.92-2.69-7.39a1.07 1.07 0 0 0-1.19-.86h-19.91a1.16 1.16 0 0 0-1.27.95c-.8 2.29-1.7 4.55-2.43 6.86a1.6 1.6 0 0 1-2 1.32c-1.15-.1-2.31 0-3.6 0 1.11-3.05 2.17-6 3.25-8.93q6-16.29 11.91-32.59c.32-.87.68-1.29 1.68-1.22 1.59.1 3.2 0 4.79.06a1.36 1.36 0 0 1 1 .66q7.81 20.76 15.54 41.55a4 4 0 0 1 .16.46zm-19.18-38.89l-9.36 26.11h18.86zM93.88 180.37h-4a1 1 0 0 1-1.19-.86c-.85-2.44-1.78-4.85-2.64-7.29a1.23 1.23 0 0 0-1.37-1H65a1.21 1.21 0 0 0-1.39 1c-.79 2.33-1.72 4.62-2.46 7a1.49 1.49 0 0 1-1.8 1.21c-1.19-.08-2.4 0-3.72 0 1.24-3.4 2.44-6.72 3.65-10 3.83-10.46 7.67-20.9 11.46-31.37a1.65 1.65 0 0 1 2-1.34c1.51.11 3 0 4.56.06a1.36 1.36 0 0 1 1 .64q7.78 20.73 15.53 41.58a2.44 2.44 0 0 1 .05.37zm-9.64-12.73l-9.52-26.15-9.38 26.15zM4.63 105.45c.32 4.89.58 9.79 1 14.68.31 3.89 2 5.49 6.37 6.06a49.43 49.43 0 0 0 12.77-.13c3.82-.5 4.81-1.93 5.25-6.15a23.44 23.44 0 0 0 0-3.12c0-.67.25-.94.91-.92h2.76c.63 0 1 .19.94.89-.28 2.57-.44 5.16-.88 7.7-.61 3.55-3.27 4.87-6.46 5.16-4.12.37-8.27.66-12.41.69a35.67 35.67 0 0 1-6.73-.88 8 8 0 0 1-6.88-7 74.3 74.3 0 0 1-1-8c-.21-3.51-.27-7-.24-10.54a70.86 70.86 0 0 1 .51-8.47 8.36 8.36 0 0 1 6.39-7.18 45.43 45.43 0 0 1 7.75-1.27 41.67 41.67 0 0 1 12.37.47c4.1.82 6.11 3.1 6.59 7.28a38.17 38.17 0 0 1 .22 4.41c0 .29-.47.65-.81.83s-.63 0-.95 0c-2.68 0-2.68 0-2.81-2.68a11.85 11.85 0 0 0-.09-1.67c-.67-3.47-1.8-4.44-5.47-4.83a46.15 46.15 0 0 0-13.35.44c-3.73.7-5 2.29-5.28 6.1-.1 1.35-.2 2.7-.24 4.06s0 2.72 0 4.08zM266.12 104.42v-16c0-1 .27-1.38 1.35-1.37 3.14.05 3.14 0 3.14 3.15v26a39.3 39.3 0 0 0 .43 5.23c.37 2.66 1.53 3.92 4.15 4.42a44.37 44.37 0 0 0 12.4.35c1.22-.11 2.44-.31 3.65-.52a4.09 4.09 0 0 0 3.47-3.36 15.9 15.9 0 0 0 .49-3.53q.06-15.17 0-30.34c0-1.09.27-1.54 1.4-1.41a13.29 13.29 0 0 0 2.28 0c.75 0 1 .28 1 1 0 10.59 0 21.19-.06 31.78a17.57 17.57 0 0 1-.83 4.32c-.91 3.39-3.51 4.79-6.68 5.35a48.54 48.54 0 0 1-19-.16c-4.24-.93-6.75-2.94-7-8.79-.27-5.38-.06-10.79-.06-16.19zM195.27 142v38.32h-4.81v-1.39-35.5c0-1.08-.26-1.44-1.39-1.42-4.15.07-8.31 0-12.57 0v-4.26h32.4V142zM88.82 108.56V88.41c0-1 .23-1.4 1.27-1.3.83.08 1.69-.06 2.51.06.31 0 .63.49.82.83s0 .55 0 .83v35.38c0 1.25.41 1.55 1.57 1.54h19.07c1.12 0 1.54.26 1.5 1.45-.08 2.74 0 2.74-2.7 2.74H90.53c-1.71 0-1.71 0-1.71-1.66v-19.72z"/><path class="cls-1" d="M113.75 54.33c0-1.2-.06-2.4 0-3.59a1.3 1.3 0 0 1 .77-.9 3.58 3.58 0 0 1 3.84 1.55 6 6 0 0 1 .16 6 3.46 3.46 0 0 1-4.36 1.37 1.33 1.33 0 0 1-.43-1c-.02-1.11.02-2.27.02-3.43zM302.81 60.42l2.53-6.95 2.45 6.95zM239.92 25v-7.07c0-1 .32-1.43 1.36-1.47 3.4-.11 6.45.63 8.6 3.5s2.32 8.47.47 11.42a6.11 6.11 0 0 1-4.82 3 19.41 19.41 0 0 1-4.15-.2 1.59 1.59 0 0 1-1.38-1.87V25zM92.65 57.88v-6.71c0-.93.29-1.29 1.2-1.36 4.73-.35 9.57 1.85 10.14 7.49a19.27 19.27 0 0 1-.26 5.55 6.08 6.08 0 0 1-5.9 4.88 14.72 14.72 0 0 1-3.78-.3A1.93 1.93 0 0 1 92.89 66c-.11-2.71-.05-5.42-.05-8.13zM150.25 24.31a32.59 32.59 0 0 1 .69-3.86 6.09 6.09 0 0 1 10-2.84 9.69 9.69 0 0 1 3.25 7.08 17.66 17.66 0 0 1-.29 4.52c-.53 2.73-1.94 4.9-4.94 5.3a6.72 6.72 0 0 1-6.61-3 12.42 12.42 0 0 1-2.1-7.2zM233.5 59.44c-.2 1.25-.32 2.53-.63 3.75-.6 2.36-1.89 4.15-4.46 4.6a6.51 6.51 0 0 1-6.24-2.23c-2.8-3.11-3.47-9.41-1.49-13.11 2.07-3.87 7.59-4.11 10.48-.45a12.14 12.14 0 0 1 2.34 7.44zM112.88 27.12h-5l2.55-7z"/></svg>