<svg id="Layer_1" data-name="Layer 1" xmlns="http://www.w3.org/2000/svg" viewBox="0 0 1590 318.5"><defs><style>.cls-1{fill:#fff}</style></defs><path class="cls-1" d="M0 221.5c1.23-4.59 2.86-9.11 3.63-13.77q5.3-31.93 10.17-63.94c2-13.12 3.62-26.29 5.62-39.41 1.88-12.29 4.15-24.53 6-36.82 2.73-17.7 5.38-35.41 7.83-53.15.57-4.1 2.19-5.77 6.38-5.71 11.66.16 23.33.17 35 0 3.11-.06 4.51 1.38 5.62 3.81q14.17 30.87 28.38 61.72 19.75 42.81 39.56 85.59c2.66 5.77 5.25 11.57 7.87 17.35l1.77-.13a35.22 35.22 0 0 0 1.8-5.7q5.15-36.21 10.11-72.45c2-14.64 3.64-29.32 5.61-44 1.86-13.8 4-27.57 5.9-41.37.5-3.59 2-5 5.87-4.88 9.8.28 19.61.09 30 .09-.93 7.78-1.61 15.15-2.72 22.45-1.32 8.68-3.09 17.29-4.49 26q-3.46 21.36-6.69 42.76c-2.64 17.54-5.11 35.1-7.75 52.64-1.6 10.64-3.35 21.27-5.06 31.89-1.87 11.6-3.82 23.19-5.65 34.8-1.08 6.86-1 6.88-8.1 6.88-10 0-20 .15-30-.16a7.08 7.08 0 0 1-5.18-3.21c-9.58-19.46-18.93-39-28.24-58.62C101.08 138.45 89 112.72 76.75 87c-4.13-8.68-8.41-17.29-12.68-25.91a42 42 0 0 0-2.79-4.07c-1 2.41-1.91 3.78-2.1 5.24-1.91 14.29-3.61 28.62-5.56 42.91-2.49 18.23-5.23 36.42-7.75 54.65-2.12 15.28-4.08 30.58-6.11 45.87-.76 5.45-1.39 10.89-2.16 16.31-.46 3.25-2.5 4.18-5.66 4.18-10.65 0-21.29.2-31.94.33zM1479 4.5c4.53 1.15 9 2.38 13.59 3.43 9.51 2.19 19 4.28 28.57 6.42 2.85.64 4.34 1.78 3.18 5.22-3.45 10.17-6.59 20.44-10 31-7.13-2.56-13.55-5.21-20.17-7.16-14.38-4.24-28.85-8-44-4.08-9 2.34-16.6 7-21.87 14.57-6.25 9-6.59 18.9 2.8 28.34 7.14 7.18 15.73 13.06 24.17 18.79 12.27 8.34 25.94 14.36 36.87 25 20.1 19.49 19.87 45.8 8.7 67.2s-30.4 31.06-53.06 35c-20 3.48-39.77 1.63-59.28-3.54-9.46-2.51-18.84-5.33-28.27-8-3.34-.94-4.58-2.22-2.85-6.05 3.88-8.62 7.28-17.46 10.55-26.34 1.16-3.15 2.69-3.12 5.3-2.14 11.3 4.26 22.43 9.17 34 12.39 18.38 5.1 36.45 4.92 50.94-10 10.74-11.06 13.21-25.73-.28-36.41-9.16-7.26-18.74-14-28.5-20.47-14.49-9.57-29.51-18.27-40.36-32.47-8.6-11.26-11-23.56-7.73-37 5.81-24 21.82-38.62 44.38-46.79 5.6-2 11.47-3.28 17.17-5A14.34 14.34 0 0 0 1446 4.5zM704 318.5l-10.48-24c-.59-1.35-1.13-2.73-1.84-4-1.55-2.81-.05-3.68 2.39-4.62 9.57-3.68 19.35-7 28.52-11.5 19.27-9.53 31.82-25.41 38-45.66 4.33-14.22 7.13-29 9.69-43.66 4.15-23.7 7.63-47.52 11.22-71.31 2.75-18.2 5.15-36.45 7.87-54.65 2-13.29 4.26-26.53 6.4-39.79.08-.49.14-1 .2-1.49C797 8.73 797 8.73 806 8.74h23.5c1.6 0 3.21.17 5.41.29-1.29 9.06-2.45 17.55-3.72 26q-2.11 14-4.39 28c-2.1 12.92-4.32 25.83-6.41 38.76-1.88 11.64-3.65 23.3-5.46 34.95-2.06 13.27-4.06 26.55-6.19 39.8-1.92 11.94-3.95 23.87-6 35.79-5.43 31.47-18.39 58.94-43.14 80a116.4 116.4 0 0 1-46 23.71c-1.63.43-3.06 1.6-4.58 2.43zM279.81 226.12c2-13 3.79-24.93 5.59-36.86 2.67-17.71 5.22-35.44 8-53.14 2.63-16.68 5.59-33.3 8.23-50 2-12.47 3.65-25 5.49-37.49 1.79-12.15 3.51-24.31 5.57-36.41.23-1.34 2.38-2.58 3.89-3.41.9-.49 2.28-.1 3.45-.1H442.2c-1.71 10.22-3.09 19.68-5.07 29-.27 1.27-3.51 2.69-5.39 2.71-16.66.21-33.32.12-50 .12-10.5 0-21 .11-31.48-.06-3.8-.06-5 1.3-5.5 5.13-1.76 13.39-4.14 26.6-6.18 39.88-.63 4.08-.9 8.21-1.42 13.12h74c-1.09 7.81-2 14.74-3 21.66-.12.81-.56 1.57-.7 2.38-1.49 8.41-1.48 8.41-9.88 8.41-20 0-40 .14-60-.1-5-.06-6.39 1.64-7 6.44-1.68 12.79-4.17 25.47-6.19 38.21-.9 5.7-1.46 11.46-2.25 17.82 2.44.11 4.36.28 6.28.28h81.46c6.27 0 6.53.2 5.78 6.58-.87 7.41-2.07 14.78-2.93 22.19-.32 2.75-1.53 3.72-4.21 3.63-4-.13-8 0-12 0H279.81zM1030.77 98.83c-1.61 10.4-3.05 19.86-4.57 29.31-.58 3.65-3.56 2.89-5.93 2.9q-30.24.06-60.47 0a37.52 37.52 0 0 1-4 0c-3.59-.39-5.2 1.44-5.66 4.75-1.83 13-3.62 26-5.56 38.94-.9 6-2.13 12-3.35 18.75h93.41a30.18 30.18 0 0 1 .36 4.52c-.74 7.93-1.5 15.87-2.43 23.79-.31 2.63-1.42 4.44-4.82 4.43-41.48-.1-83-.07-124.44-.09a26.06 26.06 0 0 1-3.87-.74L933.08 8.73h121.43c6.92 0 7.07 0 6.16 7s-2.21 14.1-3.24 21.15c-.52 3.53-2.79 3.8-5.75 3.79-26.82-.08-53.64.1-80.46-.17-5.22-.09-6.53 2.18-7.22 6.5q-3.28 21.87-6.91 43.69c-1.19 7.2-.59 8.12 6.62 8.13h60.47zM1145 40.59c1.49-10.08 2.88-19.34 4.23-28.61.4-2.76 2.14-3.31 4.62-3.27 7 .1 14 0 21 0h135.45c7.05 0 7 0 5.89 6.84-1 6.21-1.88 12.44-2.52 18.69-.45 4.37-2.11 6.43-6.92 6.37-17.82-.22-35.65 0-53.48-.16-4.42 0-6.27 1-6.94 5.88-2.34 17.09-5.51 34.06-8.14 51.11-2.65 17.21-4.94 34.48-7.57 51.69-3 19.82-6.27 39.62-9.42 59.42-.73 4.59-1.74 9.16-2.17 13.78-.29 3.13-1.7 3.81-4.51 3.78q-14.49-.17-29 0c-3.62 0-4.58-1.05-3.87-4.76 1.74-9.13 3-18.34 4.48-27.52 2.05-12.77 4.15-25.53 6.17-38.31 2-12.45 3.83-24.93 5.81-37.38 2.79-17.52 5.68-35 8.46-52.54 1.09-6.88 1.75-13.84 3-20.68.81-4.27-1.51-4.39-4.46-4.39h-39zM534.35 9.11H702c-1.72 10.08-3.21 19.71-5.22 29.23-.23 1.07-3.4 2.14-5.22 2.16-17.83.16-35.66.09-53.49.1-6.79 0-6.47.06-7.45 6.83-1.87 13-4.2 25.84-6.25 38.77-1.85 11.64-3.6 23.3-5.36 35-2 13.27-3.94 26.56-6 39.82-2 12.94-4.06 25.87-6.11 38.81-1.22 7.67-2.31 15.37-3.84 23a5.14 5.14 0 0 1-3.69 3.2c-9.82.27-19.66.09-29.49.19-2.77 0-4.07-.79-3.59-3.76 2.43-15.06 4.88-30.12 7.19-45.19 2-13.12 3.78-26.28 5.79-39.41 1.86-12.12 4-24.21 5.84-36.33 2.77-17.88 5.44-35.78 8.15-53.67a8.65 8.65 0 0 1 .35-2.46c2.24-4.53-.7-4.74-3.88-4.74h-56.49c-2.09 0-4.21 0-3.67-3.17 1.6-9.4 3.15-18.72 4.78-28.38z"/><circle cx="1567.75" cy="22.25" r="21.25" fill="none" stroke="#fff" stroke-miterlimit="10" stroke-width="2"/><path class="cls-1" d="M1566.45 20.33a4.33 4.33 0 0 0 2.86-.77 3 3 0 0 0 .89-2.45 3 3 0 0 0-.89-2.43 4.49 4.49 0 0 0-2.86-.72h-2.69v6.36h2.69m-2.69 4.39v9.36h-6.39V9.33h9.75c3.27 0 5.64.55 7.16 1.66s2.28 2.81 2.28 5.19a6.53 6.53 0 0 1-1.18 4 6.8 6.8 0 0 1-3.58 2.31 4.92 4.92 0 0 1 2.35 1.37 11.81 11.81 0 0 1 2.09 3.19l3.48 7h-6.8l-3-6.15a6.62 6.62 0 0 0-1.85-2.52 4.16 4.16 0 0 0-2.5-.7h-1.8"/></svg>