<svg width="238" height="310" xmlns="http://www.w3.org/2000/svg" xmlns:xlink="http://www.w3.org/1999/xlink"><use xlink:href="#path0_fill" transform="matrix(2 0 0 2 0 194.08)" fill="#FFF"/><use xlink:href="#path1_fill" transform="matrix(2 0 0 2 88.4 276.88)" fill="#FFF"/><use xlink:href="#path2_fill" transform="matrix(2 0 0 2 26 0)" fill="#FFF"/><use xlink:href="#path3_fill" transform="matrix(2 0 0 2 98.8 122.92)" fill="#FFF"/><use xlink:href="#path4_fill" transform="matrix(2 0 0 2 93.6 46.58)" fill="#FFF"/><use xlink:href="#path5_fill" transform="matrix(2 0 0 2 66.2 126.8)" fill="#FFF"/><defs><path id="path0_fill" fill-rule="evenodd" d="M32.112 29.502c1.6-3.022 2.4-6.667 2.4-10.964v.002-.003.001c0-2.847-.366-5.414-1.102-7.703-.715-2.286-1.818-4.228-3.246-5.85-1.471-1.595-3.289-2.826-5.496-3.711C22.482.43 19.928 0 16.985 0c-2.92 0-5.473.409-7.616 1.272-2.142.863-3.895 2.094-5.3 3.71C2.682 6.606 1.664 8.548.994 10.835.324 13.122 0 15.69 0 18.538c0 2.87.324 5.439.973 7.772.649 2.308 1.644 4.293 3.009 5.955 1.362 1.662 3.115 2.936 5.257 3.823 2.143.906 4.696 1.358 7.703 1.358.239 0 .455 0 .693-.02.216-.025.476-.025.735-.025l.402.674c3.895 6.547 8.908 14.974 24.03 14.974v-6.756c-10.064 0-14.888-4.748-17.983-10.274 3.245-1.36 5.692-3.54 7.293-6.517zm-5.064-10.965c0-2.223-.195-4.208-.562-6-.412-1.77-.996-3.258-1.818-4.487a8.145 8.145 0 0 0-3.138-2.808c-1.276-.65-2.77-.972-4.522-.972-1.537 0-2.965.15-4.284.495-1.321.325-2.36.8-3.139 1.404-.779.604-1.319 1.941-1.688 4.014-.367 2.05-.54 4.833-.54 8.354 0 2.178.173 4.185.476 5.954.324 1.792.866 3.304 1.579 4.62a7.91 7.91 0 0 0 2.965 3c1.233.711 2.77 1.056 4.588 1.056 1.881 0 3.419-.172 4.651-.517 1.212-.345 2.25-.82 3.095-1.403.41-.26.736-.777 1.039-1.575.303-.776.54-1.748.736-2.913.194-1.144.346-2.44.433-3.842.086-1.424.13-2.89.13-4.38zm16.077-4.533v14.871c0 1.467.239 2.548.692 3.238.456.711 1.255 1.056 2.36 1.056.41 0 .843-.043 1.319-.172.497-.136.989-.294 1.471-.475.499-.193.996-.431 1.451-.668.453-.259.886-.518 1.276-.822V12.514h6.99v24.412h-6.232l-.628-2.848h-.087l-.17.108-.002.002c-.438.279-.946.602-1.536.926-.693.388-1.408.756-2.187 1.121-.8.353-1.624.65-2.467.886-.865.214-1.708.345-2.53.345a7.296 7.296 0 0 1-2.597-.456 6.205 6.205 0 0 1-2.12-1.337c-.607-.604-1.083-1.358-1.452-2.265-.366-.928-.54-1.964-.54-3.151V14.5c.263-.015.605-.024 1.015-.035h.005c1.383-.038 3.535-.096 5.969-.462zm25.166 3c.173-.452.347-.734.52-.884v-.001a3.625 3.625 0 0 1 1.168-.561c.41-.087.821-.15 1.276-.15a2.256 2.256 0 0 1 1.622.626c.476.41.845.95 1.148 1.574.317.666.55 1.37.692 2.094.153.734.269 1.476.347 2.223l-7.66.367c0-.604.043-1.23.108-1.878a21.84 21.84 0 0 1 .324-1.857c.13-.604.283-1.121.455-1.553zm3.83-5.01c1.168 0 2.294.155 3.398.5a8.195 8.195 0 0 1 3.03 1.66c.93.777 1.73 1.813 2.4 3.13.672 1.317 1.191 2.934 1.537 4.901v.3c-.234.32-.528.591-.865.8-.346.238-.823.454-1.407.604-.584.172-1.299.345-2.142.497-.865.131-1.86.259-3.073.328l-7.703.604v1.035c0 1.899.497 3.452 1.515 4.704 1.016 1.251 2.53 1.878 4.521 1.878.823 0 1.688-.087 2.597-.26a36.78 36.78 0 0 0 2.554-.603c.681-.203 1.315-.42 1.916-.627l.313-.107c.67-.238 1.19-.454 1.535-.649l.606 1.791c-.735.562-1.578 1.122-2.51 1.727a18.717 18.717 0 0 1-2.986 1.598c-1.06.474-2.164.863-3.353 1.165-1.188.303-2.41.456-3.635.455-1.471 0-2.813-.215-4.091-.647a8.54 8.54 0 0 1-3.246-2.074c-.908-.95-1.622-2.18-2.163-3.734-.52-1.532-.8-3.388-.8-5.592 0-2.437.303-4.53.909-6.236.605-1.705 1.471-3.085 2.553-4.121a9.818 9.818 0 0 1 3.83-2.266 15.484 15.484 0 0 1 4.76-.711v-.05zm28.715 20.316c.583-.884.865-2.006.865-3.387v-.044c0-1.424-.282-2.569-.888-3.456a7.45 7.45 0 0 0-2.25-2.157 14.973 14.973 0 0 0-2.92-1.36 207.575 207.575 0 0 1-2.922-1.036c-.91-.345-1.645-.713-2.25-1.144-.584-.432-.887-.993-.887-1.748 0-.368.02-.734.13-1.08.086-.345.216-.56.367-.669.243-.112.497-.2.758-.259.323-.064.779-.086 1.385-.086a9.066 9.066 0 0 1 1.622.131 21.3 21.3 0 0 1 1.84.368l.33.088.6.162.03.008a338.53 338.53 0 0 0 .965.26c.41.122.802.244 1.177.361h.001c.22.07.432.136.64.2l.758-4.793a116.337 116.337 0 0 0-3.571-.432 35.68 35.68 0 0 0-3.614-.195c-1.34 0-2.552.195-3.57.56-1.043.375-2 .954-2.813 1.704-.714.605-1.342 1.385-1.925 2.313-.586.95-.866 1.876-.866 2.848 0 1.446.28 2.611.886 3.497a7.469 7.469 0 0 0 2.25 2.181c.908.57 1.882 1.026 2.9 1.36.343.123.68.242 1.01.358h.002c.652.23 1.278.449 1.867.678a9.13 9.13 0 0 1 2.25 1.208c.584.454.887 1.079.887 1.878 0 .69-.043 1.251-.173 1.748-.13.497-.303.82-.54 1.015-.283.216-.65.345-1.083.432a7.724 7.724 0 0 1-1.45.127 7.99 7.99 0 0 1-2.271-.345 13.979 13.979 0 0 1-2.12-.821 22.897 22.897 0 0 1-1.905-1.1c-.605-.386-1.168-.756-1.688-1.06l-1.71 4.557a12.541 12.541 0 0 0 3.982 1.726c1.428.366 2.986.538 4.717.538.835.009 1.67-.07 2.489-.234a8.968 8.968 0 0 0 1.904-.627 9.42 9.42 0 0 0 1.515-.928c.453-.346.886-.69 1.276-1.036a9.88 9.88 0 0 0 2.013-2.31zm3.57-16.424l-2.618-.863v-1.467l7.487-5.311h1.904l.087 4.273h7.421l-.326 2.698-.033.005h-.001c-.534.086-1.194.191-1.977.254-.822.086-1.579.152-2.337.195-.866.086-1.774.172-2.683.236V29.61c0 .886.152 1.597.476 2.203.325.604.975.883 1.99.883l.122-.001c.092-.002.195-.005.308-.01l.393-.019.26-.013c.455-.02.908-.064 1.407-.13.211-.027.419-.05.623-.073h.002a26.103 26.103 0 0 0 1.253-.164l.138-.02c.221-.034.425-.064.601-.087v2.007c-.583.367-1.255.756-2.033 1.144-.757.368-1.579.735-2.445 1.018-.845.3-1.731.56-2.597.732-.816.184-1.651.278-2.489.28a9.839 9.839 0 0 1-1.795-.173 4.151 4.151 0 0 1-1.58-.69 3.447 3.447 0 0 1-1.104-1.447c-.282-.624-.412-1.423-.412-2.438V15.865l-.042.02z"/><path id="path1_fill" fill-rule="evenodd" d="M26.406 11.52h1.938V0l-1.938.384V11.52zm-5.252.146c-.753 0-1.42-.128-1.937-.386a3.42 3.42 0 0 1-1.314-1.087 4.899 4.899 0 0 1-.733-1.665 9.44 9.44 0 0 1-.236-2.157c0-.64.086-1.215.217-1.706.15-.512.345-.939.603-1.322.243-.363.54-.687.883-.96.323-.255.689-.49 1.077-.64.367-.17.754-.277 1.142-.363a7.204 7.204 0 0 1 1.48-.103c.127.002.257.007.393.018.28-.02.54 0 .775.043.259.022.474.042.69.085.125.014.241.037.342.057h.005l.049.01.039.008.06.01-.365 1.45c-.129-.04-.322-.085-.56-.148l-.386-.063-.073-.012-.128-.02-.094-.015-.115-.018c-.279-.042-.537-.085-.816-.106-.259-.04-.497-.04-.669-.04h-.537a19.4 19.4 0 0 0-.431.063c-.13.042-.238.085-.367.15-.107.065-.236.13-.345.215-.301.213-.517.617-.624 1.215-.106.597-.15 1.344-.15 2.24 0 1.368.216 2.412.604 3.117.41.705 1.056 1.046 1.981 1.046 1.053-.003 2.1-.17 3.102-.491v.853a5.846 5.846 0 0 1-.819.298 5.598 5.598 0 0 1-.904.236c-.307.062-.615.112-.926.15l-.07.005-.086.005c-.26.017-.496.033-.748.033l-.009-.005zM.732 5.667L0 5.434v-.406l2.11-1.472h.54l.022 1.194h2.09l-.086.747a23.75 23.75 0 0 1-.582.065l-.057.006c-.214.02-.412.039-.61.039h-.011a9.67 9.67 0 0 0-.742.085v3.819c0 .233.043.448.13.619.086.17.28.256.56.256h.066l.038-.002a1.624 1.624 0 0 0 .197-.02h.03l.015-.001.088-.005.06-.005.072-.005.025-.002h.018l.014-.001.022-.001h.044c.129-.023.28-.023.41-.043.13-.023.237-.043.324-.043v.554c-.15.064-.345.171-.56.277a5.13 5.13 0 0 1-.69.276 4.12 4.12 0 0 1-.732.213 4.05 4.05 0 0 1-.69.086c-.171 0-.344-.022-.494-.043a1.107 1.107 0 0 1-.451-.213.845.845 0 0 1-.302-.406 1.448 1.448 0 0 1-.129-.662V5.665l-.007.003zM7.68 8.115c0 .896.106 1.535.322 1.962.215.427.58.62 1.077.62.18 0 .343-.02.504-.04l.033-.003c.173-.022.324-.086.431-.15.066-.043.13-.128.195-.277.068-.172.118-.351.15-.534a5.97 5.97 0 0 0 .086-.725c.022-.278.022-.555.022-.853 0-.875-.108-1.515-.324-1.942a1.11 1.11 0 0 0-1.056-.641c-.188 0-.376.02-.56.063a1.05 1.05 0 0 0-.453.17c-.086.045-.152.13-.217.28a4.88 4.88 0 0 0-.13.533l-.008.085-.005.044-.005.051a39.737 39.737 0 0 0-.047.524c-.022.277-.022.553-.022.831l.007.002zm-1.15 2.643c.603.597 1.443.896 2.563.896l-.004-.004c.56 0 1.056-.085 1.487-.256.411-.144.78-.386 1.077-.703a2.97 2.97 0 0 0 .646-1.109c.15-.449.216-.94.216-1.472 0-1.132-.281-2.009-.862-2.623-.582-.599-1.444-.897-2.585-.897-.56 0-1.054.085-1.485.256-.43.172-.796.406-1.077.704a3.15 3.15 0 0 0-.644 1.11c-.15.45-.216.917-.216 1.474 0 1.151.302 2.027.884 2.624zm25.959-5a.672.672 0 0 0-.13.233 4.91 4.91 0 0 0-.13.426c-.042.17-.065.341-.085.512-.023.17-.043.363-.043.512l2.153-.106-.016-.13-.013-.103a5.058 5.058 0 0 0-.057-.364 3.6 3.6 0 0 0-.215-.577 1.177 1.177 0 0 0-.302-.447.603.603 0 0 0-.453-.17c-.129 0-.258 0-.365.042a.736.736 0 0 0-.324.149.95.95 0 0 0-.02.022zm1.895-1.027a2.868 2.868 0 0 0-.948-.148l.02.002c-.473 0-.925.063-1.335.192-.408.13-.775.343-1.077.642-.301.299-.537.683-.71 1.152-.172.469-.258 1.046-.258 1.728 0 .62.064 1.131.215 1.558.15.447.345.788.604 1.044.255.255.564.451.904.577.7.21 1.446.225 2.154.04.344-.064.646-.192.947-.32.302-.128.581-.278.84-.449.258-.17.496-.32.689-.469l-.13-.534c-.063.025-.135.059-.224.095-.06.024-.128.05-.206.076-.193.085-.408.15-.624.213a5.661 5.661 0 0 1-.711.17 2.934 2.934 0 0 1-.733.086c-.56 0-.99-.17-1.27-.512-.28-.341-.43-.768-.43-1.302v-.276l2.153-.17c.323-.023.604-.044.84-.086.205-.03.407-.08.603-.15a1.498 1.498 0 0 0 .41-.149l.015-.015.014-.013.054-.05.002-.001.058-.054a.834.834 0 0 0 .093-.102V7.42c-.107-.534-.236-1.003-.43-1.365a3.134 3.134 0 0 0-.668-.875 2.383 2.383 0 0 0-.861-.449zm6.94 5.467c0-.004 0-.012-.002-.021l.002-.001v.022zm-.002-.021c-.005-.037-.019-.108-.019-.192 0-.058-.004-.12-.009-.188-.006-.084-.013-.176-.013-.281 0-.092-.004-.188-.008-.29a8.371 8.371 0 0 1-.01-.35v-.748c-.475 0-.843.021-1.078.086-.238.043-.387.107-.453.193a.255.255 0 0 0-.062.17.794.794 0 0 0-.043.256.921.921 0 0 0-.02.148c-.004.057-.004.115-.004.171-.02.108-.02.193-.02.278 0 .299.042.555.128.746.087.193.214.278.431.278.214 0 .407-.02.603-.085a3.15 3.15 0 0 0 .577-.192zm3.104.192c-.302.085-.517.128-.69.128l-.001.022c-.366 0-.538-.364-.538-1.089V6.294c0-.32-.041-.599-.127-.812a1.39 1.39 0 0 0-.367-.532 1.716 1.716 0 0 0-.604-.277 3.168 3.168 0 0 0-.82-.085c-.279 0-.56.022-.818.065a5.846 5.846 0 0 1-.19.043l-.078.017-.005.001-.133.029a4.01 4.01 0 0 0-.39.103c-.11.026-.219.061-.328.099l-.19.066c-.085.031-.172.062-.258.09a5.246 5.246 0 0 1-.219.093l-.149.058-.131.052a5.405 5.405 0 0 0-.231.096l.258.705a4.912 4.912 0 0 1 1.012-.299c.324-.065.603-.085.861-.085.345 0 .583.063.73.193.153.128.216.341.216.597v.981l-1.182.02a4.571 4.571 0 0 0-1.189.15c-.3.106-.579.234-.775.405a1.41 1.41 0 0 0-.448.662c-.086.256-.13.555-.13.918 0 .66.15 1.174.452 1.493.324.32.733.491 1.272.491.218-.004.436-.033.648-.085a2.658 2.658 0 0 0 .56-.193c.172-.085.344-.17.492-.278.17-.102.337-.209.5-.32.02.107.086.192.15.298.034.055.074.105.117.152.038.043.08.084.12.124l.029.021c.081.06.179.132.292.17.143.064.298.093.453.086.173 0 .345-.02.517-.063a4.284 4.284 0 0 0 .493-.15c.039-.022.077-.042.115-.061l.001-.001.002-.001a3.08 3.08 0 0 0 .241-.138.965.965 0 0 0 .072-.055 1.735 1.735 0 0 0 .218-.148 1.876 1.876 0 0 0 .17-.151v-.47zm5.455 1.148v-4.54c0-.406-.066-.705-.195-.896-.13-.193-.344-.299-.668-.299-.124.005-.246.02-.367.043l-.198.061a18.044 18.044 0 0 0-.212.067l-.036.017a4.503 4.503 0 0 1-.047.023l-.123.056c-.07.032-.14.064-.204.095a3.874 3.874 0 0 1-.145.09c-.065.04-.129.077-.187.12a1.052 1.052 0 0 0-.034.026v5.14h-1.938V4.737h1.743l.173.788h.02c.161-.107.326-.207.495-.3l.02-.012a4.08 4.08 0 0 1 .604-.287 2.234 2.234 0 0 1 .29-.12l.188-.064.21-.072c.232-.067.47-.103.71-.108.26 0 .497.043.733.128.172.106.386.234.558.384.152.171.302.384.388.64.107.256.172.534.172.875v4.928h-1.95zm0 0v.004l-.004-.004h.004zM65.015 9.37c.194-.449.28-.918.28-1.43V1.345l-1.96-.023v6.894c0 .447-.021.83-.087 1.151-.043.321-.172.555-.387.705a2.25 2.25 0 0 1-.753.362 3.915 3.915 0 0 1-1.077.128c-.345 0-.646-.02-.905-.063-.28-.065-.496-.15-.668-.321-.193-.149-.323-.384-.409-.683-.086-.298-.129-.704-.129-1.216V1.345h-1.982v6.722c0 .683.087 1.239.28 1.686.194.469.453.832.797 1.109.361.302.79.514 1.25.62a6.197 6.197 0 0 0 1.614.192c.652.008 1.3-.094 1.918-.3.538-.213 1.011-.47 1.378-.81.366-.342.647-.746.84-1.195zm7.026-1.368c0-.748-.13-1.302-.365-1.666a1.163 1.163 0 0 0-1.012-.532c-.415 0-.827.087-1.206.256v4.458c.14.04.28.062.403.081l.028.004c.152.023.302.023.453.023.237 0 .474-.023.69-.065a1.08 1.08 0 0 0 .473-.213c.131-.128.238-.384.345-.768.13-.449.194-.96.194-1.578h-.003zm-2.603-2.704c.274-.187.547-.353.84-.497.302-.15.647-.214 1.034-.214.354-.003.705.06 1.034.188.324.11.626.3.884.58.259.256.453.597.603 1.024.172.426.238.938.238 1.556 0 .577-.087 1.109-.259 1.558-.15.469-.388.853-.71 1.174a2.902 2.902 0 0 1-1.12.725 4.186 4.186 0 0 1-1.686.248c-.119-.008-.235-.022-.36-.035-.194-.022-.366-.065-.495-.085 0 .063 0 .17.023.341 0 .17.022.32.022.491v3.498l-1.961.324V4.93l1.723-.3.19.668z"/><path id="path2_fill" fill-rule="evenodd" d="M45.855 18.448c18.685-2.537 35.917 10.468 38.45 29.014 2.556 18.552-10.543 35.661-29.248 38.176-18.682 2.535-35.915-10.467-38.449-29.018-2.532-18.546 10.565-35.635 29.25-38.172h-.002zM41.03.435c25.956-3.502 49.856 14.532 53.386 40.303 1.601 11.628-1.17 22.892-7.209 31.983-15.24 22.98-44.424 34.435-63.108 35.317 12.21-3.654 21.26-12.833 14.31-14.703C18.994 89.593 3.25 73.99.44 53.461-3.093 27.691 15.072 3.963 41.029.457l.001-.022z"/><path id="path3_fill" fill-rule="evenodd" d="M7.27 3.297c1.688.76 4.38 1.459 8.036.76C15.264 2.432 14.43.867 13.212.38c-.342.254-1.069.401-1.881.339C10.411.654 9.664.359 9.428 0c-1.433.443-1.754 1.67-2.16 3.297h.002zm-.238 1.205C6.754 9.45 6.07 15.772 0 15.582c6.027 3.085 16.264.676 15.56-10.297-1.625.212-5.323.507-8.53-.783h.002z"/><path id="path4_fill" fill-rule="evenodd" d="M19.745.026h2.917v3.481c.583.023 1.167.066 1.75.13 1.966.195 3.867.498 5.702.841l-1.49 7.24c-.843-.321-1.814-.601-2.873-.902-1.015-.278-2.052-.495-3.089-.71v14.23c.864.405 1.729.859 2.57 1.33a14.815 14.815 0 0 1 3.543 2.79c1.037 1.096 1.88 2.45 2.506 4.039 3.586 8.963-1.274 15.495-8.641 18.547v5.241h-2.916V52.03c-1.232.344-2.528.58-3.824.753 1.728-1.16 2.851-3.224 3.067-6.534.26-.063.519-.129.778-.215V33.912a22.055 22.055 0 0 0-1.749-.88c-.738-.329-1.494-.64-2.282-.964l-.267-.11v5.802c-.022.299-.67.536-1.448.536-.778 0-1.426-.237-1.447-.538v-6.942a24.802 24.802 0 0 1-5.185-2.73 14.369 14.369 0 0 1-4.104-4.405c-5.25-8.421.928-16.697 9.267-19.426V0h2.917v3.545a18.025 18.025 0 0 1 2.852-.234c.495 0 .97 0 1.446.021V.026zm0 23.056V9.63l-.562-.063a17.045 17.045 0 0 0-3.736-.066v11.82c.496.235 1.037.473 1.599.687.78.304 1.58.625 2.38.946l.319.128zm-7.215-12.85c-3.846 1.74-3.76 5.953 0 9.176v-9.176zM22.662 36.13v8.42c2.593-2.04 3.045-5.306 0-8.42zM0 49.667c1.01.506 2.033.986 3.068 1.439v.001c4.17 1.911 4.968-1.289 5.51-5.74a32.026 32.026 0 0 1-3.566-1.46c-1.123-.516-2.008-1.009-2.679-1.481L0 49.667z"/><path id="path5_fill" fill-rule="evenodd" d="M41.523 9.1c.39 0 .717.326.717.715a.72.72 0 0 1-.717.714.72.72 0 0 1-.714-.714.72.72 0 0 1 .714-.712V9.1zm3.47 4.33a.364.364 0 0 1 .37.366.362.362 0 0 1-.37.368.365.365 0 0 1-.368-.368.363.363 0 0 1 .368-.367zm1.518-5.386c1.3 0 2.364 1.06 2.364 2.357a2.368 2.368 0 0 1-2.364 2.359 2.365 2.365 0 0 1-2.363-2.357 2.364 2.364 0 0 1 2.363-2.355v-.004zm-3.123 8.069c.39 0 .717.325.717.714a.72.72 0 0 1-.717.714.72.72 0 0 1-.714-.714.72.72 0 0 1 .714-.714zm-5.507-5.124a.365.365 0 0 1 .369.363.362.362 0 0 1-.37.37.365.365 0 1 1 0-.731v-.002zm8.37-7.186a.365.365 0 0 1 .369.368.363.363 0 0 1-.37.366.365.365 0 0 1-.367-.366.363.363 0 0 1 .367-.368zM51 9.793a.365.365 0 0 1 .368.37.362.362 0 0 1-.368.366.365.365 0 0 1-.37-.366.363.363 0 0 1 .37-.369v-.001zm-2.885-4.365c.65 0 1.194.519 1.194 1.19a1.202 1.202 0 0 1-1.194 1.19 1.202 1.202 0 0 1-1.192-1.189c0-.648.52-1.19 1.192-1.19v-.001zm-37.339 1.58a2.367 2.367 0 0 1 2.364 2.357 2.368 2.368 0 0 1-2.364 2.36 2.365 2.365 0 0 1-2.363-2.358 2.364 2.364 0 0 1 2.363-2.355v-.003zm2.581 5.15c.65 0 1.192.519 1.192 1.19 0 .648-.52 1.19-1.192 1.19a1.192 1.192 0 0 1-1.193-1.19c0-.649.52-1.19 1.193-1.19zm0-7.136a.72.72 0 0 1 .715.714.72.72 0 0 1-.715.714.72.72 0 0 1-.716-.714c0-.39.326-.714.716-.714zm3.34 6.617a.72.72 0 0 1 .714.715.72.72 0 0 1-.715.712.72.72 0 0 1-.716-.714c0-.391.326-.714.716-.714v.001zm-8.61.88a.365.365 0 0 1 .37.367.362.362 0 0 1-.37.367.364.364 0 0 1-.368-.369.362.362 0 0 1 .368-.368v.004zm.39-7.075a.365.365 0 0 1 .37.368.363.363 0 0 1-.37.368.365.365 0 0 1-.367-.368.362.362 0 0 1 .367-.367v-.001zM5.898 6.893c.65 0 1.192.518 1.192 1.19 0 .648-.52 1.189-1.192 1.189a1.192 1.192 0 0 1-1.193-1.188c0-.648.52-1.19 1.193-1.19v-.001zm10.148 7.83a.365.365 0 0 1 .368.368.362.362 0 0 1-.368.366.365.365 0 0 1-.37-.366.362.362 0 0 1 .37-.368zm-5.747-12.26a1.188 1.188 0 1 1 0 2.377 1.192 1.192 0 0 1-1.192-1.188c0-.65.52-1.19 1.192-1.19zm42.306 6.27c.37-.003.668-.301.671-.67a.675.675 0 0 0-.671-.669.676.676 0 0 0-.673.671c0 .39.303.671.673.671v-.003zM51.41 5.926c.868 0 1.561-.692 1.561-1.556 0-.865-.693-1.557-1.56-1.557-.868 0-1.562.692-1.562 1.557 0 .864.694 1.556 1.561 1.556zm3.817-2.746a.651.651 0 1 0-.65-.652c0 .367.303.649.65.649v.003zm-6.613-.003a.32.32 0 0 0 .324-.326.333.333 0 0 0-.324-.325.333.333 0 0 0-.326.324c0 .173.152.325.326.325v.002zm-44.257.39a.32.32 0 0 0 .326-.325.318.318 0 0 0-.326-.325.333.333 0 0 0-.325.325c0 .173.151.325.325.325zm-2.71-.282c.91 0 1.648-.735 1.648-1.642C3.296.735 2.558 0 1.648 0 .738 0 0 .735 0 1.643c0 .907.738 1.642 1.648 1.642zm5.247 1.643a.997.997 0 0 0 .998-.994.991.991 0 0 0-.998-.994.997.997 0 0 0-.997.994c0 .562.454.994.997.994zM8.347.994A.335.335 0 0 0 8.674.67a.335.335 0 0 0-.327-.325.333.333 0 0 0-.324.325c0 .196.15.325.324.325zm10.691 15.59a.892.892 0 0 0-.89-.886.892.892 0 0 0-.888.885c0 .498.39.887.888.887a.88.88 0 0 0 .89-.887zm3.534 2.14c0-.648-.52-1.188-1.192-1.188a1.188 1.188 0 1 0 0 2.378c.65 0 1.192-.52 1.192-1.19zm3.579 1.924a.58.58 0 0 0-.587-.582.584.584 0 1 0 0 1.169c.326 0 .587-.26.587-.585v-.002zm5.247-2.808a2.315 2.315 0 0 0-2.299-2.313 2.32 2.32 0 0 0-2.32 2.313 2.32 2.32 0 0 0 2.32 2.314 2.301 2.301 0 0 0 2.299-2.312v-.002zm-6.224-1.23a.442.442 0 0 0-.455-.456.457.457 0 0 0-.456.455c0 .239.196.455.456.455s.455-.195.455-.455zm7.156-3.439a.58.58 0 0 0-.585-.584.583.583 0 1 0 0 1.167c.324 0 .585-.26.585-.584v.001zm7.415 3.047a.457.457 0 0 0-.454-.454.444.444 0 0 0-.456.454c0 .26.196.453.456.453s.454-.193.454-.453zm-5.658 4.541a.58.58 0 0 0-.587-.582.583.583 0 0 0-.584.584.585.585 0 1 0 1.17 0v-.002zm-.434-3.693a.442.442 0 0 0-.456-.455.445.445 0 0 0-.455.455c0 .259.195.453.455.453a.457.457 0 0 0 .456-.453zm3.967 1.6c0-.693-.563-1.234-1.235-1.234-.694 0-1.237.541-1.237 1.233 0 .692.564 1.233 1.237 1.233a1.247 1.247 0 0 0 1.235-1.231v-.002zm4.25.217c.001-.56-.454-1.016-1.016-1.017a1.017 1.017 0 1 0-.004 2.032 1.018 1.018 0 0 0 1.022-1.013l-.002-.002zm-1.776-7.135c.65 0 1.194.542 1.194 1.19a1.202 1.202 0 0 1-1.194 1.19 1.192 1.192 0 0 1-1.192-1.19c0-.649.52-1.19 1.192-1.19z"/></defs></svg>