<svg id="Layer_1" data-name="Layer 1" xmlns="http://www.w3.org/2000/svg" viewBox="0 0 247.81 123.94"><defs><style>.cls-1,.cls-2{fill:#fff}.cls-2{stroke:#fff;stroke-miterlimit:3.86;stroke-width:.45px}</style></defs><path class="cls-1" d="M22.87 123.94l-.87-.05-.63-.13-.48-.21-.58-.37-.57-.5-.4-.52-.28-.51-.23-.56-.2-.9-.06-.56.01-1.02.01-.17v-.36l.12-.8.17-1.09.02-.21.19-.8.37-1.99.49-2.22.07-.21.05-.32.09-.29.03-.35.13-.54.04-.41-.03-.08-.35-.09-2.48-1.19-1.21-.66-.33-.21-.76-.4-.68-.46-.19-.15-1.26-.86-.68-.54-1.26-1.12-.29-.31h-.09l-.03.08.29 1.27.15.45.31 1.39.03.26.1.44.32 1.46.39 1.78.51 2.54.06.44.07.44.06.71.01.83-.17 1.07-.22.8-.32.79-.5.82-.68.61-.59.31-.74.23-.48.08-.82.02-.6-.1-.75-.26-.51-.3-.43-.33-.58-.59-.31-.5-.33-.81-.09-.39-.11-.63-.01-1.54.23-1.81.38-1.85.13-.56.2-1 .11-.35.21-.91-.01-.12-.14.01-.57.28-.76.22-.37.05-.72-.02-.61-.15-.39-.15-.67-.45-.25-.26-.3-.37-.4-.75-.29-.82-.16-.8-.06-.42-.03-.09-.01-1.05.15-1.35.15-.76.13-.74.58-2.47.48-2.15.09-1.38.01-.6.03-.63-.02-.18.05-.99-.12-1.47-.41-2.32-.09-.37L1 85.94l-.17-.57-.2-.86-.28-1.65-.06-.51-.05-.25-.2-2.06L0 78.42l.02-.33.03-1.56L.1 76v-.55l.31-2.77.21-1.13.35-1.47.34-1.07.15-.58.47-1.43.55-1.65.1-.26.34-.83.15-.36.66-1.43.12-.22.16-.35 1.1-1.93 1.33-2 .37-.47.29-.46.69-.85.22-.28 1.27-1.37.25-.27.13-.12.23-.23.4-.39.17-.17.79-.75 1.71-1.52.93-.68.34-.2.11-.11-.02-.2-.2-.72-.05-.37-.02-.69.04-.32.01-.31.1-.42.23-.64.46-.89.41-.6.7-.74.29-.27.02-.08-.29-.61-.16-.49-.07-.46.01-.69.1-.59.15-.45.36-.62.45-.6.35-.38.78-.66.76-.46.7-.3.93-.26.88-.09.08-.05v-.16l-.04-.18-.04-.58.07-.45.14-.48.21-.42.57-.7.4-.33.43-.24.58-.18.41-.06h.88l.56.1 1 .31.7.33.68.41.47.35.28.34.04.07h.08l-.02-.19-.24-1.1-.18-.49-.19-.34-.19-.2-.52-.33-.19-.24-.11-.31-.09-.61-.12-.32-.27-.34-.27-.24-.31-.1-.16.03-.33.24-.17-.02-.28-.21-.32-.24-.17-.01-.14.1-.25.2-.14-.01-.33-.3-.4-.42-.79-.94-.94-1.32-.17-.23-.67-1.08-.84-1.72-.16-.42-.15-.32-.3-.64-.12-.21-.16-.41-.42-.66-.33-.43-1.29-1.41-.15-.15-.16-.18-.62-.63-.27-.23-.33-.29-.35-.1-.44-.01-.33-.16-.21-.2-.18-.23-.24-.8-.1-.41-.03-1.13.17-.87.14-.59.41-1.2.37-.89.2-.37.46-.87.54-.94.37-.56.19-.31 1.19-1.6 1.05-1.14.27-.26.34-.35.59-.56.14-.15.49-.44.29-.23.39-.33 1.55-1.15.77-.46.45-.29 1.43-.8.25-.13.42-.22 1.13-.42 1.17-.3.71-.08 1.4.02.76.15.6.24.34.28.17.22.15.43v.46l-.04.18.04.17.21.3.76.9.28.34.61.69.63.72.31.31.22.27.38.35.58.3.46.27.87.4.92.5 1.2.8 1.25 1 1.87 1.66.77.78.37.52.03.15-.1.18-.33.33-.19.2-.09.17.2.31.29.37.05.09.01.16-.12.36-.1.18.04.11.39.38.46.36.27.12.44.1.36.15.21.19.25.33.12.34.05.28-.11.84-.46 1.31-.55 1.25-.63 1.14-.56.86-.12.17-.02.04-.42.6-.22.3-.73.97-1.25 1.43-.59.59-.28.33-1.8 1.67-1.15.92-.71.51-.35.21-.18.14-.03.24v4.47l.05.11h.1l.77-.66.77-.56.62-.33.41-.14.43-.1.64-.07.79.04.58.09.67.23.59.37.5.42.54.69.25.58.14.61.01.37-.08.63.03.1.08.02.51.04.82.2.55.32.43.35.35.36.51.72.14.33.19.76v.47l-.1.53-.25.63-.24.35-.14.11v.08l.37.26.24.11.54.38.87.79.29.31.34.4.21.35.44.87.22.74.08.37v.95l-.06.31-.15.41-.2.26-.15.17.02.1.25.18.39.25 1.1.77 1.24.96.46.4.38.3.59.57.28.22.23.2.19.16.44.43.26.24.23.27.4.35 1.01 1.13.08.07.17.21.29.33.61.74.2.31.18.21 1.07 1.54.21.35.45.73.41.74.2.32.19.3.1.21.41.71.41.92.22.38.67 1.66.08.16.23.56.68 2.06.04.2.19.67.11.27.03.27.48 2.42.1.66.12 1.02.04.17.04.48.04.37.09 1.85.02.26.01.14-.01.13.02.49-.02.34-.02 1.02-.05.52-.03 1.17-.19 2.62-.33 2.68-.42 2.6-.05 1.66.06 1.14-.02.39.04.42.08 1.58.03.51-.02.19-.03 1.1-.06.53-.06.77-.18 1.07-.31 1.41-.86 3-.29.76-.06.3.01.75.14 1.2.05.19.03.36.13.76.1.77.28 1.54.36 1.46.06.34.13.54.36 2.12.22 1.85.03.65-.08 1-.11.5-.33.86-.31.5-.53.52-.43.3-.66.31-.71.21-.4.05-.51-.02-.57-.1-.81-.31-.65-.44-.45-.48-.29-.39-.36-.79-.17-.6-.07-.33-.03-.69.03-.32-.01-.21.05-.76.27-1.36.52-2.05.47-1.49.72-2.63.1-.29.25-.9.12-.39.15-.61.08-.43.2-.85.05-.85-.15-.84-.07-.3-.1-.45-.18-.65-.09-.33-.33-1.07-.12-.31-.16-.48-.12-.36-.11-.24-.08-.02-.12.12-.69.98-1.2 1.46-.6.59-.31.32-.37.35-.4.38-.43.36-.56.5-1.1.86-.21.17-.62.48-.3.24-.35.26-.37.28-2.28 1.48-1.81.95-.39.2-1.25.53-.18.1-.71.27-.34.15-1.22.4-3.29.86-2.61.46-1.26.16-1.45.14-1.02.02-1.4-.02-1.29-.05-1.34-.16-.46-.07-.58-.05-1.38-.25-.64-.1-.9-.18h-.17l-.03.11.2 1.19.34 1.69.1.42.39 1.64.13.83.08.36.03.23.02.37.11.78.06 1.64-.07.77-.15.69-.15.49-.44.76-.28.38-.33.33-.47.41-.36.22-.55.18-.5.1-.43.06z"/><path d="M22.66 122.64l-.55-.09-.53-.17-.4-.23-.45-.38-.38-.52-.26-.54-.18-.61-.07-.44v-.72l.13-1.31.4-2.43.67-3.27.5-2.6.17-1.19-.06-.16-.33-.15-1.38-.57-1.94-.92-2.14-1.28-1.31-.87-1.71-1.31-1.03-.93-1.1-1.09-.85-.92-1.29-1.51-.28-.37-.54-.69-1.31-1.84-.24-.38-.47-.71-.12-.1-.04.07.02.45.13 1.26.26 1.72.69 3.05.17 1.18.03 1.19-.04.63-.12.61-.21.62-.21.36-.3.42-.41.4-.45.3-.43.17-.42.08-.53-.01-.42-.12-.37-.19-.4-.31-.3-.31-.34-.6-.27-.73-.11-.87v-1.13l.1-1 .47-2.34.55-2.2.17-.92.07-.73.05-.18.12-1.19.04-2.11-.07-1.41-.05-.4-.05-.7-.22-1.26-.08-.46-.48-1.91-.45-1.87-.35-2.62-.12-1.9.02-1.45.01-.21.01-.84.04-.99.04-.26.05-.81.26-1.9.33-1.77.37-1.55.54-1.81.44-1.29.8-1.98.78-1.67.95-1.71.57-.95 1.05-1.57 1.21-1.59.95-1.16.23-.22.31-.35 1.21-1.22.28-.25 1.1-.99 1.57-1.22.69-.5.81-.56.06-.11-.03-.15-.29-.53-.16-.51-.11-.8.02-.59.18-.8.28-.64.45-.75.44-.55.87-.81.45-.32.08-.12-.04-.12-.35-.29-.35-.48-.17-.38-.06-.3-.02-.55.1-.51.24-.6.26-.42.4-.45.35-.32.65-.41.62-.27.91-.26.94-.15.68-.02.69-.03.05-.06-.04-.12-.2-.3-.23-.47-.1-.44-.01-.42.06-.34.16-.37.24-.37.32-.31.48-.3.4-.14.31-.06h.7l.49.1.79.27.68.37.45.3.7.59.5.53.83 1.07.47.76.32.59.09.11.05-.11-.04-.57-.23-1.28-.24-1.83-.22-1.28-.29-1.15-.18-.47-.2-.3-.23-.19-.28-.23-.17-.32-.09-.42-.06-.4-.15-.23-.32-.39-.49-.54-.21-.14-.21-.02-.33.1-.23-.03-.23-.16-.36-.38-.14-.06-.15.04-.38.32-.15.06-.19-.03-.24-.16-.71-.73-1.09-1.43-.97-1.55-.46-.86-.5-1.16-.6-1.64-.23-.36-.72-.83-1.28-1.34-1.46-1.51-.32-.23-.26-.08-.45-.08-.22-.12-.19-.31-.14-.48-.08-.65.02-.43.18-.99.21-.63.39-.91.59-1.14.75-1.3.72-1.07.76-.99 1.03-1.22.14-.14.77-.79L21.66 5l.67-.53.78-.57.75-.48 1.39-.86 1.58-.73 1.27-.4 1-.21.79-.03.69.1.48.15.25.18.12.18.06.38-.07.42.05.19.21.27 1.25 1.42.61.65 1.35 1.49.61.63.33.21.95.35.9.44.72.42 1.15.8 1.06.86L42 11.67l.48.61.1.18-.01.2-.11.19-.29.35.02.17.17.23.36.5.1.27-.03.21-.17.33-.01.14.15.25.58.61.33.28.34.19.45.08.24.14.24.37.11.26.05.37-.04.42-.12.45-.26.69-.54 1.07-.72 1.21-.73 1.07-.96 1.27-.91 1.05-.91.99-1.25 1.21-.29.23-.28.26-1.51 1.19-1.31.93-.14.2-.06.24-.07 5.06-.02 1.07-.11 2.92.02.07h.08l.19-.33.24-.44.27-.45.32-.49.53-.66.62-.68.17-.14.49-.39.66-.42.52-.24.69-.21.53-.1.74.05.39.1.49.23.38.26.4.44.21.41.16.47.03.5-.1.42-.14.35-.24.39v.06l.09.04h.84l.7.14.71.27.39.25.43.41.24.36.23.51.09.43.02.43-.1.46-.17.38-.28.37-.4.33-.38.21-.04.08.07.07.49.2.34.19.61.35 1.09.82.85.89.41.6.28.6.15.57.06.44-.02.56-.11.56-.23.55-.29.45-.04.14.06.12 2.81 1.92 1.22.95.72.62.48.39 1.31 1.26 1.11 1.23.74.87.84 1.05.77 1.07 1.01 1.57 1.4 2.46.98 2.16.49 1.32.12.34.23.66.05.24.43 1.41.08.32.31 1.36.35 2.28.19 1.74.13 2.04-.02 2.2-.15 2.98-.18 1.69-.11.73-.18 1.06-.1.67-.23 1.4-.09 1.18.01.36-.01.19v2.33l.08 1.08.05.51-.01.15.05.69-.03.62.04.19-.06.18-.2 1.81-.18 1.01-.25 1.19-.09.26-.36 1.28-.41 1.24-.2.6-.1.1h-.16l-.12-.11-.14-.45-.25-1.44-.43-1.69-.97-3.43-.1-.85-.04-.07h-.04l-.12.13-.41.7-1.11 1.56-1.12 1.39-.59.67-1.58 1.6-.46.43-1.12.99-.91.75-1.31.97-1.66 1.1-1.46.88-1.52.77-1.74.75-1.64.57-1.64.47-1.3.34-1.95.38-2.1.27-1.71.14-2.68-.01-.89-.08-.49-.01-2.29-.28-2.35-.48-1.49-.39-.08.05-.02.09.02.46.06.36.17 1.12 1.08 5.38.16 1.01.14.92.03 1.39-.03.65-.16.69-.3.66-.37.45-.38.35-.36.21-.52.16-.54.05z"/><path class="cls-1" d="M22.82 121.24l-.41-.01-.44-.14-.33-.21-.3-.36-.22-.49-.15-.68-.04-.54.12-1.36.21-1.22.19-1.01.03-.27.31-1.54.35-2 .04-.33.14-.6.26-1.51.05-.06.05.09.15.97.22 1.64.73 3.76.1.6.19 1.24.1 1.06.03.86-.1.76-.18.52-.24.36-.28.25-.39.17-.19.05z"/><path d="M61.13 119.16l-.62-.08-.45-.14-.4-.24-.4-.37-.31-.48-.2-.43-.12-.5-.04-.73.01-.21-.01-.15.1-1 .34-1.68.41-1.5.22-.73.3-1.08.64-2.19.51-2.29.25-1.48.07-.13.1-.05.1.02.07.11.06.37.06.73.08 1.14.14 1 .05.5.25 1.53.1.58.37 1.72.51 2.56.13 1.23.03.94-.06.75-.15.52-.24.53-.27.37-.29.33-.31.22-.4.2-.4.09-.23.02zM9.11 118.24l-.66-.02-.56-.13-.53-.27-.35-.27-.31-.33-.32-.51-.17-.47-.15-.56-.07-.83.01-.68.17-1.34.41-2 .42-1.81.32-1.29.22-1.01.15-.66.16-.81.53-2.54.37-2.28.04-.48.09-.15.09-.03.1.04.05.19.18 1.45.36 2.24.76 3.57.35 1.43.03.19.15.67.25 1.3.17.81.22 1.62.05 1.06-.03.89-.14.72-.22.66-.19.36-.32.42-.2.21-.11.1-.57.33-.46.16-.29.05z"/><path class="cls-1" d="M61.12 117.83l-.42-.02-.25-.11-.32-.28-.17-.27-.18-.48-.07-.43-.01-.85.11-.75.09-.44.09-.61.48-1.96.41-1.49.39-1.85.06-.07.1.34.15 1.3.28 2.11.16.93.3 2.28.02.6-.02.14v.24l-.08.46-.16.44-.24.38-.33.24-.39.15zM8.79 116.86l-.39-.02-.32-.1-.32-.21-.3-.31-.22-.38-.17-.53-.07-.36-.01-.62.17-1.23.42-1.92.68-2.62.79-3.59.04-.06.05.16.15 1.44.23 1.31.06.46.42 2.23.13 1.02.09.59.12 1.21v1.12l-.17.95-.16.41-.24.43-.31.32-.35.21-.32.09zM34.41 108.97l-.32-.05-.65-.21-.21-.14-.14-.21-.09-.31-.15-.39-.16-.13-.23-.13-.13-.18-.07-.8-.03-.77-.08-.77.04-.13.26-.08.32-.03h.43l.08.04-.12.35.01.58.06.16.3.38.21.12.25.03.18-.07.3-.31.14-.07.34-.08.06.03.01.2-.01.17.12.31.13.27-.03.25-.02.19.08.29.21.28.01.19-.12.33-.19.31-.13.16-.17.08-.34.1-.15.04zM28.94 108.95l-.25-.01-.27-.06-.28-.03-.06-.05.18-.1.93-.34.32-.16.17-.2.18-.33.17-.11.35-.04.27.01.03.05-.02.08-.11.07-.38.13-.1.12-.11.38-.13.18-.89.41zM31.06 107.24l-.18-.01-.05-.2-.02-.44.05-.64-.02-.36.02-.21.08-.38.06-.19.09-.05h.46l.11.06.06.22.12 1.01.02.84-.06.13-.12.07-.62.15zM39 106.07l-.31-.03-.32-.14-.32-.3-.17-.28-.25-.63-.11-.79-.02-.69.1-1.3.24-1.22.11-.38.03-.18.09-.41.24-.99.09-.38.41-1.92.13-.81.05-.01.06.23.14.85.22 1.16.28 1.17.19.65.24.95.23 1.3.08.92-.02 1.18-.13.65-.23.57-.22.36-.28.25-.32.15-.23.07z"/><path class="cls-1" d="M4.36 105.34l-.3-.02-.26-.1-.37-.28-.28-.39-.17-.41-.13-.6-.06-.66.02-.86.19-1.35.5-2.39.29-1.34.04-.31.15-.97.06-.56.06-.29.11-1.22v-2.08l-.14-1.38-.33-2.03-.43-2.47-.21-1.17-.52-3.56-.1-1.57.08-3.4.44-3.39.35-1.72.34-1.38.55-1.72.63-1.73.97-2.21 1-1.85 1.31-2.09.85-1.19 1.12-1.38 1.22-1.34 1.31-1.31 1.4-1.19 1.09-.82 1.15-.79.46-.28.1-.14.15-.02.18-.06.23.02.5.11.56-.02.45-.1.5-.21.51-.32.47-.38.21-.2.14.01.1.15.22.3.22.21.36.21.42.16.19.03.63-.02.43-.13.38-.21.43-.33.79-.84 1.21-1.48.39-.33.41-.25.41-.15.35-.11.08-.11-.02-.13-.25-.09-.25-.01-.51.08-.46.17-.46.27-.43.35-1.05 1.09-.31.35-.47.36-.31.13-.4.03-.39-.1-.23-.14-.17-.22-.13-.39v-.34l.13-.56.32-.64.41-.52.44-.4.54-.38.59-.3.86-.31.68-.14 1.04-.07 1.02.12.7.17 1.17.48.52.29.73.58.19.25.2.3.09.05.13-.03.07-.12.06-.36v-2.76l-.1-2.28-.11-1.58-.06-.56-.09-1.39-.08-.72-.25-2.58-.22-1.47-.18-.76-.26-.82-.25-.43-.37-.45-.14-.31-.03-.11.01-.4.23-.89.45-1.07.59-1.05.86-1.29.85-1.12 1.05-1.16 1.4-1.42.52-.47.66-.61 1.17-.94 1.4-1.03 1.53-.96.99-.53.66-.29.6-.18.51-.03.26.1.19.23.05.3-.11.61-.39.87-1.15 1.77-.56.74-.29.35-.64.8-1.23 1.36-1.26 1.27-2.01 1.71-1.2.9-.58.52-.22.38-.12.3-.03.31.04 4.09.06 1.24-.02.18.02.32v2.79l-.07 3.59-.03.41-.11 2.38-.11 2.05.05.17.08.07h.15l.9-.64.44-.23.69-.28.57-.14.3-.05.77.02.47.12.38.16.47.29.31.32.32.5.12.39.03.4-.08.5-.18.4-.3.35-.53.35-.42.16-.11.12.06.12.13.09.31.03.51-.08.48-.2.38-.26.38-.43.23-.45.16-.51.04-.41-.06-.5-.11-.32-.21-.41-.07-.12.14.01.58.39.3.22.66.53.33.31.98.93.49.47.79.66.66.43.5.25.36.1.55.03.52-.05.21.08 1.07.61 1.17.75 1.71 1.22 1.54 1.3.29.27 1 .95.17.18.67.69.99 1.15.18.26.29.35.82 1.08.17.25 1.3 1.93.49.82.71 1.38.5 1.08.07.2.43 1.05.61 1.72.54 1.84.21.82.27 1.44.3 1.96.14 1.28.01.23.04.72.01.52-.05.18.09.38.02 2.36-.01.84-.03 1.07-.1.83-.03.7-.04.14-.04.61-.11.86-.36 2.27-.19 1.96-.08.53.01 2.51.09 2.56-.05 1.14-.08.74-.32 1.66-.14.37-.07-.01-.08-.17-.4-1.24-.44-1.18-.23-1.03-.14-1.38.05-2.63-.07-1.17-.27-1.96-.29-1.4-.11-.4-.11-.98.03-1.35.08-.89.09-.58.02-.85-.08-.59-.24-.79-.21-.45-.27-.4-.36-.38-.3-.19-.35-.12-.35-.01-.36.11-.35.27-.31.36-.21.38-.3.84-.14.7-.18 1.32-.26.9-.2.6-.27 1.34-.05.78.01.62.07.44.04.47.17.72.13.53.1.34.4 1.81.08.98-.03.43-.15.52-.23.4-.22.26-.28.18-.15.04-.27-.01-.22-.09-.23-.17-.23-.27-.19-.35-.13-.51-.02-.61.04-.6.12-.86.55-2.4.25-1.01.14-.91.02-.75-.09-.56-.19-.62-.3-.63-.5-.79-.67-.82-.69-.63-.91-.67-1.22-.73-.7-.61-.4-.44-.37-.54-.54-.87-.74-1.05-.62-.62-.56-.37-.43-.18-.51-.14-.39-.04-.6.03-.68.15-.42.2-.47.35-.35.35-.35.5-.19.4-.2.41-.24.86-.2 1.36-.09 1.84.01.23-.05 1.45-.13 1.27-.23.98-.35 1.05-.38.95-.34.79-.39 1.21-.21.91-.08.34-.04-.01-.32-1.19-.49-1.18-.49-1.04-.61-1.15-.36-.63-.52-.98-.32-.76-.31-.98-.35-1.56-.41-2.34-.31-1.15-.3-.72-.26-.46-.28-.37-.08-.07-.2-.17-.24-.16-.31-.08h-.38l-.34.13-.3.23-.26.38-.31.69-.37.95-.3.52-.4.52-1.17 1.13-.35.48-.22.45-.17.59-.07.44-.05 1.41.1 1.62.56 3.22.05 1.13-.03.44-.1.41-.21.32-.22.16-.24.1-.25-.01-.18-.1-.19-.21-.14-.25-.1-.33-.07-.41.05-.96.17-.91.41-1.84.19-1.09.06-.85-.1-.89-.21-.86-.35-1.01-.2-.77-.16-1.04-.09-.82-.13-.61-.24-.63-.35-.59-.37-.45-.43-.33-.33-.18-.41-.1-.18-.03-.52.03-.45.12-.49.23-.55.42-.86.76-.66.43-.54.27-.86.28-1.4.32-.63.24-.47.33-.57.58-.38.56-.26.48-.2.58-.15.7-.03 1.04.02.78-.01 1.39-.15 1.19-.15.56-.96 2.17-.32 1.07-.05.06-.06-.29-.1-.59-.43-1.31-.28-.63-.31-.92-.21-.97-.12-.91-.12-1.99-.1-.61-.12-.29-.22-.2-.19-.07-.23.03-.19.11-.18.18-.19.4-.17.66-.29 1.87-.23.8-.33.76-.15.34-.33.88-.14.59-.06.18-.09.12-.16.02-.13-.12-.1-.3-.19-.72-.56-1.42-.14-.52-.15-1.19-.03-1.07-.07-.25-.12-.15-.19-.08-.21.06-.16.21-.12.25-.19.67-.12 1.01-.06.64-.08.6-.57 2.31-.48 1.81-.32 1.6-.16 1.21-.04 1.08.05 1.08.14 1.17.03.14.04.38.43 2.42.36 1.93.13 1.35-.03.73-.11.64-.21.61-.23.35-.1.08-.3.23-.36.12zM34.18 104.65l-.17-.01v-.04l.15-.01.05.02-.03.04z"/><path class="cls-1" d="M30.99 104.41h-.49l-.11-.06-.25-.39-.1-.3-.09-.78.02-.55-.06-.13-.11-.06-.45-.1-.15-.11-.26-.44-.1-.33.02-.21.1-.12.18-.15.03-.16-.15-.42.04-.09.27-.09.7-.09.14-.07.06-.14-.04-.12-.11-.06-.45.01-.51.07-.16-.04-.09-.17.02-.25.05-.09.09-.02.3.03.23-.1.26-.2.35-.46.05-.13-.03-.25-.17-.58-.37-.76-.22-.36-.18-.31-.26-.39-.06-.18.03-.35.04-.19-.03-.21-.12-.23-.25-.31-.56-.56-.25-.27-.38-.38-.12-.04-.38.02-.16-.1-.18-.02-.28.04-.29-.1-.43-.2-.58-.2-.08-.07v-.1l.14-.08 1.04-.29.15-.12v-.16l-.08-.1-.18-.02-1.25.35-.18.01-.14-.06-.17-.17-.17-.07-.26.03-.41.12-.43.03-.56-.04-.37.1-.5.24-.6.15-.42.15-.08.12-.08.3-.15.08-.44.1-.07.04-.06.29-.16.17-.02.2.01.13-.1.14-.49.21-.17.18-.3.45-.33.28-.77.56-.28.31-.21.36-.22.51-.12.3-.24.37-.04.11.03.21.17.35.07.25.21.24.1.23-.03.11-.09.04-.37-.08-.6-.17-.26-.01-.13.06-.05.11.04.11.31.13 1.03.32.1.08.03.15-.02.23.05.11.17.22-.02.13-.14.14-.54.26-.17.17-.12.34-.06.26-.09.08-.17-.03-.53-.25-1.77-.99-1.83-1.19-1.03-.73-.81-.68-.08-.16.01-.24.12-.33.1-.06.17.03 1.18.53h.18l.08-.11-.02-.19-.1-.11-1.31-.64-.14-.14-.02-.07.03-1.08-.06-.81.04-.14.13-.05.36-.01h.42l1-.08.11-.04.08-.13-.01-.12-.1-.08-.24-.01-1.75.05-.11-.04-.09-.13-.23-.82-.26-.63-.02-.11.04-.11.4-.26 2.6-1.47.23-.2.02-.12-.07-.09h-.15l-.43.21-2.09 1.23-.58.31-.16.03-.13-.08-.25-.39-.61-.76-.71-.66-.56-.42-.05-.1.06-.51.19-1.11.06-.49.07-.15.05.05.35 1.48.28.78.45.84.44.55.35.37.09.06.1-.01.12-.49.26-.48.28-.79.29-.96.27-.61.21-.4.4-1.01.16-.72.11-.73.05-.1.06.06.12.57.05.56.24 1.17.45 1.32.24.58.19.68.12.82.03.87-.05.56-.2 1.12-.61 2.16-.23 1.49v.49l.07.52.15.5.21.43.25.33.32.27.34.17.28.06.49-.01.38-.14.36-.22.31-.34.23-.34.21-.55.11-.58v-.71l-.11-1.01-.55-3.08-.03-.35.01-.85.21-.91.4-.99.52-1.06.43-1.19.21-.86.14-1.05.01-1.1-.03-.33.02-.87.1-.57.12-.46.17-.34.32-.4.33-.3.55-.33.92-.35 1.03-.32.87-.42.65-.42 1.2-.9.62-.39.43-.17.32-.07.32.03.39.14.15.12.24.35.16.42.32 1.97.29.9.47.99.14.44.11.83.01.68-.12.93-.32 1.46-.16.56-.25 1.05-.09.77v.99l.11.63.23.58.24.41.32.36.41.29.35.14.27.05.47-.03.47-.14.29-.18.33-.29.26-.36.21-.47.15-.58.06-.43-.04-.77-.18-1.25-.73-3.34-.03-.31.02-1.03.1-.6.14-.36.22-.36.3-.31.9-.71.42-.42.35-.51.21-.42.25-.76.21-.34.15-.14.19-.04.19.07.25.24.28.44.28.66.31 1.16.24 1.21.15.79.28.91.33.88.37.75.13.23.29.57.85 1.55.92 2.02.37 1.04.31 1.38.13.91.02.84-.09.42-.09.07h-.17l-.3-.13-.21-.21-.07-.2-.09-.38-.15-.19-.19-.1-.18.03-.54.33-.31.31-.37.23-.8.27-.44.29-.29.06-.33-.01-.17-.07-.12-.13-.15-.42-.02-.43.08-.46-.04-.2-.32-.27-.22-.09-.19-.02-.46.02-.45-.08-.29.03-.93.32-.37-.01-.13.09-.08.12h-.08l-.15-.36-.17-.4-.08-.1-.15-.01-.13.08-.04.16.42 1.25.04.26-.04.2-.28.37-.05.17.06.12.31.23.24.12.16.19.23.77.36 1.47.33 1.58-.02.5.06.17.12.15.19.89.39 2.52.09.88-.06.13-.3.08-.26.02z"/><path class="cls-1" d="M32.23 104.29l-.14-.07-.04-.12-.07-.88.04-.02.23.2.2.07.56.03.3-.05.06.03-.02.13-.14.29.02.23-.14.06-.64.08-.22.02zM33.95 104.1l-.19-.03-.03-.11.08-.19.53-.83.14-.24.35-.38.32-.22.39-.21.13.01.12.09.05.12-.03.22-.14.25-.36.51-.32.55-.33.32-.58.12-.13.02zM32 103h-.05l-.12-.62-.35-2.26-.11-.46.94-.23.53-.11 1.18-.29.22.03.19.19.05.19-.07.34.08.22.17.16.19.14.06.13-.09.23-1.27 1.34-.29.5-.21.2-.3.1-.51.02-.16.07-.08.11zM15.35 101.77l-.42-.02-.35-.09-.27-.18-.58-.41-.24-.16-.89-.75-.17-.06-.54.09-.22-.09-.42-.34-1.13-1.07-.51-.55-.09-.17.08-.01 1.07.76.42.3 1.91 1.31.86.48 1.11.62.42.22.04.06-.08.06z"/><path d="M32.17 100.94l-.18-.05-.21-.19-.05-.17.02-.15.15-.16.23-.11.54-.1.32-.02.18.07.08.14-.06.32-.09.23-.12.06-.36-.05-.45.18z"/><path class="cls-1" d="M31.55 99.16l-.23-.02-.1-.11-.33-1.49-.29-1.33.01-.17.17.02.31.06.26-.02.11-.06.16-.12h.18l.41.1.16.09.14.17.25.53.26.29.01.19-.02.26.08.18.21.19.12.4.19.21v.09l-.19.09-.97.24-.9.21zM13.62 97.8l-.27-.03-.24-.14-.16-.17-.14-.33-.05-.33.04-.72.18-1.27.63-3.16.04-.05.04.09.5 3.65.04.78-.02.8-.1.44-.16.25-.18.14-.15.05zM9.03 97.32l-.15-.04-.26-.28-.72-.94-.64-.97-.27-.41-.5-.78-.6-1.08-.19-.52-.03-.25.1-.46.35-1.05.26-.69.11-.31.11-.05.15.04.55.42.35.38.59.75.34.54.33.69.26.73.14.58.13.85.02.95-.07.77-.2.91-.11.19-.05.03zM45.91 94.72l-.26-.03-.24-.05-.28-.03-.15-.14-.09-.15-.01-.12.08-.13.12-.05.25-.06.22-.26.23-.22.93-.7.1-.02.03.01-.01.13-.25.38-.34.36-.08.19.03.16.13.11.22.03.59-.17.22-.16.8-.94.05-.13.04-.21.18-.32.19-.14.2-.04.24-.03.1-.06.05-.15v-.42l.15-.24.39-.27.19-.15.44-.14.38-.27.14-.08.19-.04.49-.03.34-.11.11-.06.17.01.1.17.02.22-.14.17-.38.21-.35.14-.35.26-.68.99-.34.3-.21.11-.28.01-.14-.01-.22.09-.33.31-.23.31-.42.65-.19.36-.15.18-.24.08-.36.08-.17-.06-.24-.15h-.19l-.23.16-.13.08-.31.06-.12.02zM58.71 94.29l-.11-.04-.04-.16.02-.29.02-.33-.04-.21-.22-.24-.14-.14-.05-.11.01-.2.16-.33.15-.25.06-.29-.04-.27-.18-.34-.21-.2.02-.32.28-.77.07-.33-.07-.15-.15-.14-.37-.28-.15-.19v-.15l.14-.25.34-.6.24-.55-.01-.23-.1-.08-.11.04-.24.42-.24.45-.36.51-.15.1-.13-.01-.32-.19-.33-.04-.15-.09-.09-.21-.19-.88-.06-.5-.02-.93.1-.84.28-.96.39-1.17.1-.43.06-.93.08-.32.24-.42.26-.21.2-.06.22.03.22.12.18.22.19.35.19.63.07.45v1.08l-.09 1.15-.08.58-.03.59.17 1.55.13.62.22.76.24 1.29.11 1.16.02 1.3-.07 1.11-.06.22-.47.8-.11.1zM41.58 94.25l-.16-.05-.38-.26-.27-.2-.15-.03-.38.12-.37-.01-.09-.07-.06-.25-.02-.64.08-.22.11-.07.44.04.22-.02.31.07.15.12.37.65.16.32.14.27v.16l-.1.07zM42.37 94.01l-.17-.02-.13-.16-.7-1.23-.08-.23.04-.24.14-.24.21-.16.22-.04.38.02.18-.09.43-.66.25-.24.08-.03.44.01.09-.06.04-.14-.12-.18-.27-.16-.23-.06-.27.03-.29.05-.37-.01-.35-.15-.19.02-.23.15-.31.3-.26.17-.47.03-.08-.04-.05-.23-.12-.1-.03-.07.03-.18.89-1.9.54-1.33.33-1.12.16-.76.18-1.22.12-2.35.07-1.86.14-.72.15-.56.3-.63.33-.43.35-.3.41-.19.45-.12h.48l.42.09.48.17.55.37.4.42.45.69.74 1.38.39.57.35.4.67.6.74.54 1.33.76.99.64.47.46.38.54.3.65.08.44.05.9-.1.97-.08.44-.07.07-.1.01-.26-.02-.17.02-.26-.02-.7.17-.12-.03-.01-.12.21-.29.92-1.18.42-.62.06-.18-.03-.24-.1-.05-.12.07-.54.68-.98 1.29-.27.24h-.15l-.26-.2-1.81-1.86-2.05-2.25-.23-.29-1.15-1.41-.14-.29.02-.13.22-.22.67-.57.75-.68.09-.18-.06-.17-.11-.03-.11.07-1.09.94-.55.41-.19.05-.11-.06-.59-.73-.48-.65-.29-.41-.35-.53-.1-.15-.09-.13-.11-.02-.1.09-.04.11.02.18.19.32 1.44 1.95.18.23.06.15-.14.18-1.3 1.06-.88.69-.12.18v.19l.04.04.14-.01.28-.18 1.11-.87.6-.48.41-.29.15-.05.11.04.28.32 1.12 1.38.31.35.84.98 2.48 2.69.12.1.43.45.04.12-.03.06-1 .25-.24.01-.27-.07-.42-.01-.22-.11-.24-.17-.15-.04-.28.02-.61.23-.29.16-.14.15-.56.72-.21.15-.26.15-.26.29-.11.23-.06.25.03.29.1.21.17.14.15.04.81-.05.09.05.04.12-.23.73-.02.41-.12.15-.73.57-.11.05-.19-.03-.43-.17-.43-.1-.31.01-.22.11-.17.24-.41.79-.14.13-.17.03-.33-.12-.18.03-.39.2-.16.07z"/><path d="M15.73 93.62l-.27-.01-.12-.07-.04-.12.06-.12.28-.08 1.63-.17 1.77-.3.1-.06.02-.16-.21-.64-.6-1.51-.61-1.3-.38-.75-.4-.92-.11-.1-.11-.01-.22.06-.1-.05-.01-.12.1-.17.12-.14.01-.15-.02-.2.06-.11.12-.01.24.21.18-.03 1.17-.67.93-.5 2.72-1.58 2.13-1.24.28-.21.04-.14-.1-.28-.42-.75-.74-1.17-.24-.39-.42-.66-.06-.16.02-.13.1-.06.1.02.25.29.8 1.16.79 1.31.25.46.15.15.16-.02.71-.4.2-.01.1.11-.01.15-.11.13-.61.37-.12.14-.03.18.13.31.91 1.67.21.47.03.22-.07.15-.08.04-.1-.06-.23-.36-1-1.98-.23-.32-.13-.02-.46.21-.63.38-.45.25-.22.15-.2.08-2.29 1.32-3.07 1.73-.1.1.01.19.78 1.56.48 1.05.38.91.61 1.76v.16l-.17.2-.07.24-.2.07-2.08.31-1.29.14z"/><path class="cls-1" d="M20.02 93.38l-.14-.03-.05-.09.03-.12.09-.06.2-.05.2.01.05.06-.02.11-.23.12-.13.05z"/><path d="M30.46 90.01l-.11-.05-.03-.16.07-.13.36-.16.7-.26 1.83-.81 1.84-.89.73-.39h.13l.09.1.02.12-.07.1-.47.28-2.21 1.09-1.57.69-1.17.44-.14.03zM19.22 73.3l-.15-.07-.04-.12-.02-5.13.05-.13.17-.07h3.4l.14.07.06.21-.01.74-.05.14-.11.07h-2.08l-.22.06-.06.18.01.44.06.13.21.06h1.61l.13.06.05.15.01.85-.05.15-.11.07-1.67.01-.18.07-.07.16.02.52.06.11.15.05h2.08l.2.06.05.08.01.91-.07.11-.11.04-3.47.02zM38.49 73.23l-.98-.01-.13-.06-.06-.15-.01-3.88-.06-.13-.13-.06-1.15-.02-.12-.09-.05-.16v-.78l.05-.09.2-.07 3.94-.01.24.06.07.08-.01.89-.09.14-.18.05-1.14.01-.13.07-.05.13-.01 3.89-.06.13-.14.06zM42.32 73.22l-.75-.01-.15-.06-.06-.16-.02-5.05.03-.15.09-.06h.92l.17.07.06.16v1.54l.05.23.12.07 1.89.01.2-.06.06-.16.01-1.73.06-.09.16-.05h.86l.15.06.07.12.02 5.05-.06.17-.11.07-.98-.02-.09-.07-.05-.18v-1.59l-.05-.19-.13-.06h-2.04l-.08.08-.04.2.02 1.65-.05.11-.15.08-.13.02zM24.13 73.27h-.11v-.06L25.67 68l.12-.17h1.46l.18.06.1.15 2.08 5.09v.14l-.13.06h-1l-.28-.06-.11-.13-.29-.85-.14-.09h-1.9l-.18.09-.27.84-.09.13-.23.08zm3-2.5l.09-.06v-.14L26.64 69h-.06l-.5 1.52-.05.15.09.07zM34 73.23l-.16-.06-1.11-1.58-.16-.12h-.64v1.68l-.16.08h-.92l-.13-.06-.22-.17v-5.07l.07-.16h2.76l.5.08.35.14.33.23.28.33.19.42.07.33v.52l-.07.3-.18.34-.3.37-.33.26v.1l1.21 1.94v.09h-.13zm-1-3.05l.22-.08.19-.16.09-.18v-.29l-.09-.26-.19-.21-.34-.08H32l-.13.06V70.11l.16.06h.99zM30.17 66.27l-.15-.07-.05-.14-.02-5.02.07-.15.11-.04.87-.01.19.06.06.11v1.62l.06.19.13.06h1.83l.15-.05.07-.12v-1.6l.02-.16.08-.08.13-.03h.89l.18.06.06.21.01 4.91-.06.18-.18.07-.95-.01-.13-.06-.04-.13-.01-1.71-.07-.11-.22-.04h-1.72l-.13.04-.07.15v1.62l-.06.18-.22.07h-.83zM27.29 66.28h-.96l-.15-.06-.05-.11-.01-3.87-.06-.15-.2-.07-1.21.01-.11-.08-.05-.22v-.65l.07-.14.14-.07 4.24-.02.16.05.06.15v.89l-.15.11-.22.03-1.15-.02-.11.05-.05.08-.01 3.91-.04.1-.14.08zM40.12 66.24l-3.29.01-.17-.06-.06-.18-.02-4.99.05-.13.17-.06 3.28-.01.2.06.06.13-.01.83-.05.12-.14.07-1.98.01-.18.07-.04.09-.02.38.06.19.08.06.19.03 1.5-.01.16.06.06.14v.9l-.07.13-.17.06h-1.58l-.15.06-.05.15.01.46.09.1.1.03h2.09l.16.06.05.13v.98l-.11.1-.22.03zM21.12 59.83l-.59-.03-.56-.13-.39-.15-.56-.35-.36-.35-.3-.45-.23-.57-.11-.54-.02-.51.08-.54.17-.53.23-.43.28-.37.42-.37.41-.24.58-.19.45-.09.45-.01.76.08.65.19.24.14.08.12.04.13v.97l-.07.12-.1.02-.67-.33-.6-.13-.43-.02-.44.06-.38.18-.27.19-.25.29-.15.34-.1.42.01.41.1.4.23.37.29.28.33.19.46.14.52.03.48-.08.4-.18.38-.24.13-.08.08.01.05.11.01.91-.06.21-.19.18-.39.19-.63.17-.46.06zM33.17 59.41l-1.42-.01-.11-.05-.08-.14-1.61-4.85-.03-.24.06-.08.27-.07.75.02.17.05.1.2 1.09 3.58.08.09h.11l.04-.08 1.1-3.52.13-.25.2-.11.77.01.24.06.04.1-.06.28-1.64 4.91-.1.07-.1.03zM36.35 59.37l-.13-.05-.12-.15v-5.04l.05-.11.09-.07.16-.03 3.28-.01.18.06.05.11v.8l-.07.2-.16.07-2.06.01-.09.06-.04.14v.47l.04.14.18.07 1.62.01.2.06.06.15.01.88-.09.07-.16.03h-1.68l-.13.05-.07.1.01.53.07.17.12.04 2.16.02.12.07.04.14v.82l-.06.13-.13.04-3.45.02zM26.62 59.63h-.61l-.45-.08-.48-.21-.38-.24-.42-.39-.35-.52-.23-.54-.1-.54v-.77l.13-.56.19-.46.38-.54.42-.38.37-.23.44-.17.71-.13h.68l.56.13.61.26.52.42.31.39.16.29.19.52.1.56V57l-.1.6-.19.49-.31.5-.3.31-.38.26-.47.23-.54.16-.47.06zm.19-1.24l.43-.13.26-.17.27-.31.17-.36.1-.45v-.47l-.1-.5-.25-.4-.33-.31-.36-.15-.44-.08h-.35l-.4.12-.34.21-.27.3-.21.37-.1.45v.54l.12.38.23.4.3.26.3.17.45.12h.51zM45.9 59.32h-1.12l-.18-.07-.78-1.32-.15-.19-.21-.06H43l-.15.06-.06.13v1.3l-.06.11h-.96l-.18-.06-.05-.12V54l.09-.08h2.53l.62.07.3.09.34.21.26.27.18.32.13.47v.76l-.14.4-.18.29-.24.24-.35.26v.11L46 59l.05.18-.06.08h-.12zm-2-2.9l.29-.08.22-.17.12-.2v-.33l-.08-.24-.14-.15-.22-.11H42.9l-.13.06v1.15l.13.06h1z"/><path class="cls-1" d="M18.36 50.12l-.44-.03-.43-.14-.35-.27-.16-.23-.14-.3-.12-.53.02-.53.14-.66.17-.42.49-.81.52-.57.33-.3.95-.68 1.11-.6 1.12-.45 1.58-.38.84-.12 1.15-.03.94.09.77.16.78.23.87.38.61.35.8.61.63.63.33.47.01.08-.16-.08-.59-.42-.91-.45-.85-.3-.79-.16-.97-.13-.95.02-.93.17-.81.24-.8.39-.71.43-.44.39-.56.62-.71 1.08-.67 1.19-.45.51-.38.28-.45.19-.39.08zM46.61 49.66l-.44-.01-.37-.1-.52-.33-1.29-1.16-.92-.79-.46-.37-.42-.35-1-.68-.63-.33-1-.42-.86-.19-.85-.1-.56.02-.69.13-.86.28-.19.07-.05-.02.15-.17.39-.26.89-.47.8-.34 1.22-.33.75-.13.77-.09 1.34.03.98.12 1.02.23.74.28.66.31.62.4.84.7.5.55.37.62.2.47.12.46.01.51-.09.42-.13.34-.26.34-.35.23-.43.13z"/><path d="M37.17 49.28l-.13-.03-.14-.18-.22-.41-.28-.38-.3-.26-.47-.25-.38-.09-.35-.02-.42.06-.09-.02-.04-.13.07-.13.26-.21.39-.19.31-.08.41-.02.44.1.34.2.23.25.18.27.11.37.11 1.07-.03.08z"/><path class="cls-1" d="M30.9 44.92l-.18-.14-.53-.52-.79-.64-.79-.56-.89-.44-.84-.29-1.07-.27-.76-.09-.4-.04-1.01.02-.99.15-1.23.33-1.18.45-.46.1-.39-.03-.34-.12-.24-.19-.12-.2-.08-.33.06-.47.18-.44.26-.37.34-.3.49-.33.54-.26.71-.23.86-.19.49-.05 1.03.02 1.05.18.92.32 1.26.63 1 .64.85.65.96.94.54.65.58.9.18.39.01.08-.02.05zM34.98 44.6l-.04-.03.16-.37.61-.86 1.17-1.26.85-.68 1.04-.68 1.13-.59 1.11-.4.85-.17.42-.05.88.01.51.1.36.16.35.22.25.25.17.31.07.27-.02.33-.15.36-.25.31-.41.23-.64.19-.66.06-2.68.16-.98.15-.67.18-.89.3-.66.28-.96.54-.83.63-.09.05zM34.56 43.66l-.04-.02.02-.25.26-1.08.35-1.11.56-1.25.63-1.15.42-.59.75-.84.33-.32.54-.41.55-.35.7-.28.42-.1.63.02.36.11.3.24.18.22.11.34.02.36-.1.31-.22.34-.41.39-.62.4-.93.47-.82.41-.61.4-1.22.91-.75.73-.49.6-.54.87-.3.55-.08.08zM31.02 43.63l-.11-.12-.56-.89-.44-.57-.82-.86-1.07-.87-1.18-.75-1.95-1.05-.47-.35-.3-.33-.21-.39-.08-.3.01-.39.16-.36.22-.22.27-.16.3-.08.42-.01.56.11.72.35.7.44.95.83.71.77.78 1.07.47.81.37.84.31.99.25 1.01.03.39-.04.09zM28.73 29.1l-.14-.03-.23-.22-.17-.24-.05-.17.01-.31.09-.4.54-1.26.7-1.2 1.17-1.69 1.36-1.61.59-.63.84-.83 1.33-1.16 1.84-1.39 1.33-.82 1.38-.77 1.1-.47.73-.15.27.04.29.25.1.18-.01.11-.14.12-1.26.56-1.27.72-.68.45-.33.21-1.33.96-.36.31-1.1.9-1.47 1.31-1.22 1.34-.32.38-.57.67-1.07 1.43-.75 1.15-.85 1.55-.25.6-.1.11z"/><path class="cls-1" d="M26.88 28.18l-.22-.02-.18-.14-1.08-1.2.15-.62-.01-.26-.1-.18-.56-.65-1.03-1.15-2.42-2.62-2.59-2.79-.98-1.1-.32-.34-.19-.29-.05-.25.08-.5.28-.97.45-1.13.56-1.12.54-.95.56-.84 1.21-1.59.75-.82.92-.89.66-.56.98-.75 1.4-.89 1.48-.77 1.18-.49.93-.31.54-.11.52-.02.29.08.21.16.99 1.08.3.34 1 1.12.57.63 2.41 2.63.5.52.29.34 2.25 2.41.2.12.19.02.44-.08.26.01.18.13.36.39.22.28.24.28.03.15-.1.26-.18.43-.15.07-.69.21-1.51.68-.93.51-2.21 1.47-1.1.87-1.43 1.29-1.24 1.24-.89 1.06-.57.72-.89 1.22-.9 1.43-.45.85-.28.63-.18.55-.06.06-.21.05-.23.03-.19.08zM24.6 27.91l-.11-.06-.39-.4-.19-.27-.86-1.21-.59-.95-.44-.8-.12-.33-.01-.06.15.05.76.75 1.26 1.43.25.39.04.22-.1.52.08.24.27.4v.08z"/><path d="M26.19 23.85l-.4-.01-.45-.13-.49-.26-.49-.38-.62-.67-.74-.95-.5-.85-.27-.66-.15-.57-.05-.53.06-.49.14-.56.35-.71-.02-.18-.3-.46-.67-.88-.34-.48-.66-.86-.12-.27.04-.21.28-.48.24-.35.15-.03.11.07.82 1 3.8 4.94L27 20.34l.59.75.43.58.05.13-.01.17-.51.85-.38.47-.31.26-.34.2-.33.1z"/><path class="cls-1" d="M25.99 22.08l-.3-.01-.37-.16-.34-.27-.44-.48-.66-.92-.27-.5-.15-.47-.03-.17.01-.33.09-.26.07-.08h.13l.19.2 2.24 2.87.14.26-.02.11-.12.13-.17.08z"/><path d="M28.42 21.39l-.13-.07-1.28-2.29-1.41-2.43-1.72-3.15-1.3-2.44-.03-.17.12-.23.37-.44.17-.16.17-.15.15-.04.15.07.45.44.28.3 3.41 3.56.58.57.06.01-.03-.12-.93-1.48-2.51-3.82-.26-.46V8.7l.19-.24.63-.47.27-.11.13.02.57.47.33.33 5.08 4.86 2.08 1.97.12.18-.03.15-.33.26-.59.38-.16.04-.17-.07-.32-.31-1.05-1.08-.5-.5-.42-.45-.31-.33-1.68-1.75-.92-1.01-.2-.1.06.16.26.44.99 1.56 1.19 1.92.55.84.5.78.64 1 .04.18-.08.17-.76.71-.13.07-.14-.03-.26-.24-1.42-1.51-.84-.92-2.63-2.72-.13-.09-.02.06.16.34 1.74 2.92 2.01 3.56.07.25-.09.19-.58.71-.16.1z"/><path class="cls-1" d="M16.69 16.06l-.13-.05-.28-.32-.08-.21.02-.38.08-.42.35-1.01.44-.99.66-1.18 1.07-1.59.25-.37.54-.63.41-.5.17-.18.95-1.01.45-.43.38-.33.49-.43 1.25-.92L25 4.32l1.27-.68 1.2-.52 1-.32.65-.11.29.01.17.07.33.33.06.12-.05.07-1.01.19-1.17.41-1.53.71-1.08.6-1.52 1.01-1.1.89-.78.7-.82.87-1.14 1.39-.75 1.05-.89 1.45-.66 1.31-.37.94-.34 1.17-.07.08z"/><path d="M35 14.98l-.53-.08-.46-.18-.46-.28-.96-.84-.33-.38-.05-.1.06-.12.26-.18.62-.33.16-.01.14.08.32.31.3.28.38.24.37.1.19-.04.15-.12.06-.21-.09-.27-.3-.34-.32-.28-.7-.44-.9-.43-1.59-.67-1.44-.72-.85-.57-.46-.45-.35-.47-.19-.47-.08-.43.03-.41.1-.35.23-.35.31-.28.37-.17.53-.12h.56l.44.1.6.24.8.53.59.54.13.21-.06.13-.39.23-.51.21-.17.01-.21-.13-.43-.38-.42-.25-.39-.09-.26.04-.14.13-.08.19.02.21.12.23.31.32.6.4.68.37.33.12.16.05.16.1 1.6.68.84.41.83.51.53.42.38.4.33.47.19.38.11.48.01.37-.06.32-.18.33-.25.3-.35.24-.42.18-.31.06-.21.02z"/><path class="cls-1" d="M41.18 12.24l-.16-.12-.33-.29-.22-.1-.25.03-.19.06-.2-.03-.35-.32-.74-.79-1.32-1.4-.06-.15.19.03.88.54 1.17.85.94.84.61.68.05.14-.02.03zM51.46 113.61a3.53 3.53 0 1 1-3.53 3.53 3.53 3.53 0 0 1 3.53-3.53zm0 6.27a2.76 2.76 0 1 0-2.51-2.75 2.56 2.56 0 0 0 2.51 2.75zM50 115.16h1.48c1 0 1.57.29 1.57 1.17 0 .71-.43 1-1 1l1 1.7h-.86l-.94-1.66h-.4v1.66H50v-3.92zm1.52 1.61c.4 0 .68-.07.68-.52s-.43-.45-.76-.45h-.6v1h.68zM37.49 110.8l-.19-.01v-.05l.17-.02.06.04-.04.04zM96.42 22.29c-5.47 0-11.85 2.46-11.85 9.4 0 4.52 3.16 6.26 6.21 7.94 2.5 1.37 4.86 2.67 4.86 5.42 0 3.62-3.23 5.24-6.44 5.24a19.26 19.26 0 0 1-7.8-2.1l-1.52 4.93a27.32 27.32 0 0 0 8.95 1.7c3.94 0 13.11-1 13.11-10.41 0-4.9-3.48-6.91-6.54-8.69-2.33-1.35-4.54-2.63-4.54-5 0-2.7 2.86-3.91 5.7-3.91a15.78 15.78 0 0 1 6.58 1.57l1.39-4.76a22.76 22.76 0 0 0-8.11-1.33z"/><path class="cls-2" d="M108.18 29h5.1l-2.15 10.1h10.27l2.16-10.1h5.1l-5.32 25h-5.1l2.33-11H110.3L108 54h-5.1zM133 29h15l-.76 3.94h-9.95L136 39.11h8.89L144 43h-8.93l-1.49 7h10.05l-.83 4h-15.15zM152.35 29h6c4.7 0 10.13-.07 10.13 5.91 0 4.29-3.28 6.59-7.43 6.66v.07a2.7 2.7 0 0 1 2.59 2.29L166.09 54h-5.36l-1.24-5.87c-.58-2.65-.44-4.51-3.21-4.51h-1.93L152.14 54H147zm2.91 10.67h1.86c2.73 0 6-.82 6-4.12 0-2.62-2.3-2.62-4.37-2.62h-2.11zM171.43 29h5.1l.77 19.15h.07L185.82 29h6.85l.11 19.15h.07l9-19.15h5.29L195 54h-6.37l-.25-20h-.07l-9 20H173zM209.93 29h5.32l-5.36 25h-5.32zM219.95 29h6.45l5.43 19h.07l4.1-19h4.81l-5.5 25h-6.51l-5.32-19.15h-.07l-4 19.15h-4.88z"/><path class="cls-1" d="M244.28 86.08a3.53 3.53 0 1 1-3.53 3.53 3.53 3.53 0 0 1 3.53-3.53zm0 6.27a2.76 2.76 0 1 0-2.51-2.75 2.56 2.56 0 0 0 2.51 2.75zm-1.42-4.72h1.48c1 0 1.57.29 1.57 1.17 0 .71-.43 1-1 1l1 1.7H245l-.94-1.66h-.4v1.66h-.84zm1.52 1.61c.4 0 .68-.07.68-.52s-.43-.45-.76-.45h-.6v1zM104 85.81l-.47-.08s-.13-23.89-.13-24.28h-7.79L85.6 85.8l-.47-.07s-.89-23.9-.9-24.28h-5.67L80.45 93h7.18l10.61-25.4.47.07S99 92.6 99 93h7.26l14.25-31.53h-5.84z"/><path class="cls-2" d="M120.48 67.81h5l-5 25h-5zM129.84 67.81h4.75l-4.24 21.05h9.29l-.81 3.94h-14zM146.79 67.81h4.75l-4.24 21.06h9.29l-.81 3.94h-14zM163.52 67.81h5l-5 25h-4.95zM180.31 67.81h5.26l4.31 25h-4.75l-.82-5.73h-10.08l-3 5.73H166zm-4 15.32h7.33l-1.49-10.88H182zM197.44 67.81h7.84l1.59 18h.07l9.33-18h7.9l-5.05 25h-5l4.48-20.69h-.07L207.79 92.8h-4.55l-1.9-20.69h-.07l-4.33 20.69h-4.51zM239.92 72.61a10.75 10.75 0 0 0-4.92-1.29c-1.69 0-4 .72-4 2.86 0 4 8.07 3.76 8.07 10.71 0 6.12-4.54 8.34-9.73 8.34a19.1 19.1 0 0 1-6.75-1.39l1.22-4.26a13.48 13.48 0 0 0 5.8 1.72c2.27 0 4.51-1.22 4.51-3.9 0-4.51-8.07-3.8-8.07-10.45 0-5.26 4.27-7.55 8.82-7.55a15.68 15.68 0 0 1 6.13 1.09z"/></svg>