<svg xmlns="http://www.w3.org/2000/svg" viewBox="0 0 480 480"><path d="M101 253.967h122.418c5.522 0 10-4.477 10-10v-24.87c0-21.267-6.658-40.82-18.747-55.06-4.81-5.665-10.406-10.38-16.61-14.076 17.36-11.388 28.853-31 28.853-53.256 0-35.126-28.59-63.703-63.732-63.703-35.117 0-63.687 28.578-63.687 63.704 0 21.865 11.08 41.187 27.92 52.66a66.13 66.13 0 0 0-17.668 14.675C97.655 178.274 91 197.83 91 219.096v24.87c0 5.523 4.478 10 10 10zm18.492-157.264C119.492 72.605 139.09 53 163.18 53c24.114 0 43.732 19.605 43.732 43.703 0 24.086-19.618 43.682-43.732 43.682-24.09 0-43.688-19.596-43.688-43.682zM111 219.097c0-34.57 21.058-58.712 51.21-58.712s51.208 24.144 51.208 58.712v14.87H111v-14.87z"/><path d="M437.11 65.32L355.182 2.084A10 10 0 0 0 349.072 0H49c-5.522 0-10 4.477-10 10v460c0 5.523 4.478 10 10 10h382c5.522 0 10-4.477 10-10V73.236a10 10 0 0 0-3.89-7.916zM421 460H59V20h286.662L421 78.15V460z"/><path d="M384.533 270.806H98.887c-5.522 0-10 4.477-10 10s4.478 10 10 10h285.645c5.523 0 10-4.477 10-10s-4.477-10-10-10zM384.533 315.322H98.887c-5.522 0-10 4.477-10 10s4.478 10 10 10h285.645c5.523 0 10-4.477 10-10s-4.477-10-10-10zM260 164.226h124.532c5.523 0 10-4.477 10-10s-4.478-10-10-10H260c-5.523 0-10 4.477-10 10s4.477 10 10 10zM250 106c0 5.523 4.477 10 10 10h124.532c5.523 0 10-4.477 10-10s-4.478-10-10-10H260c-5.523 0-10 4.477-10 10zM260 208.742h124.532c5.523 0 10-4.477 10-10s-4.478-10-10-10H260c-5.523 0-10 4.477-10 10s4.477 10 10 10zM260 250h124.532c5.523 0 10-4.477 10-10s-4.478-10-10-10H260c-5.523 0-10 4.477-10 10s4.477 10 10 10zM384.533 365H98.887c-5.522 0-10 4.477-10 10s4.478 10 10 10h285.645c5.523 0 10-4.477 10-10s-4.477-10-10-10zM384.533 415.483H98.887c-5.522 0-10 4.477-10 10s4.478 10 10 10h285.645c5.523 0 10-4.477 10-10s-4.477-10-10-10z"/></svg>