<svg xmlns="http://www.w3.org/2000/svg" viewBox="0 0 484 226"><g><path fill="#fff" d="M264.292 66.532a1.54 1.54 0 0 1-1.09-2.632L320.31 6.794a1.543 1.543 0 0 1 2.18 2.18L265.38 66.08c-.295.3-.695.452-1.088.452zM416.57 218.81a1.54 1.54 0 0 1-1.09-2.633l57.105-57.105a1.543 1.543 0 1 1 2.18 2.18L417.66 218.36c-.303.3-.697.45-1.09.45zM257.95 98.255a1.543 1.543 0 0 1-1.09-2.632L352.032.45a1.543 1.543 0 0 1 2.18 2.182L259.04 97.804c-.303.3-.698.45-1.09.45zM384.843 225.153c-.39 0-.788-.15-1.09-.452-.6-.6-.6-1.578 0-2.18l95.175-95.175a1.543 1.543 0 1 1 2.18 2.18l-95.175 95.176c-.3.303-.692.453-1.09.453zM257.95 123.633c-.395 0-.79-.147-1.09-.45a1.546 1.546 0 0 1 0-2.183L377.41.45a1.543 1.543 0 1 1 2.182 2.182L259.04 123.184c-.303.3-.698.45-1.09.45zM359.466 225.153c-.395 0-.79-.15-1.09-.452a1.537 1.537 0 0 1 0-2.18l120.552-120.555a1.543 1.543 0 0 1 2.18 2.184L360.557 224.7a1.536 1.536 0 0 1-1.09.453zM261.127 145.843c-.4 0-.794-.152-1.093-.452a1.537 1.537 0 0 1 0-2.18L399.618 3.624a1.534 1.534 0 0 1 2.177 0 1.537 1.537 0 0 1 0 2.18l-139.58 139.587c-.302.3-.696.453-1.088.453zM267.467 164.877c-.397 0-.79-.15-1.09-.452a1.536 1.536 0 0 1 0-2.18L418.652 9.97a1.543 1.543 0 1 1 2.18 2.18L268.56 164.426a1.535 1.535 0 0 1-1.09.452zM276.986 180.738a1.54 1.54 0 0 1-1.093-2.632l158.62-158.62a1.543 1.543 0 0 1 2.18 2.18l-158.616 158.62a1.535 1.535 0 0 1-1.09.452zM318.225 215.635c-.394 0-.788-.15-1.09-.452-.6-.602-.6-1.58 0-2.18L469.41 60.727a1.54 1.54 0 0 1 2.18 0 1.53 1.53 0 0 1 0 2.18L319.315 215.183c-.3.3-.696.452-1.09.452zM289.67 193.43a1.543 1.543 0 0 1-1.09-2.632l158.625-158.62a1.54 1.54 0 0 1 2.18 0 1.54 1.54 0 0 1 0 2.18l-158.623 158.62c-.303.302-.697.452-1.09.452zM302.363 206.12a1.543 1.543 0 0 1-1.09-2.633l158.62-158.622a1.546 1.546 0 0 1 2.185 0 1.55 1.55 0 0 1 0 2.18L303.454 205.668c-.3.3-.697.452-1.09.452zM337.262 221.978c-.397 0-.79-.15-1.09-.452a1.537 1.537 0 0 1 0-2.18l139.58-139.587a1.546 1.546 0 0 1 2.184 0 1.54 1.54 0 0 1 0 2.182L338.352 221.525a1.537 1.537 0 0 1-1.09.453z"/></g><path fill="#fff" d="M225.135 112.577c0 62.176-50.38 112.58-112.56 112.58C50.403 225.156 0 174.752 0 112.576 0 50.407 50.403.002 112.576.002c62.178 0 112.56 50.406 112.56 112.575z"/></svg>
